<svg width="521" height="580" viewBox="0 0 521 580" fill="none" xmlns="http://www.w3.org/2000/svg">
<rect width="39.31" height="41.4897" transform="matrix(-0.898612 0.438744 0.437759 0.899092 309.967 380.692)" fill="#213B85"/>
<rect width="66.4552" height="70.1185" rx="33.2276" transform="matrix(-0.981603 0.190934 0.190423 0.981702 320.948 304.302)" fill="#CE5C1C"/>
<path d="M499.067 510.215C492.535 522.358 478.671 527.571 478.671 527.571C478.671 527.571 475.398 513.096 481.93 500.953C488.462 488.81 502.326 483.597 502.326 483.597C502.326 483.597 505.599 498.072 499.067 510.215Z" fill="#213B85"/>
<path d="M494.577 506.22C482.784 513.332 478.242 527.459 478.242 527.459C478.242 527.459 492.821 530.054 504.614 522.942C516.407 515.83 520.948 501.704 520.948 501.704C520.948 501.704 506.37 499.108 494.577 506.22Z" fill="#CE5C1C"/>
<path d="M230.176 153.643H303.756V154.696H230.176V153.643Z" fill="#FFCEAE"/>
<path d="M250.148 154.433H251.199V164.179H250.148V154.433Z" fill="#FFCEAE"/>
<path d="M282.207 154.433H283.259V164.179H282.207V154.433Z" fill="#FFCEAE"/>
<path d="M192.859 204.218H266.44V205.272H192.859V204.218Z" fill="#FFCEAE"/>
<path d="M245.417 194.735H246.468V204.482H245.417V194.735Z" fill="#FFCEAE"/>
<path d="M213.357 194.735H214.408V204.482H213.357V194.735Z" fill="#FFCEAE"/>
<path d="M95.1025 227.925H168.683V228.979H95.1025V227.925Z" fill="#FFCEAE"/>
<path d="M147.66 218.443H148.711V228.189H147.66V218.443Z" fill="#FFCEAE"/>
<path d="M115.6 218.443H116.652V228.189H115.6V218.443Z" fill="#FFCEAE"/>
<path d="M102.461 472.373H176.041V473.427H102.461V472.373Z" fill="#FFCEAE"/>
<path d="M155.018 462.89H156.069V472.637H155.018V462.89Z" fill="#FFCEAE"/>
<path d="M122.959 462.89H124.01V472.637H122.959V462.89Z" fill="#FFCEAE"/>
<path d="M228.073 303.262H301.654V304.315H228.073V303.262Z" fill="#FFCEAE"/>
<path d="M280.63 293.779H281.681V303.525H280.63V293.779Z" fill="#FFCEAE"/>
<path d="M248.57 293.779H249.622V303.525H248.57V293.779Z" fill="#FFCEAE"/>
<path d="M204.948 430.227H278.528V431.28H204.948V430.227Z" fill="#FFCEAE"/>
<path d="M257.505 420.744H258.556V430.49H257.505V420.744Z" fill="#FFCEAE"/>
<path d="M225.445 420.744H226.496V430.49H225.445V420.744Z" fill="#FFCEAE"/>
<path d="M87.2189 391.768H160.799V392.822H87.2189V391.768Z" fill="#FFCEAE"/>
<path d="M139.777 382.286H140.828V392.032H139.777V382.286Z" fill="#FFCEAE"/>
<path d="M107.717 382.286H108.768V392.032H107.717V382.286Z" fill="#FFCEAE"/>
<path d="M318.235 509.133L440.4 485.37L440.23 484.489L318.943 508.081L310.655 465.353L421.671 443.759L424.88 431.448L424.014 431.221L420.947 442.985L309.605 464.643L318.235 509.133Z" fill="#201F30"/>
<path d="M428.328 510.117C423.231 511.108 418.296 507.77 417.305 502.661C416.314 497.553 419.642 492.607 424.739 491.616C429.836 490.625 434.771 493.963 435.762 499.071C436.753 504.18 433.424 509.125 428.328 510.117Z" fill="#3F3D56"/>
<path d="M337.363 527.811C332.266 528.802 327.331 525.464 326.34 520.355C325.349 515.246 328.677 510.301 333.774 509.31C338.871 508.319 343.806 511.656 344.797 516.765C345.788 521.874 342.459 526.819 337.363 527.811Z" fill="#3F3D56"/>
<path d="M191.347 348.684C188.192 349.297 185.137 347.231 184.524 344.069C183.91 340.906 185.971 337.845 189.126 337.231C192.281 336.617 195.336 338.684 195.949 341.846C196.563 345.009 194.502 348.07 191.347 348.684Z" fill="#3F3D56"/>
<path d="M293.89 453.529L431.205 426.82L442.033 323.692L244.409 362.132L244.7 362.67L293.89 453.529ZM430.384 426.065L294.364 452.523L245.778 362.78L441.016 324.804L430.384 426.065Z" fill="#201F30"/>
<path d="M339.703 424.827L414.66 423.558L429.974 369.626L322.094 371.452L322.198 371.766L339.703 424.827Z" fill="#174900"/>
<path d="M240.26 353.915L241.066 353.523L231.016 332.74L197.28 339.302L197.451 340.183L230.511 333.753L240.26 353.915Z" fill="#201F30"/>
<path d="M260.009 389.724L438.157 355.073L438.328 355.954L260.18 390.605L260.009 389.724Z" fill="#201F30"/>
<path d="M276.507 420.197L434.546 389.456L434.717 390.337L276.678 421.078L276.507 420.197Z" fill="#201F30"/>
<path d="M342.87 343.438L343.749 343.267L362.461 439.734L361.582 439.905L342.87 343.438Z" fill="#201F30"/>
<path d="M303.515 351.064L328.536 446.302L327.67 446.53L302.649 351.292L303.515 351.064Z" fill="#201F30"/>
<path d="M383.074 335.588L383.962 335.474L396.402 433.162L395.514 433.276L383.074 335.588Z" fill="#201F30"/>
<path d="M208.016 167.323C208.016 167.323 200.333 189.243 205.061 192.615C209.789 195.987 189.104 223.527 189.104 223.527L164.281 216.782L177.875 193.739C177.875 193.739 179.648 170.696 179.648 167.323C179.648 163.951 208.016 167.323 208.016 167.323Z" fill="#FFD6BA"/>
<path opacity="0.1" d="M208.016 167.323C208.016 167.323 200.333 189.243 205.061 192.615C209.789 195.987 189.104 223.527 189.104 223.527L164.281 216.782L177.875 193.739C177.875 193.739 179.648 170.696 179.648 167.323C179.648 163.951 208.016 167.323 208.016 167.323Z" fill="black"/>
<path d="M220.912 323.569C220.912 323.569 223.155 351.671 220.912 366.284C218.669 380.896 215.305 421.363 215.305 421.363C215.305 421.363 215.305 497.799 202.97 498.924C190.635 500.048 181.663 501.172 180.542 496.675C179.421 492.179 186.149 489.931 182.785 487.683C179.421 485.435 178.299 477.566 182.785 468.574C187.27 459.581 182.785 368.532 182.785 368.532L161.478 425.859C161.478 425.859 159.235 473.07 156.993 479.814C154.75 486.559 159.235 498.924 151.386 500.048C143.536 501.172 134.565 494.427 130.079 492.179C125.594 489.931 136.808 489.931 134.565 488.807C132.322 487.683 125.594 484.311 127.837 483.187C130.079 482.062 132.322 428.107 132.322 428.107C132.322 428.107 138.49 312.89 146.339 308.394C154.189 303.898 159.235 311.642 159.235 311.642L220.912 323.569Z" fill="#201F30"/>
<path d="M200.727 494.427V503.42C200.727 503.42 210.82 527.864 200.727 527.864C190.635 527.864 182.785 530.397 182.785 527.025V496.675L200.727 494.427Z" fill="#201F30"/>
<path d="M137.469 493.538L135.996 502.409C135.996 502.409 122.036 524.864 131.992 526.522C141.947 528.18 149.276 531.969 149.828 528.642L154.8 498.704L137.469 493.538Z" fill="#201F30"/>
<path d="M185.379 182.557C196.124 185.531 207.245 179.211 210.218 168.441C213.192 157.67 206.892 146.528 196.147 143.553C185.402 140.579 174.281 146.899 171.308 157.669C168.334 168.44 174.634 179.582 185.379 182.557Z" fill="#FFD6BA"/>
<path d="M198.484 201.046C198.484 201.046 192.877 217.907 183.906 214.534L174.935 211.162L159.235 319.073C159.235 319.073 171.571 337.058 189.513 325.817C207.455 314.576 198.484 201.046 198.484 201.046Z" fill="white"/>
<path d="M182.785 197.673L177.738 186.995C177.738 186.995 148.021 201.045 143.536 205.542C139.05 210.038 139.05 216.782 139.05 216.782L146.9 244.884C146.9 244.884 144.657 306.708 144.657 308.956C144.657 311.204 136.808 323.569 142.414 319.072C148.021 314.576 149.143 310.08 153.628 316.824C158.114 323.569 168.207 331.437 168.207 331.437L182.785 197.673Z" fill="#CE5C1C"/>
<path d="M143.536 278.606L146.9 310.08C146.9 310.08 167.085 328.065 162.6 329.189C158.114 330.313 155.871 325.817 155.871 325.817C155.871 325.817 148.021 333.686 143.536 329.189C139.05 324.693 127.836 281.978 127.836 281.978L143.536 278.606Z" fill="#FFD6BA"/>
<path d="M198.787 135.608C194.516 134.26 189.922 132.906 185.642 134.229C183.646 134.935 181.781 135.969 180.124 137.288C175.343 140.795 170.724 145.595 170.502 151.528L172.195 151.353C171.785 152.84 171.05 154.216 170.044 155.383C170.432 154.816 170.873 156.029 170.504 156.61L167.293 161.679C170.341 161.428 173.214 164.44 172.829 167.48C174.796 161.104 177.496 153.916 183.739 151.592C186.886 150.42 190.367 150.76 193.704 151.13C196.783 151.471 199.997 151.873 202.552 153.628C205.107 155.382 206.712 158.941 205.265 161.687C206.691 161.598 207.895 162.91 208.202 164.308C208.508 165.707 208.145 167.155 207.783 168.541C208.899 169.908 211.017 168.393 212.026 166.943C214.394 163.541 216.682 159.855 217.053 155.724C217.423 151.593 215.264 146.949 211.279 145.831C211.91 145.432 212.362 144.803 212.539 144.076L209.328 142.888C210.196 143.001 211.075 142.807 211.816 142.342C210.095 143.432 200.9 136.276 198.787 135.608Z" fill="#201F30"/>
<path d="M192.877 194.301C192.877 194.301 202.006 185.334 205.291 185.883C208.576 186.433 213.062 194.301 213.062 194.301C213.062 194.301 239.975 203.294 238.854 212.286C237.733 221.279 225.397 265.117 225.397 265.117C225.397 265.117 215.305 317.948 224.276 323.569C233.247 329.189 181.663 343.802 180.542 337.058C179.42 330.313 177.178 262.869 180.542 252.753C183.906 242.636 192.877 194.301 192.877 194.301Z" fill="#CE5C1C"/>
<path d="M153.628 212.286H139.762C139.762 212.286 130.079 255.001 128.958 259.497C127.836 263.993 125.593 285.351 126.715 285.351C127.836 285.351 150.264 280.854 150.264 284.226L153.628 212.286Z" fill="#CE5C1C"/>
<path d="M154.098 325.217H207.181C212.361 301.33 212.794 278.252 207.181 256.202H154.098C162.664 277.855 163.2 300.776 154.098 325.217Z" fill="#FFCEAE"/>
<path d="M228.762 292.3L213.062 299.045C213.062 299.045 182.785 303.541 182.785 291.176C182.785 278.812 213.062 285.556 213.062 285.556L223.156 282.321L228.762 292.3Z" fill="#FFD6BA"/>
<path d="M225.398 205.542L238.855 208.914L248.947 268.49C248.947 268.49 252.312 284.226 246.705 285.351C241.098 286.475 225.398 295.467 225.398 295.467C225.398 295.467 223.155 278.606 218.67 278.606L229.884 269.614L223.155 230.271L225.398 205.542Z" fill="#CE5C1C"/>
<path d="M415.703 320.647H489.283V321.7H415.703V320.647Z" fill="#FFCEAE"/>
<path d="M468.26 311.164H469.312V320.91H468.26V311.164Z" fill="#FFCEAE"/>
<path d="M436.2 311.164H437.251V320.91H436.2V311.164Z" fill="#FFCEAE"/>
<path d="M389.95 164.706H463.53V165.76H389.95V164.706Z" fill="#FFCEAE"/>
<path d="M409.922 165.496H410.973V175.243H409.922V165.496Z" fill="#FFCEAE"/>
<path d="M441.982 165.496H443.033V175.243H441.982V165.496Z" fill="#FFCEAE"/>
<path d="M301.553 268.491H375.134V269.545H301.553V268.491Z" fill="#FFCEAE"/>
<path d="M321.525 269.281H322.576V279.028H321.525V269.281Z" fill="#FFCEAE"/>
<path d="M353.585 269.281H354.636V279.028H353.585V269.281Z" fill="#FFCEAE"/>
<path d="M440.93 267.964H514.511V269.018H440.93V267.964Z" fill="#FFCEAE"/>
<path d="M460.902 268.754H461.953V278.501H460.902V268.754Z" fill="#FFCEAE"/>
<path d="M492.963 268.754H494.014V278.501H492.963V268.754Z" fill="#FFCEAE"/>
<path d="M352.634 215.281H426.215V216.335H352.634V215.281Z" fill="#FFCEAE"/>
<path d="M405.191 205.799H406.242V215.545H405.191V205.799Z" fill="#FFCEAE"/>
<path d="M373.131 205.799H374.183V215.545H373.131V205.799Z" fill="#FFCEAE"/>
<line x1="103.285" y1="531.717" x2="487.063" y2="531.717" stroke="#213B85" stroke-width="2" stroke-dasharray="10 8"/>
<line x1="212.035" y1="547.478" x2="513.856" y2="547.478" stroke="#213B85" stroke-width="2" stroke-dasharray="10 8"/>
<line x1="160.812" y1="579" x2="375.948" y2="579" stroke="#213B85" stroke-width="2" stroke-dasharray="10 8"/>
<line x1="103.285" y1="563.239" x2="262.47" y2="563.239" stroke="#213B85" stroke-width="2" stroke-dasharray="10 8"/>
<line x1="300.296" y1="563.239" x2="371.22" y2="563.239" stroke="#213B85" stroke-width="2" stroke-dasharray="10 8"/>
<line x1="386.981" y1="563.239" x2="430.324" y2="563.239" stroke="#213B85" stroke-width="2" stroke-dasharray="10 8"/>
<line x1="426.383" y1="579" x2="469.726" y2="579" stroke="#213B85" stroke-width="2" stroke-dasharray="10 8"/>
<line x1="95.405" y1="579" x2="122.987" y2="579" stroke="#213B85" stroke-width="2" stroke-dasharray="10 8"/>
</svg>
