<svg width="304" height="43" viewBox="0 0 304 43" fill="none" xmlns="http://www.w3.org/2000/svg">
<path d="M13.3852 23.878C13.4682 23.8894 13.5524 23.8894 13.6359 23.8953H18.3359C18.4195 23.8898 18.5037 23.8898 18.5866 23.878C18.7528 23.8551 18.9153 23.809 19.0695 23.7415C19.8697 23.3912 20.3075 22.4816 20.1385 21.6628C20 20.9909 19.4771 20.436 18.8327 20.254C18.7522 20.2311 18.6686 20.2197 18.5866 20.2023C18.503 20.1964 18.4195 20.1909 18.3359 20.185H13.6359C13.4138 20.2002 13.3551 20.1927 13.1392 20.2537C12.9776 20.2992 12.8228 20.367 12.6793 20.4549C12.0272 20.8544 11.68 21.6748 11.8333 22.4173C11.9897 23.1758 12.6394 23.7746 13.3852 23.878Z" fill="#CE5C1C"/>
<path d="M2.65673 9.03882C2.73967 9.05027 2.82384 9.05027 2.9074 9.05615H7.60743C7.69098 9.05027 7.77515 9.05027 7.85809 9.03882C8.02428 9.01592 8.18678 8.97011 8.34099 8.90265C9.14123 8.55232 9.57898 7.64277 9.41002 6.82389C9.27148 6.15201 8.74864 5.59712 8.10415 5.41514C8.02367 5.39224 7.94011 5.38079 7.85809 5.36346C7.77454 5.35758 7.69098 5.35201 7.60743 5.34613H2.9074C2.6853 5.36129 2.62663 5.35387 2.41067 5.41483C2.24909 5.46033 2.09427 5.5281 1.95081 5.616C1.29864 6.01553 0.951511 6.83565 1.1048 7.57839C1.26116 8.33661 1.91087 8.93545 2.65673 9.03882Z" fill="#CE5C1C"/>
<path d="M6.7823 20.2543C6.70182 20.2314 6.61827 20.22 6.53625 20.2026C6.45269 20.1968 6.36914 20.1912 6.28558 20.1853H3.7448C3.5227 20.2005 3.46403 20.193 3.24807 20.254C3.08649 20.2995 2.93166 20.3673 2.78821 20.4552C2.13604 20.8547 1.78891 21.6751 1.9422 22.4176C2.09856 23.1755 2.74827 23.7746 3.49413 23.8777C3.57707 23.8891 3.66124 23.8891 3.7448 23.895H6.28558C6.36914 23.8894 6.4533 23.8894 6.53625 23.8777C6.70244 23.8548 6.86494 23.8087 7.01915 23.7412C7.81938 23.3909 8.25713 22.4813 8.08848 21.6624C7.94963 20.9912 7.4271 20.4363 6.7823 20.2543Z" fill="#CE5C1C"/>
<path d="M15.9713 34.0121C15.8908 33.9892 15.8072 33.9778 15.7252 33.9604C15.6417 33.9546 15.5581 33.949 15.4745 33.9431H12.9338C12.7117 33.9586 12.653 33.9509 12.437 34.0118C12.2751 34.0573 12.1206 34.1251 11.9772 34.213C11.325 34.6125 10.9779 35.4326 11.1312 36.1754C11.2875 36.9333 11.9372 37.5324 12.6831 37.6355C12.766 37.6469 12.8502 37.6469 12.9338 37.6528H15.4745C15.5581 37.6469 15.6423 37.6469 15.7252 37.6355C15.8914 37.6126 16.0539 37.5665 16.2081 37.4993C17.0083 37.149 17.4461 36.2394 17.2771 35.4206C17.1389 34.7493 16.6161 34.1941 15.9713 34.0121Z" fill="#CE5C1C"/>
<path d="M60.6395 14.11C60.6389 14.0949 60.6383 14.0797 60.6371 14.0645C60.6349 14.0187 60.6325 13.9729 60.6254 13.9278C60.5827 13.6418 60.4534 13.3713 60.258 13.1593C60.1572 13.0498 60.1059 13.0136 60.0153 12.9526C59.9941 12.9374 59.9723 12.9229 59.9502 12.909C59.9416 12.9031 59.9327 12.8969 59.9232 12.8907L47.2789 5.53627C47.2144 5.50501 47.152 5.4688 47.0853 5.4425C46.9069 5.37193 46.8559 5.37503 46.6679 5.34656C46.6034 5.34656 46.5391 5.34687 46.4749 5.34996C46.4587 5.34872 46.4421 5.3478 46.4258 5.34656H15.4745C15.2524 5.36172 15.1937 5.35429 14.9777 5.41526C14.8158 5.46075 14.6613 5.52853 14.5179 5.61642C13.8657 6.01596 13.5186 6.83607 13.6719 7.57882C13.8282 8.33673 14.4779 8.93588 15.2238 9.03894C15.3067 9.05039 15.3909 9.05039 15.4745 9.05627H24.026C24.1108 9.06432 24.2481 9.077 24.3329 9.08505C24.3959 9.09681 24.4589 9.10764 24.5206 9.12497C25.1654 9.30695 25.6879 9.86215 25.8265 10.5337C25.9954 11.3526 25.5577 12.2621 24.7575 12.6125C24.6036 12.6799 24.4411 12.7257 24.2746 12.7486C24.1916 12.7601 24.1074 12.7601 24.0239 12.766H2.90788C2.68579 12.7811 2.62711 12.7737 2.41116 12.8347C2.24958 12.8802 2.09475 12.948 1.95129 13.0358C1.29913 13.4354 0.952 14.2555 1.10529 14.9982C1.26165 15.7562 1.91136 16.3553 2.65722 16.4584C2.74016 16.4698 2.82433 16.4698 2.90788 16.4757H28.3301C28.4149 16.4837 28.5522 16.4964 28.637 16.5045C28.6999 16.5162 28.7629 16.5271 28.8247 16.5444C29.4692 16.7264 29.992 17.2816 30.1305 17.9531C30.2995 18.772 29.8617 19.6816 29.0615 20.0319C28.9076 20.0994 28.7451 20.1452 28.5786 20.1684C28.4957 20.1798 28.4115 20.1798 28.3279 20.1857H24.551C24.3289 20.2009 24.2703 20.1934 24.0543 20.2544C23.8927 20.2999 23.7379 20.3677 23.5944 20.4556C22.9423 20.8551 22.5955 21.6755 22.7484 22.418C22.9048 23.1759 23.5545 23.775 24.3004 23.8781C24.3833 23.8895 24.4675 23.8895 24.551 23.8954H33.8712C34.6899 23.8954 35.3534 23.2269 35.3534 22.4022V17.1355C35.3534 16.9195 35.5856 16.7842 35.7715 16.8922L42.295 20.6868C44.0469 21.7056 45.1261 23.5887 45.1261 25.6266V28.9461C45.1261 31.0598 42.855 32.3807 41.038 31.3238L35.6824 28.2021C35.4996 28.0957 35.3657 27.918 35.3233 27.7097C35.1851 27.0307 34.5873 26.5244 33.8712 26.5244H10.5714C10.3493 26.5396 10.2906 26.5322 10.0747 26.5931C9.91276 26.6386 9.75825 26.7064 9.61479 26.7943C8.96262 27.1938 8.6158 28.014 8.76878 28.7567C8.92515 29.5146 9.57485 30.1138 10.3207 30.2168C10.4037 30.2283 10.4878 30.2283 10.5714 30.2341H26.2894C26.3742 30.2422 26.5115 30.2549 26.5963 30.2629C26.6593 30.2747 26.7223 30.2855 26.784 30.3029C27.4285 30.4848 27.9513 31.04 28.0899 31.7116C28.2588 32.5305 27.8211 33.44 27.0208 33.7904C26.8669 33.8578 26.7044 33.9036 26.5379 33.9268C26.455 33.9383 26.3708 33.9383 26.2873 33.9442H21.6499C21.4278 33.9593 21.3691 33.9519 21.1532 34.0129C20.9916 34.0584 20.8368 34.1261 20.6933 34.214C20.0412 34.6136 19.694 35.4337 19.8473 36.1764C20.0037 36.9343 20.6534 37.5335 21.3993 37.6366C21.4822 37.648 21.5664 37.648 21.6499 37.6539H46.4706C46.4805 37.6533 46.49 37.6526 46.4998 37.6523C46.5219 37.6533 46.5438 37.6542 46.5659 37.6539C46.6003 37.6542 46.6347 37.6526 46.6688 37.6502C46.7069 37.6474 46.7447 37.6427 46.7821 37.6366C46.886 37.6205 46.9883 37.5929 47.0863 37.5539C47.1219 37.54 47.156 37.523 47.1901 37.5056C47.1947 37.5038 47.1996 37.5022 47.2039 37.5001C47.3148 37.4515 47.4183 37.3918 47.5145 37.3234L59.9238 30.1057C59.9827 30.0652 60.0451 30.029 60.101 29.9838C60.3253 29.8037 60.4933 29.5555 60.5778 29.2791C60.6343 29.0947 60.6272 29.0436 60.6417 28.8526V14.1435C60.6408 14.1323 60.6401 14.1212 60.6395 14.11ZM47.05 8.74339L55.9613 13.9265C56.1269 14.0228 56.1269 14.2639 55.9613 14.3601L54.2128 15.377C53.9136 15.5513 53.5446 15.5513 53.2454 15.377L44.3765 10.2184C44.1898 10.1097 44.1898 9.83832 44.3765 9.72969L46.0728 8.74308C46.3751 8.5676 46.7477 8.5676 47.05 8.74339ZM46.0777 19.5463L37.2088 14.388C37.0221 14.2793 37.0221 14.0079 37.2088 13.8993L38.9055 12.9127C39.2077 12.7369 39.5803 12.7369 39.8826 12.9127L48.7936 18.0958C48.9592 18.1921 48.9592 18.4331 48.7936 18.5294L47.0451 19.5463C46.7459 19.7203 46.3769 19.7203 46.0777 19.5463ZM57.7697 27.6327C57.7697 27.8707 57.6438 28.0907 57.4389 28.2099L48.9893 33.1247C48.5485 33.3812 47.9971 33.0606 47.9971 32.5475V22.7179C47.9971 22.4799 48.123 22.2598 48.3279 22.1407L50.6036 20.817C50.6048 22.522 50.607 24.9507 50.6085 26.1682C50.6088 26.5065 50.9716 26.7172 51.2634 26.5498L54.8103 24.5144C55.0293 24.3887 55.1648 24.1541 55.1648 23.9001V18.1639L56.7775 17.2259C57.2183 16.9693 57.7697 17.2899 57.7697 17.803V27.6327Z" fill="url(#paint0_linear_299_344)"/>
<path d="M192.547 11.352V13.652H197.047V16.632H192.547V19.172H197.647V22.312H188.627V8.21204H197.647V11.352H192.547Z" fill="#213B85"/>
<path d="M181.545 22.452C179.905 22.452 178.558 22.0653 177.505 21.292C176.451 20.5053 175.885 19.3853 175.805 17.932H179.985C180.025 18.4253 180.171 18.7853 180.425 19.012C180.678 19.2387 181.005 19.352 181.405 19.352C181.765 19.352 182.058 19.2653 182.285 19.092C182.525 18.9053 182.645 18.652 182.645 18.332C182.645 17.9187 182.451 17.5987 182.065 17.372C181.678 17.1453 181.051 16.892 180.185 16.612C179.265 16.3053 178.518 16.012 177.945 15.732C177.385 15.4387 176.891 15.0187 176.465 14.472C176.051 13.912 175.845 13.1853 175.845 12.292C175.845 11.3853 176.071 10.612 176.525 9.972C176.978 9.31867 177.605 8.82534 178.405 8.492C179.205 8.15867 180.111 7.992 181.125 7.992C182.765 7.992 184.071 8.37867 185.045 9.152C186.031 9.912 186.558 10.9853 186.625 12.372H182.365C182.351 11.9453 182.218 11.6253 181.965 11.412C181.725 11.1987 181.411 11.092 181.025 11.092C180.731 11.092 180.491 11.1787 180.305 11.352C180.118 11.5253 180.025 11.772 180.025 12.092C180.025 12.3587 180.125 12.592 180.325 12.792C180.538 12.9787 180.798 13.1453 181.105 13.292C181.411 13.4253 181.865 13.5987 182.465 13.812C183.358 14.1187 184.091 14.4253 184.665 14.732C185.251 15.0253 185.751 15.4453 186.165 15.992C186.591 16.5253 186.805 17.2053 186.805 18.032C186.805 18.872 186.591 19.6253 186.165 20.292C185.751 20.9587 185.145 21.4853 184.345 21.872C183.558 22.2587 182.625 22.452 181.545 22.452Z" fill="#213B85"/>
<path d="M165.826 8.21204V16.392C165.826 17.152 165.999 17.7387 166.346 18.152C166.706 18.5654 167.246 18.772 167.966 18.772C168.686 18.772 169.226 18.5654 169.586 18.152C169.959 17.7254 170.146 17.1387 170.146 16.392V8.21204H174.066V16.392C174.066 17.6854 173.792 18.792 173.246 19.712C172.699 20.6187 171.952 21.3054 171.006 21.772C170.072 22.2254 169.032 22.452 167.886 22.452C166.739 22.452 165.712 22.2254 164.806 21.772C163.912 21.3054 163.206 20.6187 162.686 19.712C162.179 18.8054 161.926 17.6987 161.926 16.392V8.21204H165.826Z" fill="#213B85"/>
<path d="M153.004 22.452C151.684 22.452 150.47 22.1453 149.364 21.532C148.257 20.9053 147.377 20.0453 146.724 18.952C146.084 17.8453 145.764 16.5987 145.764 15.212C145.764 13.8253 146.084 12.5853 146.724 11.492C147.377 10.3853 148.257 9.52534 149.364 8.912C150.47 8.29867 151.684 7.992 153.004 7.992C154.337 7.992 155.55 8.29867 156.644 8.912C157.75 9.52534 158.624 10.3853 159.264 11.492C159.904 12.5853 160.224 13.8253 160.224 15.212C160.224 16.5987 159.904 17.8453 159.264 18.952C158.624 20.0453 157.75 20.9053 156.644 21.532C155.537 22.1453 154.324 22.452 153.004 22.452ZM153.004 18.812C154.004 18.812 154.79 18.4853 155.364 17.832C155.95 17.1787 156.244 16.3053 156.244 15.212C156.244 14.092 155.95 13.212 155.364 12.572C154.79 11.9187 154.004 11.592 153.004 11.592C151.99 11.592 151.197 11.9187 150.624 12.572C150.05 13.212 149.764 14.092 149.764 15.212C149.764 16.3187 150.05 17.1987 150.624 17.852C151.197 18.492 151.99 18.812 153.004 18.812Z" fill="#213B85"/>
<path d="M144.001 8.21204V22.312H140.081V16.652H135.301V22.312H131.381V8.21204H135.301V13.512H140.081V8.21204H144.001Z" fill="#213B85"/>
<path d="M124.344 11.352V13.652H128.844V16.632H124.344V19.172H129.444V22.312H120.424V8.21204H129.444V11.352H124.344Z" fill="#213B85"/>
<path d="M114.341 22.312L111.541 17.112H111.121V22.312H107.201V8.21204H113.381C114.515 8.21204 115.475 8.41204 116.261 8.81204C117.048 9.1987 117.641 9.7387 118.041 10.432C118.441 11.112 118.641 11.8787 118.641 12.732C118.641 13.692 118.375 14.5387 117.841 15.272C117.321 15.992 116.555 16.5054 115.541 16.812L118.721 22.312H114.341ZM111.121 14.432H113.061C113.595 14.432 113.995 14.3054 114.261 14.052C114.528 13.7987 114.661 13.432 114.661 12.952C114.661 12.4987 114.521 12.1454 114.241 11.892C113.975 11.6254 113.581 11.492 113.061 11.492H111.121V14.432Z" fill="#213B85"/>
<path d="M101.024 20.012H96.0236L95.2636 22.312H91.1436L96.2836 8.21204H100.804L105.924 22.312H101.784L101.024 20.012ZM100.044 17.012L98.5236 12.452L97.0236 17.012H100.044Z" fill="#213B85"/>
<path d="M90.44 8.21204L86.98 22.312H82.16L80.22 13.672L78.24 22.312H73.42L70 8.21204H74.24L75.88 17.852L78.1 8.21204H82.4L84.56 17.772L86.2 8.21204H90.44Z" fill="#213B85"/>
<path d="M176.409 27.916V30.016H179.229V31.348H176.409V33.568H179.589V34.936H174.729V26.548H179.589V27.916H176.409Z" fill="#CE5C1C"/>
<path d="M173.069 34.936H171.389L167.585 29.188V34.936H165.905V26.548H167.585L171.389 32.308V26.548H173.069V34.936Z" fill="#CE5C1C"/>
<path d="M164.245 26.5601V34.9361H162.565V26.5601H164.245Z" fill="#CE5C1C"/>
<path d="M158.738 33.6041H161.498V34.9361H157.058V26.5601H158.738V33.6041Z" fill="#CE5C1C"/>
<path d="M153.678 29.08C153.486 28.728 153.222 28.46 152.886 28.276C152.55 28.092 152.158 28 151.71 28C151.214 28 150.774 28.112 150.39 28.336C150.006 28.56 149.706 28.88 149.49 29.296C149.274 29.712 149.166 30.192 149.166 30.736C149.166 31.296 149.274 31.784 149.49 32.2C149.714 32.616 150.022 32.936 150.414 33.16C150.806 33.384 151.262 33.496 151.782 33.496C152.422 33.496 152.946 33.328 153.354 32.992C153.762 32.648 154.03 32.172 154.158 31.564H151.278V30.28H155.814V31.744C155.702 32.328 155.462 32.868 155.094 33.364C154.726 33.86 154.25 34.26 153.666 34.564C153.09 34.86 152.442 35.008 151.722 35.008C150.914 35.008 150.182 34.828 149.526 34.468C148.878 34.1 148.366 33.592 147.99 32.944C147.622 32.296 147.438 31.56 147.438 30.736C147.438 29.912 147.622 29.176 147.99 28.528C148.366 27.872 148.878 27.364 149.526 27.004C150.182 26.636 150.91 26.452 151.71 26.452C152.654 26.452 153.474 26.684 154.17 27.148C154.866 27.604 155.346 28.248 155.61 29.08H153.678Z" fill="#CE5C1C"/>
<path d="M144.393 33.34H141.057L140.505 34.936H138.741L141.753 26.548H143.709L146.721 34.936H144.945L144.393 33.34ZM143.937 31.996L142.725 28.492L141.513 31.996H143.937Z" fill="#CE5C1C"/>
<path d="M138.031 26.5601V27.9161H135.799V34.9361H134.119V27.9161H131.887V26.5601H138.031Z" fill="#CE5C1C"/>
<path d="M123.798 26.5601C124.678 26.5601 125.45 26.7321 126.114 27.0761C126.786 27.4201 127.302 27.9121 127.662 28.5521C128.03 29.1841 128.214 29.9201 128.214 30.7601C128.214 31.6001 128.03 32.3361 127.662 32.9681C127.302 33.5921 126.786 34.0761 126.114 34.4201C125.45 34.7641 124.678 34.9361 123.798 34.9361H120.87V26.5601H123.798ZM123.738 33.5081C124.618 33.5081 125.298 33.2681 125.778 32.7881C126.258 32.3081 126.498 31.6321 126.498 30.7601C126.498 29.8881 126.258 29.2081 125.778 28.7201C125.298 28.2241 124.618 27.9761 123.738 27.9761H122.55V33.5081H123.738Z" fill="#CE5C1C"/>
<path d="M119.21 34.936H117.53L113.726 29.188V34.936H112.046V26.548H113.726L117.53 32.308V26.548H119.21V34.936Z" fill="#CE5C1C"/>
<path d="M108.592 33.34H105.256L104.704 34.936H102.94L105.952 26.548H107.908L110.92 34.936H109.144L108.592 33.34ZM108.136 31.996L106.924 28.492L105.712 31.996H108.136Z" fill="#CE5C1C"/>
<path d="M100.089 34.9361L98.2406 31.6721H97.4486V34.9361H95.7686V26.5601H98.9126C99.5606 26.5601 100.113 26.6761 100.569 26.9081C101.025 27.1321 101.365 27.4401 101.589 27.8321C101.821 28.2161 101.937 28.6481 101.937 29.1281C101.937 29.6801 101.777 30.1801 101.457 30.6281C101.137 31.0681 100.661 31.3721 100.029 31.5401L102.033 34.9361H100.089ZM97.4486 30.4121H98.8526C99.3086 30.4121 99.6486 30.3041 99.8726 30.0881C100.097 29.8641 100.209 29.5561 100.209 29.1641C100.209 28.7801 100.097 28.4841 99.8726 28.2761C99.6486 28.0601 99.3086 27.9521 98.8526 27.9521H97.4486V30.4121Z" fill="#CE5C1C"/>
<path d="M92.8096 30.6401C93.2816 30.7281 93.6696 30.9641 93.9736 31.3481C94.2776 31.7321 94.4296 32.1721 94.4296 32.6681C94.4296 33.1161 94.3176 33.5121 94.0936 33.8561C93.8776 34.1921 93.5616 34.4561 93.1456 34.6481C92.7296 34.8401 92.2376 34.9361 91.6696 34.9361H88.0576V26.5601H91.5136C92.0816 26.5601 92.5696 26.6521 92.9776 26.8361C93.3936 27.0201 93.7056 27.2761 93.9136 27.6041C94.1296 27.9321 94.2376 28.3041 94.2376 28.7201C94.2376 29.2081 94.1056 29.6161 93.8416 29.9441C93.5856 30.2721 93.2416 30.5041 92.8096 30.6401ZM89.7376 30.0161H91.2736C91.6736 30.0161 91.9816 29.9281 92.1976 29.7521C92.4136 29.5681 92.5216 29.3081 92.5216 28.9721C92.5216 28.6361 92.4136 28.3761 92.1976 28.1921C91.9816 28.0081 91.6736 27.9161 91.2736 27.9161H89.7376V30.0161ZM91.4296 33.5681C91.8376 33.5681 92.1536 33.4721 92.3776 33.2801C92.6096 33.0881 92.7256 32.8161 92.7256 32.4641C92.7256 32.1041 92.6056 31.8241 92.3656 31.6241C92.1256 31.4161 91.8016 31.3121 91.3936 31.3121H89.7376V33.5681H91.4296Z" fill="#CE5C1C"/>
<defs>
<linearGradient id="paint0_linear_299_344" x1="10.6761" y1="21.4998" x2="51.553" y2="21.4998" gradientUnits="userSpaceOnUse">
<stop stop-color="#15258F"/>
<stop offset="1" stop-color="#2E4DA3"/>
</linearGradient>
</defs>
</svg>
