<svg width="24" height="25" viewBox="0 0 24 25" fill="none" xmlns="http://www.w3.org/2000/svg">
<mask id="mask0_1_1090" style="mask-type:alpha" maskUnits="userSpaceOnUse" x="0" y="0" width="24" height="25">
<rect y="0.11969" width="24" height="24" fill="#D9D9D9"/>
</mask>
<g mask="url(#mask0_1_1090)">
<path d="M6.3077 21.6197C5.80898 21.6197 5.38302 21.4431 5.02982 21.0899C4.67661 20.7367 4.5 20.3107 4.5 19.812V10.4274C4.5 9.92873 4.67661 9.50277 5.02982 9.14957C5.38302 8.79636 5.80898 8.61975 6.3077 8.61975H7.5V6.61975C7.5 5.37105 7.93782 4.30888 8.81345 3.43325C9.6891 2.55761 10.7513 2.1198 12 2.1198C13.2487 2.1198 14.3108 2.55761 15.1865 3.43325C16.0621 4.30888 16.5 5.37105 16.5 6.61975V8.61975H17.6922C18.191 8.61975 18.6169 8.79636 18.9701 9.14957C19.3233 9.50277 19.5 9.92873 19.5 10.4274V19.812C19.5 20.3107 19.3233 20.7367 18.9701 21.0899C18.6169 21.4431 18.191 21.6197 17.6922 21.6197H6.3077ZM6.3077 20.1197H17.6922C17.782 20.1197 17.8557 20.0909 17.9134 20.0332C17.9711 19.9755 18 19.9017 18 19.812V10.4274C18 10.3377 17.9711 10.264 17.9134 10.2063C17.8557 10.1486 17.782 10.1197 17.6922 10.1197H6.3077C6.21795 10.1197 6.14423 10.1486 6.08652 10.2063C6.02882 10.264 5.99997 10.3377 5.99997 10.4274V19.812C5.99997 19.9017 6.02882 19.9755 6.08652 20.0332C6.14423 20.0909 6.21795 20.1197 6.3077 20.1197ZM12 16.8697C12.4859 16.8697 12.899 16.6995 13.2394 16.3591C13.5798 16.0188 13.75 15.6056 13.75 15.1197C13.75 14.6338 13.5798 14.2207 13.2394 13.8803C12.899 13.5399 12.4859 13.3697 12 13.3697C11.5141 13.3697 11.1009 13.5399 10.7606 13.8803C10.4202 14.2207 10.25 14.6338 10.25 15.1197C10.25 15.6056 10.4202 16.0188 10.7606 16.3591C11.1009 16.6995 11.5141 16.8697 12 16.8697ZM8.99997 8.61975H15V6.61975C15 5.78641 14.7083 5.07808 14.125 4.49475C13.5416 3.91141 12.8333 3.61975 12 3.61975C11.1666 3.61975 10.4583 3.91141 9.87497 4.49475C9.29164 5.07808 8.99997 5.78641 8.99997 6.61975V8.61975Z" fill="#555555"/>
</g>
</svg>
