<svg width="1920" height="1080" viewBox="0 0 1920 1080" fill="none" xmlns="http://www.w3.org/2000/svg">
<g clip-path="url(#clip0_0_4)">
<rect width="1920" height="1080" fill="white"/>
<g opacity="0.1">
<path d="M972.32 632.461C979.908 632.461 987.477 632.315 994.908 632.171C1002.18 632.03 1009.71 631.884 1017.01 631.884C1017.27 631.884 1017.48 631.67 1017.48 631.406C1017.48 631.142 1017.27 630.929 1017.01 630.929C1009.7 630.929 1002.17 631.075 994.89 631.216C981.185 631.482 967.013 631.755 953.128 631.102C950.249 630.967 946.973 630.673 944.529 628.897C943.197 627.929 942.254 626.349 942.069 624.774C941.973 623.957 942.04 622.771 942.907 621.756C943.883 620.615 951.951 618.333 955.117 618.546C955.375 618.566 955.608 618.366 955.626 618.102C955.644 617.839 955.445 617.611 955.182 617.593C951.924 617.366 943.418 619.687 942.181 621.134C941.316 622.144 940.95 623.441 941.12 624.884C941.336 626.715 942.427 628.548 943.967 629.667C946.624 631.598 950.066 631.912 953.083 632.054C959.462 632.357 965.898 632.461 972.32 632.461Z" fill="black"/>
<path d="M1004.67 632.194C1007.29 631.547 1010.21 632.432 1012.07 634.434C1013.92 636.435 1014.64 639.476 1013.88 642.124C1013.63 642.965 1013.25 643.774 1012.66 644.412C1012.03 645.093 1011.21 645.55 1010.35 645.881C1007.95 646.812 1005.14 646.785 1002.9 645.506C1000.66 644.227 999.108 641.616 999.334 638.994C999.565 636.317 1001.1 633.078 1004.67 632.194Z" fill="#ACD4F7"/>
<path d="M1006.93 647.006C1008.13 647.006 1009.35 646.781 1010.52 646.326C1011.59 645.911 1012.41 645.391 1013.01 644.736C1013.6 644.097 1014.04 643.262 1014.33 642.257C1015.15 639.439 1014.39 636.241 1012.42 634.11C1010.44 631.973 1007.36 631.039 1004.56 631.731C1000.73 632.677 999.105 636.082 998.858 638.952C998.622 641.688 1000.15 644.488 1002.66 645.92C1003.93 646.641 1005.41 647.006 1006.93 647.006ZM1006.43 632.46C1008.4 632.46 1010.35 633.285 1011.72 634.759C1013.47 636.65 1014.14 639.489 1013.42 641.993C1013.17 642.855 1012.8 643.56 1012.31 644.09C1011.81 644.636 1011.11 645.076 1010.18 645.437C1007.78 646.368 1005.15 646.239 1003.14 645.092C1000.98 643.861 999.609 641.37 999.81 639.035C1000.03 636.494 1001.45 633.484 1004.79 632.659C1005.33 632.524 1005.88 632.46 1006.43 632.46Z" fill="black"/>
<path d="M953.644 632.194C956.261 631.547 959.185 632.432 961.04 634.434C962.894 636.435 963.609 639.476 962.846 642.124C962.604 642.965 962.217 643.774 961.63 644.412C961.003 645.093 960.177 645.55 959.322 645.881C956.921 646.812 954.114 646.785 951.87 645.506C949.626 644.227 948.078 641.616 948.304 638.994C948.536 636.317 950.072 633.078 953.644 632.194Z" fill="#ACD4F7"/>
<path d="M955.9 647.006C957.097 647.006 958.323 646.781 959.495 646.326C960.565 645.911 961.378 645.391 961.981 644.736C962.569 644.097 963.014 643.263 963.304 642.257C964.116 639.439 963.365 636.241 961.39 634.11C959.41 631.973 956.325 631.04 953.529 631.731C949.704 632.677 948.076 636.082 947.829 638.952C947.593 641.688 949.122 644.488 951.634 645.92C952.899 646.641 954.376 647.006 955.9 647.006ZM955.399 632.46C957.366 632.46 959.325 633.285 960.69 634.759C962.442 636.65 963.108 639.489 962.387 641.993C962.139 642.855 961.766 643.56 961.279 644.09C960.777 644.636 960.08 645.076 959.15 645.437C956.751 646.367 954.118 646.239 952.108 645.092C949.948 643.861 948.58 641.37 948.781 639.035C949 636.494 950.423 633.484 953.759 632.659C954.297 632.524 954.848 632.46 955.399 632.46Z" fill="black"/>
<path d="M933.483 568.821C936.35 586.095 942.209 617.301 957.211 618.426C970.421 619.417 982.355 619.183 998.71 619.183C1005.02 619.183 1011.94 617.827 1016.24 612.422C1018.55 609.535 1019.77 605.727 1020.95 602.024C1024.3 591.44 1027.65 580.857 1029.5 570.107C996.285 570.109 963.623 568.821 933.483 568.821Z" fill="white"/>
<path d="M984.102 619.686C986.292 619.686 988.549 619.68 990.899 619.674C993.398 619.668 995.993 619.661 998.71 619.661C1006.92 619.661 1012.95 617.326 1016.62 612.72C1019.01 609.72 1020.28 605.708 1021.4 602.169C1024.7 591.747 1028.12 580.971 1029.97 570.189C1030 570.05 1029.96 569.908 1029.87 569.8C1029.78 569.693 1029.65 569.63 1029.5 569.63C1012.5 569.63 995.557 569.291 979.175 568.963C963.241 568.644 948.191 568.343 933.483 568.343C933.343 568.343 933.21 568.405 933.119 568.512C933.029 568.619 932.989 568.76 933.012 568.899C934.649 578.764 936.801 590.156 940.348 599.843C944.794 611.985 950.455 618.398 957.176 618.902C966.164 619.578 974.476 619.686 984.102 619.686ZM1028.94 570.586C1027.07 581.117 1023.73 591.67 1020.49 601.881C1019.4 605.341 1018.15 609.264 1015.87 612.126C1012.39 616.493 1006.62 618.707 998.712 618.707C995.994 618.707 993.398 618.714 990.898 618.72C978.242 618.752 968.245 618.776 957.248 617.951C950.935 617.477 945.551 611.275 941.246 599.516C937.792 590.083 935.666 578.991 934.048 569.299C948.568 569.307 963.431 569.604 979.157 569.919C995.36 570.244 1012.11 570.579 1028.94 570.586Z" fill="black"/>
<path d="M933.57 569.963C933.59 569.963 933.609 569.962 933.629 569.959C933.891 569.927 934.077 569.689 934.045 569.427C933.487 564.892 932.648 560.344 931.552 555.911C931.436 555.442 931.26 554.732 930.715 554.295C930.253 553.925 929.666 553.863 929.238 553.818L902.747 551.024C902.484 551 902.25 551.186 902.222 551.449C902.194 551.711 902.385 551.946 902.647 551.974L929.138 554.768C929.556 554.812 929.893 554.86 930.119 555.04C930.39 555.257 930.513 555.684 930.626 556.14C931.713 560.536 932.545 565.046 933.098 569.544C933.127 569.786 933.333 569.963 933.57 569.963Z" fill="black"/>
<path d="M920.056 557.66C922.044 556.832 922.372 554.229 920.632 553.09C919.758 552.518 918.603 552.339 917.499 552.178C914.341 551.718 911.183 551.257 908.025 550.797C906.117 550.519 904.103 550.247 902.28 550.783C900.457 551.319 898.978 552.974 899.639 554.456C900.251 555.829 902.247 556.372 904.003 556.674C909.289 557.583 915.3 559.64 920.056 557.66Z" fill="#ACD4F7"/>
<path d="M915.412 558.972C917.094 558.972 918.72 558.733 920.24 558.101C921.358 557.636 922.119 556.62 922.227 555.45C922.33 554.336 921.831 553.305 920.893 552.691C919.91 552.048 918.611 551.858 917.567 551.706L908.093 550.325C906.322 550.066 904.118 549.746 902.145 550.325C900.837 550.709 899.728 551.59 899.25 552.625C898.934 553.311 898.917 554.011 899.202 554.651C899.922 556.266 902.102 556.832 903.921 557.145C905.015 557.333 906.12 557.567 907.29 557.813C910.006 558.387 912.778 558.972 915.412 558.972ZM919.872 557.219C916.246 558.729 911.793 557.788 907.488 556.879C906.361 556.641 905.196 556.395 904.083 556.203C902.622 555.952 900.616 555.477 900.075 554.261C899.902 553.875 899.917 553.459 900.117 553.024C900.477 552.245 901.378 551.545 902.414 551.241C904.187 550.72 906.188 551.011 907.955 551.269L917.429 552.65C918.429 552.796 919.563 552.961 920.37 553.489C921.007 553.906 921.345 554.606 921.276 555.361C921.2 556.179 920.662 556.89 919.872 557.219Z" fill="black"/>
<path d="M1009.9 617.273C1010.82 606.634 1011.02 595.852 1011.21 585.425C1011.3 580.449 1011.4 575.303 1011.57 570.229L1011.25 570.218C1011.08 575.295 1010.99 580.441 1010.9 585.419C1010.7 595.841 1010.51 606.618 1009.59 617.246L1009.9 617.273Z" fill="black"/>
<path d="M994.81 619.187C995.175 611.045 995.192 602.737 995.208 594.702C995.224 586.67 995.241 578.365 995.606 570.23L995.288 570.216C994.923 578.358 994.906 586.666 994.89 594.701C994.874 602.733 994.857 611.038 994.492 619.173L994.81 619.187Z" fill="black"/>
<path d="M979.248 619.18H979.566C979.566 610.045 979.815 600.739 980.055 591.74C980.244 584.673 980.439 577.365 980.513 570.176L980.195 570.173C980.121 577.359 979.926 584.666 979.737 591.732C979.497 600.733 979.248 610.041 979.248 619.18Z" fill="black"/>
<path d="M963.856 618.204C964.597 602.128 965.073 585.817 965.271 569.725L964.953 569.721C964.755 585.81 964.279 602.117 963.539 618.189L963.856 618.204Z" fill="black"/>
<path d="M948.557 613.937H948.875C948.875 606.656 949.048 599.293 949.215 592.173C949.387 584.848 949.566 577.273 949.558 569.723L949.24 569.724C949.248 577.269 949.07 584.842 948.897 592.166C948.731 599.288 948.557 606.652 948.557 613.937Z" fill="black"/>
<path d="M1025.15 586.723V586.405C998.206 586.405 966.895 586.263 936.212 584.564L936.195 584.882C966.885 586.58 998.201 586.723 1025.15 586.723Z" fill="black"/>
<path d="M1020.67 602.912V602.594C995.205 602.594 967.92 602.397 940.916 600.967L940.899 601.285C967.91 602.715 995.2 602.912 1020.67 602.912Z" fill="black"/>
<g opacity="0.1294">
<path d="M900.244 552.153C900.565 552.061 900.902 552.098 901.21 552.221C901.289 552.254 901.369 552.288 901.438 552.318C902.622 552.75 903.825 553.15 905.057 553.411C907.486 553.829 909.903 554.306 912.316 554.805C913.628 554.943 914.953 554.85 916.269 554.943C917.284 554.983 918.302 554.98 919.309 554.829C919.3 554.83 919.288 554.832 919.277 554.833C919.844 554.755 920.412 554.539 920.977 554.611C922.576 554.772 922.728 557.197 921.177 557.615C918.414 558.204 915.604 557.937 912.812 557.785C910.989 557.589 909.232 557.014 907.423 556.727C905.318 556.394 903.221 556.019 901.203 555.302C901.043 555.262 900.678 555.113 900.439 555.011C900.019 554.902 899.614 554.688 899.398 554.284C898.926 553.493 899.373 552.388 900.244 552.153Z" fill="black"/>
</g>
<g opacity="0.1294">
<path d="M1001.23 641.361C1001.8 641.616 1001.93 641.795 1002.06 641.933C1002.28 642.105 1002.5 642.28 1002.72 642.454C1002.63 642.383 1002.56 642.329 1002.53 642.298C1002.56 642.322 1002.61 642.363 1002.69 642.423C1004.53 643.688 1004.66 643.463 1005.27 643.687C1007.15 643.843 1008.73 643.755 1009.6 643.475C1009.65 643.458 1009.71 643.436 1009.76 643.416C1009.96 643.314 1010.34 643.121 1010.47 643.001C1010.56 642.944 1010.64 642.882 1010.72 642.821C1011.05 642.518 1011.63 641.828 1011.82 641.597C1012.09 641.2 1012.37 640.775 1012.86 640.662C1014.03 640.286 1015.12 641.731 1014.46 642.802C1012.54 645.759 1010.25 646.919 1006.83 647.037C1004.47 647.175 1002.01 646.172 1000.53 644.236C1000.35 644.009 999.969 643.507 1000.36 644.016C1000.21 643.837 1000.07 643.648 999.931 643.462C999.779 643.269 999.655 643.041 999.65 642.789C999.477 641.898 1000.4 641.106 1001.23 641.361Z" fill="black"/>
</g>
<g opacity="0.1294">
<path d="M1002.52 642.299C1002.48 642.264 1002.47 642.26 1002.52 642.299V642.299Z" fill="black"/>
</g>
<g opacity="0.1294">
<path d="M948.488 642.517C948.687 641.709 949.659 641.313 950.352 641.739C950.962 642.206 950.611 642.056 951.014 642.402C952.449 643.248 952.478 643.318 954.097 643.677C954.386 643.712 954.676 643.744 954.967 643.76C955.221 643.809 956.187 643.748 956.454 643.736C956.47 643.733 956.486 643.731 956.501 643.729C957.901 643.549 959.262 642.958 959.66 642.76C960.544 642.47 961.378 641.643 962.343 641.858C963.487 642.141 963.709 643.864 962.672 644.441C961.339 645.066 960.025 645.786 958.602 646.174C956.416 646.713 954.037 646.714 951.931 645.845C950.686 645.269 948.175 644.247 948.488 642.517Z" fill="black"/>
</g>
<g opacity="0.1294">
<path d="M947.9 610.942C948.522 610.931 948.946 611.47 949.455 611.759C950.676 612.497 950.749 612.548 951.557 612.833C954.012 613.641 956.439 614.59 959.006 614.968C960.418 615.179 966.057 615.265 968.931 615.249C974.647 615.337 980.364 615.471 986.077 615.138C989.328 614.934 992.587 615.158 995.836 614.869C997.93 614.75 1001.73 614.57 1002.36 614.416C1004.46 614.023 1006.56 613.618 1008.64 613.162C1009.83 612.815 1011 612.408 1012.14 611.941C1012.3 611.869 1012.3 611.873 1012.23 611.903C1013.09 611.594 1013.88 610.77 1014.84 611.041C1016.14 611.364 1016.4 613.328 1015.21 613.986C1014.41 614.44 1013.58 614.841 1012.74 615.2C1012.68 615.563 1012.48 615.903 1012.11 616.117C1008.17 618.56 1003.43 618.999 998.931 619.268C996.079 619.579 993.217 619.636 990.359 619.386C988.753 619.29 987.08 619.533 985.507 619.213C985.145 619.083 984.926 618.776 984.841 618.429C983.408 618.517 981.975 618.596 980.538 618.596C977.485 618.636 974.438 618.453 971.391 618.294C968.686 618.269 965.981 618.328 963.277 618.207C962.941 618.195 962.604 618.183 962.268 618.17C962.216 618.549 962.016 618.909 961.63 619.136C961.284 619.361 960.876 619.331 960.485 619.297C959.635 619.256 958.792 619.135 957.958 618.962C955.745 618.463 953.474 617.877 951.574 616.557C951.119 616.179 950.508 615.892 950.361 615.259C950.352 615.23 950.349 615.201 950.342 615.171C949.081 614.657 947.876 614.03 946.892 613.05C946.22 612.255 946.876 610.912 947.9 610.942Z" fill="black"/>
</g>
<path d="M452.559 249.544C449.567 248.542 446.574 247.539 443.581 246.535C441.207 245.739 438.794 244.936 436.264 244.838C433.735 244.739 431.029 245.443 429.218 247.265C427.472 249.022 426.784 251.601 426.927 254.01C427.068 256.418 427.952 258.697 428.969 260.86C430.489 264.094 432.862 267.518 436.497 267.785C438.852 267.957 441.107 266.727 443.193 265.538C446.483 263.661 449.773 261.786 453.063 259.909C453.747 259.519 454.443 259.118 454.972 258.535C456.004 257.395 456.211 255.71 455.852 254.263C455.492 252.815 455.336 250.473 452.559 249.544Z" fill="#ACD4F7"/>
<path d="M441.555 267.158C440.006 267.93 438.271 268.557 436.449 268.423C433.265 268.189 430.553 265.736 428.389 261.132C427.438 259.107 426.443 256.682 426.288 254.048C426.119 251.203 427.023 248.566 428.766 246.814C430.534 245.036 433.277 244.082 436.291 244.199C438.931 244.301 441.4 245.129 443.787 245.929L452.765 248.938C455.557 249.873 456.038 252.102 456.356 253.578C456.396 253.764 456.434 253.943 456.475 254.11C456.923 255.911 456.529 257.772 455.448 258.965C454.846 259.631 454.069 260.075 453.382 260.466L443.512 266.095C442.902 266.44 442.247 266.814 441.555 267.158ZM431.504 246.412C430.808 246.759 430.189 247.196 429.673 247.716C428.188 249.209 427.42 251.489 427.567 253.971C427.71 256.388 428.649 258.672 429.55 260.585C431.502 264.74 433.857 266.946 436.545 267.143C438.622 267.296 440.642 266.254 442.877 264.979L452.747 259.35C453.378 258.989 454.032 258.617 454.497 258.103C455.451 257.048 455.501 255.506 455.231 254.415C455.185 254.237 455.145 254.044 455.102 253.845C454.8 252.443 454.458 250.854 452.357 250.15L443.379 247.141C441.078 246.368 438.698 245.571 436.241 245.477C434.489 245.41 432.851 245.742 431.504 246.412Z" fill="black"/>
<path d="M457.012 247.366C458.117 244.36 459.222 241.355 460.326 238.348C461.202 235.963 462.097 233.542 463.606 231.47C465.113 229.399 467.344 227.688 469.873 227.388C472.311 227.099 474.715 228.167 476.471 229.787C478.226 231.407 479.417 233.535 480.436 235.697C481.961 238.929 483.096 242.957 481.026 246.013C479.685 247.994 477.331 249.015 475.115 249.93C471.62 251.371 468.125 252.812 464.631 254.252C463.904 254.551 463.161 254.855 462.384 254.909C460.865 255.016 459.447 254.127 458.564 252.935C457.68 251.744 455.987 250.157 457.012 247.366Z" fill="#ACD4F7"/>
<path d="M477.666 249.505C476.88 249.896 476.09 250.222 475.36 250.523L464.875 254.845C464.145 255.146 463.317 255.488 462.43 255.549C460.832 255.662 459.152 254.806 458.05 253.318C457.949 253.181 457.836 253.038 457.719 252.89C456.789 251.716 455.385 249.941 456.412 247.147L459.726 238.128C460.606 235.733 461.516 233.254 463.089 231.095C464.884 228.629 467.329 227.047 469.798 226.754C472.237 226.466 474.828 227.4 476.906 229.318C478.826 231.091 480.061 233.4 481.016 235.425C483.183 240.02 483.365 243.705 481.556 246.374C480.58 247.815 479.133 248.774 477.666 249.505ZM467.703 228.716C466.385 229.373 465.144 230.448 464.126 231.848C462.658 233.864 461.779 236.256 460.928 238.57L457.614 247.588C456.836 249.708 457.839 250.976 458.722 252.095C458.849 252.255 458.97 252.408 459.079 252.554C459.741 253.447 460.946 254.368 462.34 254.27C463.021 254.222 463.715 253.936 464.387 253.66L474.871 249.338C477.246 248.359 479.308 247.407 480.495 245.655C482.032 243.387 481.817 240.129 479.856 235.971C478.955 234.058 477.795 231.882 476.036 230.258C474.233 228.595 472.014 227.78 469.949 228.025C469.192 228.115 468.436 228.351 467.703 228.716Z" fill="black"/>
<path d="M495.55 245.44C504.393 267.837 512.486 288.635 521.329 311.031C500.519 321.195 478.774 331.638 457.342 342.731C445.637 320.652 436.77 303.697 424.341 280.252C449.83 267.793 474.208 255.875 495.55 245.44Z" fill="white"/>
<path d="M521.615 311.605L521.61 311.607C517.873 313.433 514.106 315.267 510.315 317.111C493.059 325.514 475.212 334.203 457.636 343.3C457.634 343.302 457.63 343.303 457.627 343.305C457.317 343.459 456.939 343.339 456.776 343.032C451.01 332.156 446.042 322.728 440.78 312.747C435.52 302.768 430.082 292.45 423.775 280.554C423.694 280.401 423.678 280.221 423.73 280.056C423.784 279.893 423.901 279.757 424.054 279.68L424.058 279.678L495.265 244.865C495.425 244.787 495.611 244.778 495.779 244.843C495.944 244.908 496.077 245.039 496.142 245.206C500.573 256.426 504.885 267.424 509.055 278.061C513.21 288.66 517.508 299.619 521.922 310.797C522.048 311.106 521.913 311.457 521.615 311.605ZM477.993 331.543C488.671 326.225 499.32 321.041 509.755 315.959C513.364 314.202 516.954 312.453 520.515 310.715C516.177 299.727 511.953 288.952 507.865 278.526C503.775 268.093 499.548 257.314 495.207 246.32L425.217 280.537C431.393 292.189 436.739 302.332 441.913 312.149C447.083 321.957 451.971 331.23 457.61 341.87C464.384 338.371 471.195 334.929 477.993 331.543Z" fill="black"/>
<path d="M497.593 238.477C499.32 242.144 500.983 246.193 502.122 249.951C476.428 263.082 449.245 275.782 423.125 288.572C420.582 285.441 418.891 281.655 417.008 277.921C441.9 265.75 470.218 251.859 497.593 238.477Z" fill="white"/>
<path d="M489.807 256.877C476.833 263.339 463.563 269.731 450.622 275.965C441.658 280.283 432.387 284.749 423.408 289.146C423.139 289.277 422.817 289.206 422.629 288.975C420.441 286.28 418.849 283.068 417.311 279.963C417.022 279.379 416.732 278.793 416.437 278.209C416.36 278.055 416.348 277.878 416.402 277.716C416.456 277.555 416.572 277.422 416.723 277.347L416.727 277.345C428.862 271.412 441.81 265.071 455.067 258.578C469.004 251.752 483.282 244.759 497.311 237.901C497.466 237.825 497.643 237.815 497.805 237.872C497.967 237.929 498.1 238.048 498.173 238.203C500.117 242.333 501.695 246.332 502.735 249.764C502.825 250.06 502.689 250.379 502.413 250.521C498.259 252.644 494.048 254.766 489.807 256.877ZM423.307 287.77C432.146 283.444 441.253 279.056 450.066 274.81C467.068 266.622 484.642 258.155 501.352 249.624C500.382 246.533 498.988 242.999 497.289 239.337C483.448 246.105 469.374 252.997 455.631 259.728C442.586 266.117 429.839 272.36 417.871 278.211C418.068 278.606 418.264 279 418.459 279.394C419.955 282.414 421.373 285.277 423.307 287.77Z" fill="black"/>
<path d="M463.504 253.65C466.715 259.846 469.096 266.442 471.846 272.863C473.583 276.915 475.467 280.9 477.351 284.884C483.651 298.205 489.953 311.528 496.252 324.85C493.127 327.051 489.396 328.77 485.566 330.205C474.979 307.016 463.782 283.095 452.666 258.715C455.694 256.845 458.914 255.283 463.504 253.65Z" fill="#ACD4F7"/>
<path d="M491.719 328.259C489.954 329.138 487.986 329.983 485.794 330.805C485.479 330.923 485.126 330.778 484.986 330.472C479.9 319.333 474.791 308.279 469.381 296.576C463.717 284.323 457.86 271.651 452.084 258.983C451.95 258.69 452.056 258.342 452.331 258.172C455.604 256.149 458.881 254.616 463.289 253.048C463.591 252.941 463.925 253.073 464.072 253.357C466.311 257.674 468.174 262.248 469.974 266.67C470.771 268.623 471.592 270.644 472.436 272.611C474.167 276.653 476.079 280.697 477.93 284.609L496.833 324.577C496.965 324.859 496.877 325.197 496.622 325.375C495.191 326.381 493.565 327.339 491.719 328.259ZM485.903 329.393C489.79 327.902 492.92 326.34 495.442 324.632L476.772 285.157C474.916 281.233 472.999 277.178 471.258 273.114C470.411 271.136 469.585 269.111 468.787 267.152C467.067 262.926 465.289 258.563 463.191 254.443C459.35 255.838 456.391 257.215 453.486 258.966C459.185 271.459 464.959 283.952 470.545 296.037C475.866 307.551 480.897 318.435 485.903 329.393Z" fill="black"/>
<path d="M453.874 259.179C451.951 258.913 450.219 257.695 449.35 255.995C448.481 254.297 448.495 252.158 449.388 250.407C450.124 248.964 451.391 247.828 452.787 246.984C454.929 245.691 457.656 245.039 459.867 246.045C460.865 246.498 461.686 247.257 462.373 248.098C463.678 249.698 464.552 251.961 463.618 253.874C462.884 255.374 461.266 256.224 459.759 256.968C458.113 257.78 456.475 259.538 453.874 259.179Z" fill="#ACD4F7"/>
<path d="M457.292 259.171C456.312 259.659 455.167 260.004 453.787 259.813C451.661 259.519 449.742 258.168 448.78 256.287C447.82 254.41 447.835 252.045 448.818 250.117C449.533 248.714 450.791 247.442 452.457 246.437C455.098 244.842 457.969 244.478 460.133 245.463C461.114 245.909 462.01 246.64 462.87 247.695C464.224 249.356 465.283 251.925 464.193 254.157C463.396 255.789 461.778 256.692 460.042 257.543C459.667 257.737 459.245 257.997 458.815 258.273C458.352 258.571 457.849 258.893 457.292 259.171ZM453.963 258.545C455.658 258.778 456.91 257.974 458.123 257.195C458.584 256.899 459.021 256.616 459.476 256.394C461.009 255.642 462.422 254.862 463.043 253.593C463.868 251.906 462.983 249.858 461.879 248.505C461.145 247.606 460.402 246.993 459.605 246.628C457.825 245.818 455.401 246.156 453.122 247.533C451.66 248.415 450.567 249.509 449.961 250.697C449.162 252.267 449.146 254.184 449.922 255.703C450.696 257.218 452.244 258.307 453.963 258.545Z" fill="black"/>
<path d="M437.413 285.471C435.561 286.393 433.68 287.267 431.791 288.082C431.682 288.129 431.557 288.079 431.51 287.97C431.464 287.861 431.508 287.736 431.622 287.69C434.492 286.451 437.344 285.075 440.099 283.602C440.213 283.547 440.333 283.587 440.388 283.689C440.445 283.793 440.404 283.923 440.301 283.978C439.348 284.489 438.385 284.987 437.413 285.471Z" fill="black"/>
<path d="M433.702 290.892C433.598 290.944 433.472 290.904 433.418 290.801C433.363 290.697 433.403 290.567 433.508 290.512L437.198 288.566C437.198 288.566 437.201 288.565 437.203 288.564C437.306 288.513 437.433 288.553 437.487 288.655C437.542 288.76 437.501 288.889 437.398 288.943L433.708 290.889C433.704 290.891 433.702 290.892 433.702 290.892Z" fill="black"/>
<path d="M517.101 309.943C517.098 309.944 517.094 309.946 517.091 309.948L510.684 312.682C510.575 312.728 510.45 312.677 510.404 312.57C510.357 312.461 510.407 312.33 510.516 312.289L516.922 309.555C517.031 309.509 517.156 309.559 517.202 309.668C517.247 309.771 517.202 309.892 517.101 309.943Z" fill="black"/>
<path d="M461.923 247.342C461.853 247.378 461.766 247.371 461.699 247.321C461.604 247.249 461.587 247.116 461.659 247.022C463.738 244.304 466.073 241.75 468.597 239.431C468.682 239.351 468.819 239.356 468.899 239.444C468.979 239.531 468.974 239.666 468.886 239.746C466.379 242.049 464.062 244.583 461.998 247.281C461.976 247.307 461.951 247.329 461.923 247.342Z" fill="black"/>
<path d="M470.383 247.206C470.37 247.212 470.356 247.217 470.342 247.222C467.991 247.84 465.687 248.698 463.495 249.773C463.389 249.824 463.261 249.782 463.21 249.675C463.158 249.569 463.202 249.442 463.306 249.39L463.307 249.39C465.525 248.302 467.856 247.433 470.234 246.809C470.348 246.78 470.464 246.847 470.494 246.961C470.52 247.059 470.472 247.161 470.383 247.206Z" fill="black"/>
<path d="M448.936 253.447C448.904 253.463 448.867 253.471 448.828 253.469C445.21 253.251 441.563 253.542 437.991 254.338C437.875 254.365 437.761 254.291 437.736 254.176C437.711 254.061 437.783 253.948 437.899 253.921C441.509 253.118 445.195 252.822 448.854 253.042C448.972 253.05 449.062 253.15 449.055 253.267C449.05 253.348 449.002 253.414 448.936 253.447Z" fill="black"/>
<path d="M449.842 256.354C449.83 256.36 449.817 256.365 449.804 256.369C447.695 256.965 445.639 257.786 443.691 258.814C443.605 258.858 443.457 258.829 443.402 258.725C443.347 258.62 443.388 258.491 443.491 258.436C445.464 257.394 447.548 256.561 449.686 255.958C449.799 255.926 449.918 255.993 449.95 256.105C449.98 256.206 449.932 256.309 449.842 256.354Z" fill="black"/>
<g opacity="0.1294">
<path d="M464.255 249.709C463.572 248.876 462.056 249.393 461.98 250.486C461.989 250.609 461.969 250.731 461.944 250.851C461.933 250.891 461.92 250.935 461.899 251.004C461.445 251.964 461.484 252.102 460.052 253.126C460.024 253.146 459.996 253.166 459.968 253.184C459.961 253.189 459.958 253.191 459.949 253.195C458.803 253.755 457.726 254.431 456.608 255.041C455.136 255.684 455.29 255.694 453.506 255.953C453.456 255.954 453.404 255.954 453.344 255.954C452.41 255.911 452.429 255.829 452.212 255.782C451.887 255.688 451.562 255.526 451.212 255.591C449.523 255.646 449.13 258.088 450.712 258.593C452.927 259.434 455.45 258.987 457.58 257.926C459.123 257.129 459.304 256.802 460.236 256.34C461.252 255.837 462.206 255.196 462.919 254.304C463.725 253.273 463.494 253.435 463.935 252.604C464.18 252.06 464.375 251.496 464.49 250.916C464.509 250.837 464.532 250.737 464.55 250.644C464.587 250.307 464.476 249.962 464.255 249.709Z" fill="black"/>
</g>
<g opacity="0.1294">
<path d="M457.266 272.565C457.186 272.597 457.106 272.626 457.028 272.658C453.598 274.477 450.002 275.966 446.47 277.577C442.501 279.412 438.615 281.431 434.641 283.257C432.999 284.02 431.329 284.714 429.738 285.585C429.114 285.92 428.308 286.133 428.064 286.873C427.587 288.043 428.916 289.228 430.051 288.627C433.382 286.883 436.821 285.369 440.185 283.693C443.716 281.887 447.32 280.25 450.922 278.607C452.546 277.899 454.055 276.96 455.645 276.185C456.465 275.891 457.204 275.413 458.014 275.101C458.192 275.044 458.366 274.98 458.531 274.893C458.611 274.85 458.689 274.799 458.764 274.742C458.744 274.756 458.722 274.768 458.697 274.784C460.211 273.767 458.801 271.577 457.266 272.565Z" fill="black"/>
</g>
<g opacity="0.1294">
<path d="M458.802 274.719C458.79 274.728 458.778 274.734 458.766 274.743C458.828 274.705 458.864 274.684 458.802 274.719Z" fill="black"/>
</g>
<g opacity="0.1294">
<path d="M497.998 252.489C496.926 252.508 495.914 253.506 494.953 253.967C492.909 254.968 492.259 255.495 490.862 256.333C486.556 258.507 482.306 260.808 477.814 262.576C475.617 263.407 473.436 264.288 471.355 265.398C470.501 265.982 469.323 266.339 468.886 267.335C468.289 268.908 470.227 270.199 471.512 269.071C475.597 266.322 483.693 262.979 489.45 260.057C492.056 258.663 496.277 256.792 497.589 255.697C497.613 255.682 497.635 255.666 497.661 255.65C498.055 255.345 498.601 255.244 498.914 254.846C499.752 254.021 499.141 252.527 497.998 252.489Z" fill="black"/>
</g>
<path d="M61.8664 352.896C50.5399 376.814 39.2129 400.731 27.8864 424.649C6.70037 414.238 -13.9616 402.532 -34.1467 390.053C-19.3583 367.791 -4.33245 345.671 11.3234 323.947C27.8753 333.13 44.4277 342.312 61.8664 352.896Z" fill="white"/>
<path d="M-12.3397 403.656C-19.5424 399.498 -26.8786 395.109 -34.3987 390.46C-34.5084 390.392 -34.5861 390.282 -34.6148 390.156C-34.6421 390.029 -34.6176 389.897 -34.5462 389.789C-17.1011 363.527 -2.64985 342.517 10.9338 323.667C11.0751 323.471 11.3412 323.412 11.5528 323.529C27.8319 332.561 44.6662 341.899 62.1127 352.487C62.321 352.614 62.4006 352.878 62.2959 353.1L28.3159 424.853C28.2605 424.969 28.1621 425.057 28.0417 425.1C27.9205 425.142 27.7887 425.134 27.6734 425.078C14.6089 418.656 1.37819 411.576 -12.3397 403.656ZM-33.4767 389.907C-11.9791 403.18 8.0285 414.34 27.6615 424.006L61.2505 353.08C44.0834 342.675 27.5036 333.47 11.462 324.571C-1.97129 343.222 -16.2674 364.007 -33.4767 389.907Z" fill="black"/>
<path d="M24.8886 340.119C24.9827 338.932 24.2993 337.718 23.2388 337.188C22.1783 336.659 20.8078 336.847 19.9294 337.643C19.3869 338.134 19.0302 338.86 19.0838 339.593C19.1315 340.255 19.4998 340.859 19.9724 341.322C20.6376 341.974 21.5603 342.396 22.4843 342.317C23.4084 342.239 24.7619 341.709 24.8886 340.119Z" fill="white"/>
<path d="M20.4725 342.298C20.1746 342.126 19.8935 341.913 19.6383 341.663C19.0248 341.061 18.6592 340.339 18.6078 339.628C18.5471 338.787 18.9218 337.912 19.6092 337.289C20.634 336.36 22.2142 336.143 23.4522 336.761C24.6845 337.376 25.4742 338.775 25.3643 340.157C25.2226 341.936 23.7469 342.688 22.5252 342.792C21.8408 342.85 21.1194 342.671 20.4725 342.298ZM23.1431 337.678C23.1042 337.656 23.065 337.635 23.0251 337.615C22.1446 337.176 20.9782 337.336 20.2495 337.996C19.7848 338.417 19.5199 339.016 19.5591 339.558C19.5935 340.036 19.8593 340.542 20.3061 340.98C20.9188 341.581 21.7176 341.901 22.4435 341.84C22.8758 341.803 24.2936 341.568 24.412 340.08C24.4874 339.138 23.9589 338.149 23.1431 337.678Z" fill="black"/>
<path d="M45.3605 352.015C45.4546 350.828 44.7721 349.614 43.7107 349.084C42.6502 348.555 41.2796 348.743 40.4013 349.538C39.8588 350.03 39.502 350.756 39.5557 351.489C39.6034 352.15 39.9717 352.754 40.4448 353.217C41.11 353.869 42.0326 354.291 42.9567 354.212C43.8807 354.134 45.2346 353.605 45.3605 352.015Z" fill="white"/>
<path d="M40.9453 354.194C40.6474 354.022 40.3649 353.809 40.1106 353.56C39.497 352.958 39.1314 352.236 39.08 351.525C39.0194 350.684 39.394 349.809 40.0815 349.186C41.1063 348.257 42.6873 348.041 43.9253 348.658C45.158 349.275 45.9473 350.672 45.8375 352.054C45.6957 353.834 44.2196 354.587 42.9978 354.691C42.3135 354.746 41.5913 354.567 40.9453 354.194ZM43.6159 349.574C43.5769 349.552 43.5378 349.532 43.4978 349.511C42.6183 349.072 41.451 349.232 40.7223 349.892C40.257 350.314 39.9926 350.912 40.0326 351.455C40.0675 351.934 40.332 352.438 40.7788 352.876C41.3915 353.477 42.1898 353.798 42.9157 353.737C43.348 353.7 44.7658 353.465 44.8847 351.977C44.9597 351.033 44.4317 350.045 43.6159 349.574Z" fill="black"/>
<path d="M42.6095 351.927C42.6026 351.923 42.5957 351.919 42.5884 351.914C42.3671 351.771 42.3038 351.475 42.4466 351.254C46.2648 345.354 50.2133 339.253 51.9234 332.319C51.955 332.189 51.9888 332.058 52.0226 331.928C52.5759 329.785 53.1484 327.57 46.3051 323.209C42.975 321.089 38.0353 319.524 34.1648 321.504C31.6314 322.8 30.0821 325.586 28.8385 327.824L22.5375 339.155C22.409 339.386 22.1186 339.469 21.8879 339.34C21.6527 339.2 21.5744 338.921 21.7029 338.691L28.0039 327.359C29.3117 325.008 30.9385 322.082 33.7298 320.654C37.3221 318.816 42.2116 319.469 46.8176 322.403C54.2461 327.136 53.5566 329.809 52.9469 332.167C52.9137 332.294 52.8805 332.422 52.85 332.548C51.1019 339.638 47.1094 345.807 43.2483 351.773C43.1104 351.988 42.8286 352.054 42.6095 351.927Z" fill="black"/>
<path d="M-28.5368 390.079C-28.5403 390.077 -28.5429 390.075 -28.5455 390.074C-28.6187 390.024 -28.6378 389.926 -28.59 389.853L1.37502 344.998C1.42421 344.925 1.52723 344.91 1.59588 344.953C1.66909 345.002 1.68824 345.101 1.64041 345.174L-28.3246 390.029C-28.3718 390.099 -28.4649 390.12 -28.5368 390.079Z" fill="black"/>
<g opacity="0.1294">
<path d="M28.3057 422.73C27.8001 422.04 26.6704 421.657 25.9399 421.19C14.784 415.269 3.37627 409.78 -7.37356 403.123C-11.0079 400.944 -14.7929 399.027 -18.4128 396.823C-21.4449 394.949 -24.3658 392.908 -27.4993 391.199C-28.6978 390.491 -29.8672 389.739 -31.0463 388.999C-31.5205 388.702 -32.0113 388.288 -32.6044 388.474C-33.6108 388.715 -33.8253 390.198 -32.8972 390.695C-30.268 392.415 -27.5279 393.953 -24.8067 395.522C-22.941 396.676 -21.1527 397.955 -19.252 399.057C-16.7644 400.584 -14.1573 401.897 -11.6143 403.328C-7.24125 405.86 -2.86788 408.393 1.49115 410.949C3.46002 412.108 5.51884 413.098 7.52647 414.187C9.55263 415.378 11.5928 416.536 13.7085 417.564C16.6981 419.005 20.6335 421.177 23.3999 422.456C24.226 422.867 25.0413 423.3 25.8128 423.808C26.2408 424.045 26.632 424.431 27.1296 424.485C28.0564 424.66 28.7971 423.531 28.3057 422.73Z" fill="black"/>
</g>
<path d="M713.223 603.046C695.666 601.497 677.957 601.664 660.431 603.543C658.033 603.8 655.354 604.294 654.344 606.484C653.109 609.158 655.42 612.224 658.047 613.554C662.076 615.593 666.768 615.73 671.283 615.749C684.778 615.808 698.339 615.186 711.569 612.521C712.081 612.417 712.652 612.271 712.918 611.821C713.103 611.508 713.092 611.121 713.076 610.758C712.962 608.27 712.848 605.782 713.223 603.046Z" fill="white"/>
<path d="M672.917 616.137C672.376 616.137 671.832 616.136 671.282 616.134C666.505 616.113 661.884 615.926 657.876 613.897C655 612.443 652.7 609.133 653.997 606.324C655.053 604.036 657.695 603.452 660.391 603.163C677.915 601.284 695.702 601.116 713.258 602.665C713.362 602.675 713.458 602.726 713.523 602.808C713.589 602.89 713.618 602.995 713.604 603.1C713.234 605.802 713.348 608.313 713.459 610.743C713.476 611.103 713.499 611.597 713.249 612.018C712.875 612.651 712.075 612.813 711.646 612.899C700.56 615.129 688.558 616.137 672.917 616.137ZM689.382 602.382C679.72 602.382 670.057 602.896 660.472 603.924C658 604.19 655.589 604.703 654.692 606.645C653.587 609.039 655.663 611.918 658.221 613.213C662.081 615.166 666.603 615.346 671.284 615.366C687.683 615.442 700.078 614.445 711.493 612.145C711.926 612.057 712.403 611.939 712.588 611.626C712.712 611.418 712.709 611.13 712.693 610.775C712.586 608.431 712.475 606.01 712.792 603.393C705.019 602.719 697.201 602.382 689.382 602.382Z" fill="black"/>
<path d="M701.642 581.136C701.2 601.203 700.947 620.263 702.268 640.299C701.037 640.09 699.136 639.876 697.883 639.876C687.053 639.876 679.771 639.26 670.167 639.977C668.572 620.252 668.342 600.44 670.223 580.384C680.461 581.105 691.471 581.968 701.642 581.136Z" fill="white"/>
<path d="M702.268 640.682C702.247 640.682 702.226 640.68 702.204 640.676C700.983 640.469 699.106 640.259 697.883 640.259C694.268 640.259 691.087 640.192 688.009 640.126C681.876 639.995 676.579 639.883 670.196 640.359C669.983 640.375 669.803 640.218 669.785 640.008C668.059 618.673 668.077 599.157 669.842 580.348C669.861 580.141 670.04 579.986 670.25 580.001L671.808 580.111C681.726 580.813 691.982 581.54 701.612 580.753C701.719 580.746 701.827 580.781 701.905 580.856C701.984 580.931 702.028 581.035 702.026 581.143C701.593 600.75 701.316 620.026 702.65 640.273C702.658 640.39 702.612 640.504 702.524 640.583C702.454 640.648 702.362 640.682 702.268 640.682ZM680.1 639.246C682.69 639.246 685.274 639.301 688.026 639.359C691.099 639.424 694.277 639.492 697.884 639.492C698.998 639.492 700.627 639.659 701.855 639.844C700.563 619.887 700.827 600.875 701.25 581.551C691.688 582.288 681.556 581.57 671.754 580.876L670.571 580.793C668.856 599.331 668.839 618.565 670.519 639.566C673.917 639.324 677.014 639.246 680.1 639.246Z" fill="black"/>
<path d="M715.086 608.226C696.991 608.704 678.893 609.033 660.793 609.209C658.36 609.233 653.155 610.603 654.344 606.484C653.47 608.767 653.282 611.904 653.427 614.344C653.886 622.093 654.004 629.863 653.782 637.623C653.724 639.681 653.648 641.792 654.312 643.741C654.976 645.69 656.561 647.472 658.535 647.913C677.575 649.161 695.629 648.384 714.557 648.271C713.294 634.517 714.675 621.964 715.086 608.226Z" fill="white"/>
<path d="M682.728 649C674.727 649 666.759 648.838 658.51 648.297C658.49 648.295 658.47 648.293 658.451 648.288C656.481 647.846 654.714 646.111 653.95 643.866C653.278 641.89 653.338 639.778 653.397 637.735L653.4 637.612C653.621 629.895 653.501 622.074 653.046 614.367C652.867 611.353 653.219 608.354 653.986 606.348C654.06 606.156 654.271 606.056 654.466 606.121C654.661 606.186 654.77 606.393 654.713 606.591C654.471 607.43 654.507 608.047 654.82 608.427C655.518 609.271 657.565 609.083 659.209 608.934C659.786 608.881 660.331 608.831 660.789 608.826C678.804 608.651 697.068 608.319 715.076 607.843C715.182 607.836 715.283 607.881 715.358 607.955C715.432 608.03 715.473 608.132 715.469 608.237C715.356 612.031 715.167 615.774 714.984 619.394C714.492 629.118 714.028 638.304 714.939 648.237C714.949 648.344 714.914 648.45 714.842 648.53C714.769 648.609 714.667 648.655 714.56 648.656C709.842 648.684 705.113 648.754 700.539 648.822C694.503 648.913 688.606 649 682.728 649ZM658.59 647.534C672.856 648.468 686.298 648.267 700.528 648.056C704.969 647.99 709.556 647.922 714.138 647.892C713.271 638.064 713.731 628.972 714.217 619.355C714.394 615.868 714.576 612.267 714.69 608.619C696.81 609.09 678.68 609.417 660.797 609.592C660.37 609.596 659.839 609.645 659.278 609.697C657.359 609.872 655.185 610.071 654.229 608.915C654.189 608.867 654.152 608.817 654.118 608.765C653.807 610.411 653.694 612.358 653.811 614.321C654.268 622.051 654.388 629.894 654.167 637.634L654.163 637.757C654.106 639.732 654.047 641.774 654.676 643.618C655.352 645.606 656.887 647.139 658.59 647.534Z" fill="black"/>
<path d="M715.146 621.685C709.44 621.429 705.142 621.529 699.449 621.986C697.576 622.136 695.656 622.338 693.974 623.178C692.293 624.019 690.875 625.636 690.8 627.514C690.715 629.638 692.369 631.52 694.313 632.379C696.257 633.237 698.449 633.287 700.574 633.324C704.905 633.399 709.238 633.474 713.569 633.548C714.407 633.563 715.292 633.566 716.019 633.15C717.408 632.356 717.613 630.473 717.657 628.874C717.696 627.451 717.735 626.027 717.774 624.603C717.791 623.976 717.547 623.074 717.336 622.484C717.126 621.893 715.472 621.618 715.146 621.685Z" fill="white"/>
<path d="M713.998 633.936C713.849 633.936 713.702 633.933 713.563 633.931L700.567 633.707C698.523 633.672 696.205 633.632 694.158 632.729C692.225 631.876 690.319 629.928 690.417 627.499C690.491 625.657 691.82 623.826 693.803 622.836C695.524 621.976 697.441 621.762 699.418 621.604C705.287 621.134 709.549 621.052 715.134 621.302C715.623 621.262 717.398 621.515 717.698 622.356C717.933 623.012 718.177 623.95 718.158 624.614L718.041 628.884C717.992 630.669 717.736 632.611 716.21 633.483C715.516 633.879 714.711 633.936 713.998 633.936ZM709.401 621.929C706.24 621.929 703.181 622.071 699.479 622.368C697.58 622.52 695.744 622.723 694.145 623.521C692.408 624.389 691.245 625.962 691.182 627.529C691.099 629.588 692.827 631.304 694.467 632.028C696.372 632.868 698.608 632.907 700.58 632.941L713.576 633.164C714.324 633.178 715.171 633.193 715.829 632.817C717.025 632.133 717.23 630.434 717.274 628.863L717.391 624.592C717.406 624.033 717.177 623.176 716.976 622.612C716.87 622.315 715.557 622.008 715.22 622.061C715.195 622.065 715.153 622.07 715.127 622.068C713.089 621.977 711.228 621.929 709.401 621.929Z" fill="black"/>
<path d="M698.926 625.477C698.365 625.295 697.726 625.468 697.267 625.837C696.807 626.206 696.51 626.749 696.346 627.315C696.258 627.617 696.205 627.938 696.265 628.246C696.313 628.493 696.432 628.723 696.587 628.922C697.386 629.95 699.168 629.949 699.986 628.936C700.805 627.923 700.538 625.998 698.926 625.477Z" fill="#ACD4F7"/>
<path d="M698.285 630.079C698.276 630.079 698.267 630.079 698.258 630.079C697.452 630.071 696.733 629.735 696.285 629.158C696.078 628.892 695.945 628.611 695.889 628.321C695.825 627.992 695.854 627.638 695.978 627.209C696.184 626.503 696.546 625.925 697.027 625.539C697.618 625.066 698.391 624.903 699.044 625.113C699.858 625.376 700.464 625.994 700.705 626.807C700.953 627.64 700.792 628.549 700.285 629.177C699.828 629.742 699.082 630.079 698.285 630.079ZM698.457 625.789C698.133 625.789 697.787 625.911 697.507 626.137C697.055 626.499 696.827 627.036 696.714 627.423C696.624 627.731 696.601 627.97 696.641 628.174C696.674 628.342 696.76 628.521 696.89 628.688C697.189 629.073 697.703 629.307 698.265 629.311C698.837 629.327 699.372 629.087 699.688 628.695C700.034 628.266 700.145 627.61 699.971 627.024C699.871 626.69 699.588 626.093 698.808 625.841C698.697 625.806 698.579 625.789 698.457 625.789Z" fill="black"/>
<path d="M658.001 644.759C657.961 644.759 657.923 644.742 657.898 644.707C657.135 643.669 657.021 642.352 656.964 640.979C656.878 638.909 656.846 636.81 656.868 634.739C656.869 634.67 656.926 634.613 656.996 634.613H656.997C657.068 634.614 657.124 634.672 657.124 634.743C657.102 636.809 657.134 638.903 657.22 640.969C657.275 642.3 657.384 643.575 658.104 644.556C658.146 644.613 658.134 644.693 658.077 644.735C658.054 644.751 658.027 644.759 658.001 644.759Z" fill="black"/>
<path d="M661.257 645.336C661.212 645.336 661.168 645.312 661.145 645.269C660.487 644.046 660.182 642.609 660.286 641.224C660.291 641.153 660.354 641.1 660.423 641.106C660.494 641.112 660.547 641.173 660.541 641.243C660.441 642.581 660.736 643.968 661.371 645.148C661.404 645.21 661.381 645.288 661.318 645.322C661.298 645.331 661.278 645.336 661.257 645.336Z" fill="black"/>
<g opacity="0.1294">
<path d="M668.158 607.304C667.993 607.23 667.597 607.292 667.534 607.313C667.109 607.342 666.683 607.333 666.257 607.35C664.391 607.399 662.524 607.416 660.658 607.41C659.595 607.414 658.531 607.451 657.473 607.324C657.292 607.295 656.877 607.227 656.724 607.184C656.598 607.161 656.334 607.067 656.176 607.011C656.13 606.987 656.082 606.964 656.037 606.937C655.805 606.803 655.583 606.608 655.302 606.604C654.136 606.404 653.573 608.055 654.599 608.639C655.959 609.602 657.706 609.786 659.332 609.822C660.68 609.823 662.031 609.826 663.377 609.719C664.616 609.66 665.85 609.534 667.085 609.429C667.565 609.428 668.131 609.544 668.525 609.199C669.244 608.712 668.988 607.508 668.158 607.304Z" fill="black"/>
</g>
<g opacity="0.1294">
<path d="M712.172 605.85C710.791 605.861 709.413 606.065 708.03 606.002C706.019 606.01 703.985 605.861 701.991 606.238C700.493 606.353 700.776 608.989 702.242 608.613C703.175 608.378 705.533 608.509 707.291 608.435C708.905 608.484 710.508 608.253 712.116 608.146C713.403 608.191 713.462 605.901 712.172 605.85Z" fill="black"/>
</g>
<g opacity="0.1294">
<path d="M714.028 635.244C714.06 635.204 714.097 635.169 714.122 635.125C714.483 634.536 714.142 633.715 713.477 633.539C713.293 633.489 713.108 633.491 712.925 633.536C712.856 633.542 712.786 633.547 712.717 633.547C710.822 633.689 708.922 633.527 707.025 633.628C704.31 633.711 701.612 633.483 698.922 633.139C698.904 633.136 698.888 633.135 698.87 633.132C698.634 633.093 698.035 632.992 697.863 632.926C697.854 632.924 697.844 632.923 697.836 632.92C697.84 632.921 697.844 632.921 697.847 632.922C697.124 632.722 696.379 632.588 695.688 632.289C695.246 632.101 694.837 631.725 694.333 631.882C694.273 631.896 694.218 631.918 694.166 631.942C694.002 631.791 693.882 631.574 693.661 631.504C693.057 630.928 691.953 631.657 692.426 632.502C693.619 634.144 695.643 634.937 697.564 635.361C699.054 635.761 700.58 635.964 702.115 636.094C702.979 636.255 705.991 636.392 707.655 636.329C708.982 636.33 710.304 636.172 711.633 636.17C711.617 637.862 711.736 639.553 711.816 641.244C711.965 643.516 711.99 645.823 712.503 648.05C712.658 648.662 713.55 648.768 713.835 648.199C714.115 647.357 713.981 646.421 714.042 645.543C714.071 643.457 713.933 641.371 713.989 639.285C714.028 638.418 714.126 637.556 714.199 636.692C714.239 636.235 714.33 635.647 714.032 635.346C714.032 635.313 714.034 635.278 714.028 635.244Z" fill="black"/>
</g>
<g opacity="0.1294">
<path d="M715.13 608.918C714.847 608.159 713.658 608.403 713.675 609.211C713.605 613.255 713.32 617.584 712.877 620.997C712.853 621.667 713.746 622.035 714.205 621.547C714.537 621.209 714.405 620.704 714.5 620.278C714.449 620.716 714.689 618.857 714.697 618.494C714.934 615.924 715.129 613.35 715.136 610.767C715.103 610.164 715.289 609.496 715.13 608.918Z" fill="black"/>
</g>
<path d="M711.622 615.535C711.615 615.535 711.609 615.534 711.602 615.533C711.533 615.523 711.485 615.457 711.496 615.387C711.75 613.724 711.842 612.028 711.768 610.346C711.765 610.275 711.819 610.216 711.89 610.213C711.961 610.207 712.02 610.264 712.023 610.335C712.099 612.033 712.006 613.746 711.749 615.426C711.738 615.49 711.684 615.535 711.622 615.535Z" fill="black"/>
<path d="M709.715 613.566C709.711 613.566 709.705 613.566 709.699 613.565C709.629 613.556 709.58 613.493 709.588 613.423C709.711 612.419 709.792 611.395 709.828 610.382C709.831 610.311 709.892 610.259 709.961 610.259C710.032 610.262 710.087 610.321 710.084 610.392C710.047 611.412 709.965 612.443 709.841 613.454C709.835 613.518 709.78 613.566 709.715 613.566Z" fill="black"/>
<path d="M685.441 585.984C686.313 585.603 687.969 592.493 687.969 592.493C687.969 592.493 694.333 591.995 694.865 593.018C695.432 594.109 689.649 597.73 689.649 597.73C689.649 597.73 692.005 604.671 691.265 605.079C690.161 605.689 685.441 601.207 685.441 601.207C685.441 601.207 680.436 605.47 679.616 605.079C679.195 604.879 681.435 597.94 681.435 597.94C681.435 597.94 675.936 594.459 676.269 593.543C676.578 592.69 682.911 592.809 682.911 592.809C682.911 592.809 684.293 586.485 685.441 585.984Z" fill="#ACD4F7"/>
<path d="M691.052 605.506C689.669 605.506 686.87 603.069 685.428 601.721C683.104 603.682 680.282 605.821 679.451 605.425C679.117 605.265 678.737 605.085 680.981 598.103C680.52 597.804 679.493 597.127 678.5 596.393C676.096 594.617 675.726 593.916 675.91 593.412C676.045 593.037 676.46 592.626 679.689 592.472C680.879 592.416 682.06 592.417 682.605 592.421C683.012 590.62 684.13 586.139 685.287 585.632C685.445 585.564 685.622 585.57 685.785 585.651C686.692 586.103 687.772 590.078 688.265 592.087C690.398 591.935 694.65 591.773 695.205 592.841C695.455 593.32 695.352 594.08 692.701 596.088C691.669 596.87 690.587 597.583 690.107 597.892C690.295 598.46 690.727 599.796 691.104 601.148C692.096 604.716 691.834 605.202 691.451 605.414C691.337 605.477 691.203 605.506 691.052 605.506ZM685.441 600.823C685.536 600.823 685.631 600.858 685.705 600.928C688.019 603.126 690.438 604.858 691.019 604.763C691.169 604.088 690.255 600.709 689.286 597.853C689.229 597.684 689.295 597.499 689.445 597.405C692.218 595.669 694.59 593.696 694.521 593.184C694.237 592.769 691.248 592.622 688 592.876C687.815 592.891 687.641 592.767 687.598 592.584C686.959 589.926 686.004 586.905 685.508 586.392C684.899 586.909 683.902 590.08 683.287 592.891C683.248 593.07 683.093 593.199 682.905 593.193C680.258 593.142 677.188 593.316 676.652 593.68C676.864 594.283 679.353 596.169 681.641 597.618C681.789 597.712 681.855 597.893 681.801 598.059C680.935 600.742 680.078 603.735 679.959 604.682C680.807 604.39 683.211 602.604 685.193 600.916C685.264 600.854 685.352 600.823 685.441 600.823Z" fill="black"/>
<path d="M988.929 23.4925C989.827 23.1005 991.53 30.1885 991.53 30.1885C991.53 30.1885 998.076 29.6765 998.623 30.7285C999.207 31.8505 993.257 35.5755 993.257 35.5755C993.257 35.5755 995.681 42.7156 994.92 43.1356C993.784 43.7626 988.928 39.1526 988.928 39.1526C988.928 39.1526 983.78 43.5386 982.936 43.1356C982.502 42.9286 984.808 35.7915 984.808 35.7915C984.808 35.7915 979.151 32.2115 979.494 31.2685C979.813 30.3905 986.327 30.5135 986.327 30.5135C986.327 30.5135 987.749 24.0075 988.929 23.4925Z" fill="#ACD4F7"/>
<path d="M994.703 43.6576C993.305 43.6576 990.648 41.4126 988.912 39.7926C985.532 42.6426 983.453 43.9096 982.732 43.5676C982.321 43.3716 981.933 43.1866 984.242 35.9956C983.745 35.6726 982.726 34.9976 981.74 34.2686C979.225 32.4116 978.844 31.6616 979.046 31.1056C979.202 30.6766 979.636 30.2446 983.008 30.0846C984.187 30.0286 985.356 30.0276 985.946 30.0316C986.441 27.8436 987.545 23.5766 988.738 23.0556C988.923 22.9746 989.13 22.9826 989.32 23.0766C990.273 23.5506 991.38 27.5846 991.898 29.6836C994.493 29.4996 998.475 29.4096 999.047 30.5086C999.674 31.7136 996.632 33.9986 993.83 35.7796C996.237 42.9546 995.479 43.3736 995.152 43.5546C995.023 43.6246 994.872 43.6576 994.703 43.6576ZM988.929 38.6746C989.047 38.6746 989.166 38.7186 989.258 38.8056C991.493 40.9276 993.889 42.6756 994.595 42.7226C994.676 41.8916 993.762 38.5456 992.806 35.7296C992.735 35.5196 992.817 35.2886 993.005 35.1716C995.752 33.4516 998.092 31.5336 998.185 30.9336C997.761 30.5466 994.759 30.4176 991.569 30.6666C991.333 30.6846 991.123 30.5306 991.068 30.3026C990.441 27.6936 989.508 24.7096 988.992 24.0366C988.438 24.6466 987.478 27.4946 986.796 30.6166C986.748 30.8356 986.554 30.9926 986.329 30.9926C986.326 30.9926 986.323 30.9926 986.32 30.9926C983.718 30.9426 980.69 31.1146 979.999 31.4466C980.365 32.1226 982.827 33.9736 985.066 35.3906C985.25 35.5076 985.332 35.7336 985.265 35.9406C984.416 38.5686 983.57 41.5066 983.393 42.5976C984.348 42.1876 986.691 40.4346 988.62 38.7906C988.709 38.7126 988.819 38.6746 988.929 38.6746Z" fill="black"/>
<path d="M288.045 157.736C287.247 140.839 287.519 110.477 286.339 106.664C285.57 104.177 283.283 102.514 280.735 102.607C280.735 102.607 235.056 102.214 208.97 103.168C205.614 103.291 201.314 104.614 201.396 111.172C201.604 127.781 201.727 137.573 201.993 158.851C239.785 158.303 276.887 157.897 288.045 157.736Z" fill="white"/>
<path d="M201.993 159.329C201.869 159.329 201.749 159.281 201.66 159.194C201.569 159.105 201.517 158.984 201.516 158.858L200.919 111.179C200.852 105.821 203.63 102.886 208.953 102.692C234.751 101.749 280.283 102.127 280.74 102.131C283.468 102.039 285.965 103.837 286.796 106.524C287.516 108.853 287.699 120.114 287.911 133.153C288.052 141.857 288.199 150.858 288.522 157.715C288.528 157.844 288.481 157.97 288.393 158.064C288.304 158.158 288.181 158.213 288.052 158.214C284.131 158.271 276.914 158.359 267.776 158.471C250.362 158.683 226.513 158.974 202 159.33C201.998 159.329 201.996 159.329 201.993 159.329ZM258.947 103.007C243.57 103.007 223.257 103.124 208.987 103.646C204.206 103.82 201.813 106.351 201.873 111.167L202.464 158.367C226.809 158.014 250.463 157.726 267.764 157.515C276.53 157.408 283.529 157.322 287.544 157.266C287.236 150.46 287.093 141.673 286.955 133.168C286.753 120.742 286.562 109.005 285.882 106.806C285.178 104.53 283.071 103.008 280.752 103.085C280.539 103.083 271.347 103.007 258.947 103.007Z" fill="black"/>
<path d="M199.048 102.868C195.191 109.191 191.335 115.515 187.478 121.838C191.309 121.777 195.14 121.716 198.971 121.655C210.621 121.469 222.271 121.284 233.92 121.098C237.045 114.663 240.752 107.765 244.723 101.879L199.048 102.868Z" fill="white"/>
<path d="M187.478 122.315C187.307 122.315 187.149 122.223 187.063 122.075C186.977 121.924 186.979 121.738 187.07 121.589L198.64 102.619C198.725 102.48 198.874 102.394 199.037 102.39L244.713 101.4C244.902 101.407 245.057 101.492 245.143 101.649C245.228 101.806 245.219 101.997 245.12 102.145C241.652 107.285 238.029 113.732 234.351 121.305C234.272 121.467 234.109 121.571 233.929 121.574L187.487 122.315C187.483 122.315 187.481 122.315 187.478 122.315ZM199.32 103.34L188.338 121.347L233.62 120.625C237.094 113.494 240.521 107.361 243.818 102.377L199.32 103.34Z" fill="black"/>
<path d="M289.027 101.563C293.04 107.772 297.054 113.981 301.067 120.19C297.236 120.24 293.405 120.29 289.574 120.34C277.924 120.492 266.274 120.644 254.623 120.796C251.338 114.454 247.46 107.666 243.343 101.898L289.027 101.563Z" fill="white"/>
<path d="M254.623 121.275C254.445 121.275 254.281 121.176 254.199 121.017C250.332 113.552 246.549 107.213 242.954 102.177C242.85 102.032 242.836 101.841 242.917 101.683C242.998 101.524 243.161 101.424 243.339 101.422L289.023 101.087H289.027C289.189 101.087 289.34 101.169 289.428 101.305L301.469 119.932C301.563 120.078 301.571 120.264 301.489 120.417C301.407 120.57 301.248 120.667 301.074 120.669L254.63 121.275C254.628 121.275 254.625 121.275 254.623 121.275ZM244.26 102.37C247.68 107.257 251.259 113.288 254.911 120.316L300.197 119.725L288.768 102.043L244.26 102.37Z" fill="black"/>
<path d="M244.049 158.444C243.962 158.444 243.891 158.374 243.89 158.287C243.617 136.476 243.534 118.824 243.63 102.738C243.63 102.65 243.702 102.58 243.789 102.58H243.79C243.878 102.581 243.949 102.652 243.948 102.74C243.852 118.824 243.935 136.474 244.208 158.283C244.209 158.371 244.139 158.443 244.051 158.444H244.049Z" fill="black"/>
<path d="M206.058 135.13C205.973 135.13 205.903 135.063 205.899 134.978L205.426 124.035C205.422 123.947 205.49 123.873 205.578 123.869C205.668 123.868 205.74 123.934 205.744 124.021L206.217 134.964C206.221 135.052 206.153 135.126 206.065 135.13C206.062 135.13 206.06 135.13 206.058 135.13Z" fill="black"/>
<path d="M209.529 129.301C209.448 129.301 209.379 129.24 209.371 129.157C209.301 128.435 209.156 126.019 209.13 123.974C209.129 123.886 209.199 123.814 209.287 123.813H209.289C209.376 123.813 209.447 123.883 209.448 123.97C209.473 126.006 209.617 128.409 209.687 129.126C209.695 129.214 209.631 129.291 209.544 129.3C209.54 129.301 209.534 129.301 209.529 129.301Z" fill="black"/>
<path d="M283.498 128.532C283.417 128.532 283.348 128.47 283.34 128.388C283.27 127.666 283.125 125.251 283.099 123.205C283.098 123.117 283.168 123.045 283.256 123.044H283.258C283.345 123.044 283.416 123.114 283.417 123.201C283.443 125.238 283.586 127.64 283.656 128.357C283.665 128.445 283.6 128.522 283.513 128.531C283.509 128.532 283.503 128.532 283.498 128.532Z" fill="black"/>
<g opacity="0.1294">
<path d="M285.631 120.04C285.43 120.036 285.232 120.074 285.043 120.138C285.04 120.135 285.021 120.138 284.966 120.156C282.184 119.858 273.705 120.115 269.094 120.314C266.097 120.337 263.094 120.267 260.093 120.264C256.956 120.143 254.782 120.418 254.768 120.392C253.547 118.101 250.731 113.961 246.405 105.785C246.193 105.384 245.989 104.979 245.798 104.569C245.678 104.261 245.455 103.995 245.164 103.833C244.649 103.524 244.052 103.621 243.613 103.935C243.322 103.934 243.03 103.998 242.77 104.157C242.116 104.615 241.722 105.45 241.404 106.159C241.402 106.173 241.401 106.183 241.399 106.197C241.388 106.24 241.378 106.283 241.367 106.326C240.313 108.154 239.172 109.933 238.146 111.777C236.226 115.04 235.54 117.625 233.947 120.242C233.804 120.466 233.751 120.562 233.705 120.633C233.346 120.568 233.179 120.746 232.733 120.694C229.205 120.831 225.667 120.562 222.146 120.903C218.129 120.931 214.806 121.164 210.874 121.303C208.557 121.364 206.24 121.317 203.922 121.329C203.1 121.376 202.11 121.205 201.48 121.839C200.541 122.731 201.403 124.133 202.714 124.071C205.278 123.951 232.1 123.783 233.513 123.812C233.545 123.813 234.797 123.933 235.234 123.46C236.082 122.698 236.685 121.744 237.137 120.715C238.156 118.875 238.686 117.387 239.234 116.321C240.618 113.723 242.316 111.303 243.646 108.675C243.739 108.495 244.002 108.064 244.112 107.864C244.14 107.837 244.153 107.823 244.16 107.815C245.336 110.083 251.958 121.904 252.826 122.386C254.549 123.344 254.947 122.97 258.407 123.034C261.856 123.097 286.728 122.473 286.992 123.166C288.149 122.065 287.243 119.964 285.631 120.04Z" fill="black"/>
</g>
<path d="M213.366 71.4509C214.211 71.1089 215.814 77.2979 215.814 77.2979C215.814 77.2979 221.975 76.8509 222.49 77.7689C223.04 78.7489 217.44 82.0009 217.44 82.0009C217.44 82.0009 219.722 88.2349 219.005 88.6019C217.936 89.1499 213.366 85.1239 213.366 85.1239C213.366 85.1239 208.521 88.9529 207.727 88.6019C207.319 88.4219 209.488 82.1899 209.488 82.1899C209.488 82.1899 204.164 79.0639 204.486 78.2409C204.786 77.4739 210.917 77.5809 210.917 77.5809C210.917 77.5809 212.256 71.8999 213.366 71.4509Z" fill="#ACD4F7"/>
<path d="M218.801 89.1169C217.486 89.1169 214.986 87.1589 213.351 85.7429C210.17 88.2299 208.214 89.3369 207.535 89.0379C207.108 88.8489 206.739 88.6859 208.91 82.4019C203.586 79.2339 203.917 78.3889 204.043 78.0659C204.145 77.8049 204.454 77.0189 210.544 77.0979C211.017 75.1649 212.058 71.4669 213.188 71.0089C213.371 70.9349 213.573 70.9459 213.76 71.0399C214.655 71.4899 215.686 74.9569 216.177 76.7949C219.045 76.6059 222.384 76.6019 222.908 77.5359C223.41 78.4309 221.768 80.0039 218.026 82.2119C220.288 88.4809 219.572 88.8479 219.224 89.0269C219.102 89.0879 218.96 89.1169 218.801 89.1169ZM213.367 84.6459C213.48 84.6459 213.593 84.6859 213.683 84.7649C215.756 86.5909 217.978 88.0999 218.675 88.1779C218.707 87.3859 217.863 84.5439 216.993 82.1649C216.913 81.9469 217.001 81.7039 217.202 81.5879C219.643 80.1699 221.784 78.5659 222.031 77.9829C221.428 77.6309 218.424 77.5869 215.85 77.7739C215.617 77.7929 215.411 77.6409 215.353 77.4169C214.768 75.1609 213.894 72.5849 213.423 71.9879C212.909 72.5279 212.019 74.9929 211.383 77.6889C211.332 77.9079 211.145 78.0679 210.91 78.0569C208.552 78.0159 205.801 78.1459 205.031 78.4249C205.507 79.0619 207.73 80.6009 209.731 81.7769C209.927 81.8929 210.015 82.1309 209.94 82.3459C209.169 84.5619 208.394 87.0459 208.2 88.0509C209.123 87.6639 211.285 86.1599 213.071 84.7479C213.157 84.6799 213.262 84.6459 213.367 84.6459Z" fill="black"/>
<path d="M275.394 71.4509C276.239 71.1089 277.842 77.2979 277.842 77.2979C277.842 77.2979 284.003 76.8509 284.518 77.7689C285.067 78.7489 279.468 82.0009 279.468 82.0009C279.468 82.0009 281.75 88.2349 281.033 88.6019C279.964 89.1499 275.394 85.1239 275.394 85.1239C275.394 85.1239 270.549 88.9529 269.755 88.6019C269.347 88.4219 271.516 82.1899 271.516 82.1899C271.516 82.1899 266.192 79.0639 266.514 78.2409C266.814 77.4739 272.945 77.5809 272.945 77.5809C272.945 77.5809 274.284 71.8999 275.394 71.4509Z" fill="#ACD4F7"/>
<path d="M280.829 89.1169C279.514 89.1169 277.014 87.1589 275.379 85.7429C272.198 88.2299 270.243 89.3369 269.563 89.0379C269.136 88.8489 268.767 88.6859 270.938 82.4019C265.614 79.2339 265.945 78.3889 266.071 78.0659C266.173 77.8059 266.482 77.0259 272.571 77.0979C273.044 75.1649 274.085 71.4669 275.215 71.0089C275.398 70.9349 275.601 70.9459 275.787 71.0399C276.682 71.4899 277.713 74.9569 278.204 76.7949C281.072 76.6059 284.411 76.6019 284.935 77.5359C285.437 78.4309 283.794 80.0039 280.053 82.2119C282.315 88.4809 281.599 88.8479 281.251 89.0269C281.13 89.0879 280.988 89.1169 280.829 89.1169ZM275.395 84.6459C275.508 84.6459 275.621 84.6859 275.711 84.7649C277.784 86.5909 280.006 88.0999 280.703 88.1779C280.735 87.3859 279.891 84.5439 279.021 82.1649C278.941 81.9469 279.029 81.7039 279.23 81.5879C281.671 80.1699 283.812 78.5659 284.059 77.9829C283.456 77.6309 280.452 77.5869 277.878 77.7739C277.648 77.7929 277.439 77.6409 277.381 77.4169C276.796 75.1609 275.922 72.5849 275.451 71.9879C274.937 72.5279 274.047 74.9929 273.411 77.6889C273.36 77.9049 273.168 78.0569 272.946 78.0569C272.943 78.0569 272.94 78.0569 272.938 78.0569C270.58 78.0149 267.828 78.1459 267.059 78.4249C267.535 79.0629 269.758 80.6019 271.759 81.7769C271.955 81.8929 272.043 82.1309 271.968 82.3459C271.197 84.5619 270.422 87.0459 270.228 88.0509C271.151 87.6639 273.313 86.1599 275.099 84.7479C275.185 84.6799 275.29 84.6459 275.395 84.6459Z" fill="black"/>
<path d="M244.086 57.4969C245.259 57.0129 247.485 65.7679 247.485 65.7679C247.485 65.7679 256.038 65.1359 256.753 66.4349C257.516 67.8209 249.742 72.4219 249.742 72.4219C249.742 72.4219 252.909 81.2399 251.915 81.7589C250.431 82.5339 244.087 76.8389 244.087 76.8389C244.087 76.8389 237.361 82.2559 236.259 81.7589C235.692 81.5039 238.704 72.6879 238.704 72.6879C238.704 72.6879 231.313 68.2659 231.761 67.1009C232.178 66.0169 240.689 66.1679 240.689 66.1679C240.689 66.1679 242.545 58.1329 244.086 57.4969Z" fill="white"/>
<path d="M251.617 82.2949C249.777 82.2959 245.992 79.1649 244.069 77.4629C243.493 77.9179 242.209 78.9179 240.862 79.8749C237.468 82.2859 236.55 82.4139 236.062 82.1949C235.639 82.0039 235.113 81.7669 238.128 72.8969C237.512 72.5189 236.129 71.6569 234.791 70.7229C231.202 68.2169 231.115 67.4509 231.315 66.9299C231.495 66.4609 232.048 65.9439 236.359 65.7509C237.983 65.6789 239.594 65.6799 240.311 65.6859C240.854 63.4079 242.357 57.6939 243.905 57.0549C244.108 56.9719 244.335 56.9829 244.545 57.0889C245.77 57.7039 247.281 63.0799 247.849 65.2629C250.692 65.0699 256.43 64.8559 257.172 66.2039C257.509 66.8169 257.373 67.7859 253.812 70.3359C252.422 71.3319 250.964 72.2389 250.322 72.6289C250.576 73.3549 251.156 75.0479 251.66 76.7599C252.994 81.2959 252.627 81.9259 252.136 82.1819C251.988 82.2589 251.813 82.2949 251.617 82.2949ZM244.086 76.3609C244.2 76.3609 244.315 76.4019 244.405 76.4829C247.544 79.2999 250.825 81.5079 251.62 81.3599C251.829 80.5199 250.598 76.2169 249.292 72.5819C249.215 72.3669 249.301 72.1259 249.498 72.0099C253.206 69.8159 256.397 67.3089 256.327 66.6459C255.95 66.1129 251.913 65.9189 247.519 66.2439C247.288 66.2599 247.078 66.1099 247.021 65.8859C246.145 62.4409 244.836 58.5409 244.18 57.9879C243.356 58.5709 241.988 62.6579 241.152 66.2759C241.101 66.4959 240.898 66.6489 240.678 66.6459C237.096 66.5819 232.954 66.8049 232.237 67.2749C232.542 68.0509 235.882 70.4439 238.948 72.2789C239.141 72.3949 239.228 72.6299 239.155 72.8429C237.983 76.2729 236.822 80.1079 236.677 81.2789C237.777 80.9629 241.064 78.6599 243.787 76.4669C243.874 76.3959 243.98 76.3609 244.086 76.3609Z" fill="black"/>
<path d="M718.218 365.493C719.147 365.104 721.005 371.865 721.005 371.865C721.005 371.865 727.81 371.276 728.392 372.275C729.013 373.341 722.867 376.996 722.867 376.996C722.867 376.996 725.475 383.795 724.688 384.208C723.513 384.826 718.406 380.485 718.406 380.485C718.406 380.485 713.103 384.761 712.22 384.389C711.766 384.198 714.079 377.33 714.079 377.33C714.079 377.33 708.15 373.988 708.496 373.08C708.817 372.235 715.596 372.254 715.596 372.254C715.596 372.254 716.997 366.004 718.218 365.493Z" fill="white"/>
<path d="M712.288 384.874C712.191 384.874 712.106 384.859 712.034 384.829C711.599 384.646 711.187 384.472 713.501 377.551C707.572 374.166 707.93 373.224 708.049 372.91C708.156 372.63 708.476 371.788 715.215 371.776C715.644 369.939 716.784 365.576 718.033 365.053C718.22 364.975 718.43 364.984 718.625 365.078C719.609 365.557 720.797 369.368 721.358 371.356C724.044 371.141 728.195 370.99 728.803 372.034C729.358 372.986 727.558 374.723 723.454 377.199C726.042 384.034 725.25 384.45 724.908 384.63C723.667 385.282 720.146 382.563 718.397 381.102C716.126 382.916 713.414 384.873 712.288 384.874ZM709.021 373.255C709.485 373.924 712.023 375.623 714.313 376.914C714.513 377.026 714.604 377.265 714.531 377.482C713.686 379.991 712.844 382.802 712.669 383.855C713.644 383.47 716.087 381.74 718.106 380.113C718.285 379.969 718.54 379.972 718.715 380.121C721.112 382.158 723.647 383.799 724.363 383.8C724.429 382.999 723.44 379.825 722.42 377.166C722.337 376.949 722.422 376.703 722.622 376.585C725.385 374.941 727.774 373.1 727.949 372.489C727.412 372.095 723.986 372.085 721.046 372.34C720.819 372.362 720.605 372.213 720.544 371.991C719.847 369.455 718.813 366.574 718.29 366.01C717.679 366.572 716.673 369.629 716.061 372.358C716.012 372.576 715.819 372.731 715.595 372.731H715.594C712.918 372.729 709.794 372.92 709.021 373.255Z" fill="black"/>
<path d="M822.22 713.493C823.149 713.104 825.007 719.865 825.007 719.865C825.007 719.865 831.812 719.276 832.394 720.275C833.015 721.341 826.869 724.996 826.869 724.996C826.869 724.996 829.477 731.795 828.69 732.208C827.515 732.826 822.408 728.485 822.408 728.485C822.408 728.485 817.104 732.761 816.222 732.389C815.768 732.198 818.081 725.33 818.081 725.33C818.081 725.33 812.153 721.988 812.498 721.08C812.819 720.235 819.598 720.254 819.598 720.254C819.598 720.254 820.999 714.004 822.22 713.493Z" fill="white"/>
<path d="M816.29 732.874C816.193 732.874 816.108 732.859 816.035 732.829C815.6 732.646 815.188 732.472 817.502 725.551C811.572 722.166 811.931 721.224 812.05 720.91C812.156 720.63 812.477 719.787 819.216 719.776C819.645 717.939 820.786 713.576 822.035 713.053C822.223 712.974 822.433 712.984 822.627 713.078C823.611 713.557 824.799 717.368 825.36 719.356C828.047 719.141 832.197 718.99 832.805 720.034C833.36 720.986 831.56 722.723 827.456 725.199C830.044 732.034 829.252 732.451 828.91 732.63C827.667 733.28 824.148 730.563 822.399 729.102C820.128 730.916 817.415 732.873 816.29 732.874ZM813.023 721.255C813.486 721.924 816.024 723.623 818.315 724.914C818.515 725.027 818.606 725.265 818.533 725.482C817.688 727.991 816.846 730.802 816.671 731.855C817.646 731.47 820.09 729.74 822.108 728.113C822.286 727.969 822.543 727.972 822.717 728.121C825.114 730.158 827.649 731.799 828.365 731.8C828.431 730.999 827.442 727.825 826.422 725.167C826.339 724.95 826.424 724.704 826.624 724.586C829.387 722.942 831.776 721.101 831.951 720.49C831.414 720.096 827.989 720.087 825.048 720.341C824.818 720.362 824.607 720.214 824.546 719.992C823.849 717.457 822.815 714.575 822.293 714.011C821.681 714.573 820.675 717.63 820.063 720.359C820.014 720.577 819.82 720.732 819.597 720.732C819.54 720.723 819.499 720.732 819.45 720.732C816.803 720.731 813.781 720.926 813.023 721.255Z" fill="black"/>
<path d="M947.564 197.279C920.684 197.812 893.803 198.345 866.921 198.878C863.935 198.937 860.66 199.091 858.465 200.8C856.147 202.606 854.505 205.315 854.544 207.962C854.799 224.975 854.504 240.789 855.114 257.085C855.178 258.793 855.286 260.596 856.403 262.02C858.703 264.953 863.768 264.448 867.963 264.384C896.37 263.951 922.021 263.598 946.456 263.226C950.326 263.166 954.764 263.646 957.414 261.267C959.429 259.458 959.693 256.771 959.85 254.306C960.671 241.419 959.541 209.709 959.465 204.643C959.399 200.226 957.745 197.124 947.564 197.279Z" fill="white"/>
<path d="M864.269 265C861.016 265 857.765 264.639 855.974 262.355C854.706 260.74 854.631 258.723 854.57 257.104C854.189 246.94 854.162 237.146 854.132 226.777C854.115 220.682 854.097 214.378 854.001 207.97C853.961 205.299 855.543 202.386 858.132 200.37C860.398 198.605 863.579 198.398 866.913 198.333L947.556 196.735H947.558C952.492 196.663 955.707 197.321 957.643 198.816C959.679 200.387 959.984 202.639 960.013 204.636C960.027 205.579 960.077 207.416 960.147 209.958C960.446 220.954 961.066 243.837 960.398 254.342C960.22 257.127 959.887 259.785 957.781 261.674C955.393 263.818 951.8 263.795 948.324 263.771C947.697 263.768 947.076 263.763 946.469 263.772C934.747 263.95 922.746 264.125 910.295 264.305C896.79 264.501 882.755 264.704 867.974 264.93C867.512 264.937 867.04 264.95 866.562 264.962C865.809 264.979 865.039 265 864.269 265ZM947.575 197.823L866.933 199.422C863.79 199.485 860.803 199.669 858.801 201.229C856.477 203.04 855.055 205.616 855.089 207.953C855.185 214.368 855.203 220.675 855.22 226.774C855.25 237.134 855.279 246.919 855.659 257.063C855.726 258.859 855.861 260.445 856.832 261.683C858.707 264.077 862.863 263.97 866.531 263.872C867.014 263.859 867.49 263.846 867.956 263.84C882.737 263.615 896.771 263.412 910.277 263.216C922.727 263.035 934.729 262.861 946.45 262.683C947.065 262.674 947.695 262.678 948.33 262.682C951.598 262.704 954.977 262.725 957.052 260.863C958.851 259.248 959.146 256.824 959.308 254.272C959.973 243.818 959.354 220.968 959.055 209.987C958.985 207.442 958.936 205.603 958.921 204.653C958.885 202.192 958.303 200.704 956.975 199.68C955.268 198.36 952.2 197.755 947.575 197.823Z" fill="black"/>
<path d="M942.477 202.939C919.008 203.399 895.541 203.859 872.072 204.319C869.466 204.37 866.604 204.499 864.687 205.921C862.662 207.423 861.227 209.675 861.26 211.873C861.472 226.007 861.204 239.145 861.726 252.682C861.781 254.1 861.873 255.598 862.848 256.78C864.854 259.215 869.276 258.793 872.94 258.737C897.74 258.359 920.136 258.049 941.469 257.725C944.847 257.674 948.721 258.068 951.037 256.091C952.796 254.587 953.029 252.354 953.168 250.306C953.893 239.6 952.926 213.257 952.864 209.049C952.809 205.381 951.52 202.802 942.477 202.939Z" fill="white"/>
<path d="M869.692 258.982C866.93 258.982 864.186 258.691 862.708 256.897C861.737 255.719 861.607 254.294 861.545 252.69C861.22 244.252 861.2 236.119 861.181 227.508C861.169 222.442 861.157 217.204 861.078 211.877C861.046 209.739 862.388 207.402 864.58 205.776C866.488 204.361 869.211 204.193 872.068 204.137L942.474 202.758C946.781 202.693 949.536 203.221 951.149 204.422C952.777 205.633 953.021 207.439 953.045 209.047C953.057 209.831 953.1 211.356 953.158 213.468C953.411 222.601 953.94 241.604 953.35 250.32C953.197 252.577 952.914 254.728 951.156 256.23C949.154 257.94 946.077 257.925 943.1 257.906C942.55 257.903 942.006 257.901 941.473 257.909C931.159 258.066 920.597 258.219 909.634 258.379C897.923 258.549 885.754 258.726 872.944 258.921C872.541 258.927 872.128 258.938 871.71 258.948C871.047 258.965 870.369 258.982 869.692 258.982ZM942.481 203.122L872.075 204.501C869.279 204.556 866.617 204.717 864.796 206.068C862.696 207.625 861.41 209.849 861.441 211.872C861.521 217.201 861.533 222.441 861.545 227.508C861.564 236.116 861.583 244.247 861.909 252.677C861.968 254.215 862.09 255.578 862.988 256.667C864.717 258.766 868.425 258.671 871.699 258.586C872.117 258.576 872.533 258.565 872.937 258.559C885.746 258.364 897.915 258.187 909.626 258.017C920.589 257.857 931.151 257.705 941.465 257.547C942 257.539 942.548 257.542 943.1 257.545C946.012 257.563 949.02 257.578 950.918 255.957C952.571 254.545 952.84 252.474 952.987 250.297C953.576 241.598 953.048 222.608 952.794 213.481C952.736 211.368 952.693 209.842 952.681 209.055C952.657 207.46 952.429 205.83 950.931 204.715C949.408 203.578 946.645 203.055 942.481 203.122Z" fill="black"/>
<path d="M889.33 242.013C889.12 242.013 888.926 241.892 888.837 241.699L879.649 222.079C879.521 221.807 879.639 221.483 879.911 221.355C880.183 221.226 880.508 221.345 880.636 221.617L889.222 239.95C891.142 233.707 893.448 227.505 896.085 221.492C896.206 221.216 896.526 221.09 896.803 221.211C897.079 221.332 897.203 221.654 897.083 221.929C894.273 228.338 891.839 234.963 889.853 241.622C889.788 241.839 889.596 241.993 889.371 242.01C889.356 242.013 889.343 242.013 889.33 242.013Z" fill="black"/>
<path d="M909.479 241.125C909.182 241.125 908.938 240.886 908.935 240.589C908.894 237.864 908.874 235.056 908.856 232.339C908.831 228.747 908.806 225.033 908.73 221.417C908.725 221.115 908.963 220.867 909.264 220.86C909.561 220.854 909.814 221.093 909.82 221.394C909.895 225.019 909.922 228.737 909.946 232.332C909.964 235.046 909.983 237.852 910.024 240.573C910.029 240.874 909.788 241.121 909.488 241.126C909.484 241.125 909.481 241.125 909.479 241.125Z" fill="black"/>
<path d="M923.642 240.909C923.344 240.909 923.101 240.671 923.097 240.373C923.054 237.585 923.035 234.712 923.016 231.934C922.989 228.261 922.963 224.462 922.886 220.762C922.88 220.46 923.118 220.212 923.42 220.205C923.711 220.2 923.97 220.438 923.975 220.739C924.053 224.447 924.079 228.249 924.105 231.926C924.125 234.702 924.145 237.573 924.186 240.356C924.191 240.657 923.95 240.905 923.65 240.909C923.648 240.909 923.644 240.909 923.642 240.909Z" fill="black"/>
<path d="M924.629 232.674C924.34 232.674 924.1 232.446 924.085 232.154C924.071 231.853 924.303 231.599 924.603 231.584L930.189 231.319C931.418 231.261 932.947 231.188 934.031 230.632C934.62 230.33 935.112 229.864 935.497 229.247C936.131 228.229 936.272 227.077 935.905 225.913C935.423 224.38 934.126 223.066 932.348 222.307C929.829 221.232 926.677 221.195 923.924 221.305C923.634 221.324 923.371 221.082 923.358 220.781C923.347 220.48 923.581 220.227 923.881 220.215C926.754 220.102 930.057 220.144 932.775 221.304C934.845 222.188 936.365 223.748 936.944 225.585C937.402 227.04 937.217 228.545 936.421 229.822C935.932 230.608 935.294 231.207 934.527 231.601C933.233 232.265 931.573 232.344 930.24 232.407L924.654 232.671C924.646 232.672 924.638 232.674 924.629 232.674Z" fill="black"/>
<path d="M909.677 221.413C908.719 221.413 907.761 221.37 906.811 221.282C906.511 221.255 906.291 220.989 906.318 220.69C906.346 220.39 906.608 220.173 906.911 220.197C908.419 220.335 909.952 220.361 911.469 220.271C911.779 220.252 912.027 220.482 912.045 220.782C912.063 221.082 911.834 221.34 911.534 221.358C910.917 221.396 910.297 221.413 909.677 221.413Z" fill="black"/>
<path d="M907.165 241.741C906.887 241.741 906.649 241.529 906.623 241.247C906.596 240.948 906.815 240.682 907.115 240.654C908.683 240.506 910.272 240.478 911.839 240.568C912.139 240.585 912.368 240.843 912.351 241.143C912.334 241.443 912.082 241.678 911.776 241.655C910.263 241.569 908.729 241.596 907.216 241.738C907.199 241.74 907.182 241.741 907.165 241.741Z" fill="black"/>
<path d="M921.328 241.479C921.051 241.479 920.812 241.266 920.786 240.984C920.758 240.684 920.978 240.42 921.278 240.391C922.842 240.244 924.432 240.215 926.002 240.306C926.302 240.323 926.531 240.581 926.514 240.881C926.497 241.181 926.25 241.417 925.939 241.393C924.423 241.306 922.888 241.334 921.379 241.475C921.362 241.477 921.345 241.479 921.328 241.479Z" fill="black"/>
<path d="M897.072 221.694C896.112 221.694 895.153 221.65 894.203 221.563C893.903 221.535 893.683 221.269 893.711 220.969C893.738 220.669 894.003 220.452 894.304 220.476C895.811 220.616 897.345 220.641 898.863 220.551C899.172 220.533 899.421 220.762 899.439 221.062C899.458 221.362 899.228 221.62 898.928 221.638C898.31 221.674 897.69 221.694 897.072 221.694Z" fill="black"/>
<path d="M880.628 221.697C879.67 221.697 878.71 221.654 877.76 221.566C877.461 221.539 877.239 221.273 877.267 220.974C877.294 220.675 877.555 220.455 877.86 220.481C879.371 220.62 880.904 220.644 882.418 220.555C882.724 220.535 882.977 220.766 882.994 221.066C883.013 221.366 882.783 221.624 882.483 221.642C881.867 221.679 881.248 221.697 880.628 221.697Z" fill="black"/>
<path d="M923.029 185.689C912.075 185.07 901.081 185.261 889.662 185.992C887.648 180.058 885.24 174.274 882.46 168.703C887.215 170.186 893.954 172.245 898.763 173.292C901.526 168.619 904.117 164.984 907.334 159.544C909.572 163.591 912.513 169.292 914.593 173.051C918.679 171.964 925.53 169.35 930.321 167.846C927.02 173.204 925.729 177.946 923.029 185.689Z" fill="#ACD4F7"/>
<path d="M889.661 186.538C889.429 186.538 889.221 186.391 889.145 186.168C887.146 180.275 884.732 174.48 881.972 168.946C881.875 168.751 881.904 168.516 882.045 168.349C882.186 168.183 882.414 168.117 882.622 168.183C887.603 169.737 893.867 171.638 898.495 172.675C899.757 170.557 900.975 168.66 902.261 166.658C903.707 164.408 905.2 162.082 906.865 159.267C906.964 159.099 907.155 158.999 907.342 159C907.537 159.003 907.716 159.111 907.811 159.281C908.954 161.346 910.287 163.857 911.576 166.285C912.764 168.523 913.891 170.644 914.863 172.412C917.222 171.756 920.428 170.642 923.534 169.562C925.82 168.767 928.184 167.945 930.159 167.326C930.377 167.258 930.613 167.331 930.753 167.511C930.892 167.69 930.905 167.937 930.787 168.131C928.102 172.488 926.745 176.481 924.867 182.008C924.458 183.214 924.022 184.494 923.543 185.868C923.463 186.097 923.248 186.247 922.997 186.233C912.783 185.656 901.89 185.756 889.696 186.537C889.685 186.538 889.674 186.538 889.661 186.538ZM883.51 169.6C885.997 174.707 888.193 180.022 890.043 185.423C901.948 184.673 912.623 184.575 922.649 185.123C923.075 183.897 923.465 182.747 923.836 181.659C925.559 176.588 926.848 172.793 929.121 168.807C927.48 169.346 925.663 169.977 923.893 170.594C920.584 171.744 917.162 172.933 914.734 173.58C914.492 173.643 914.238 173.535 914.117 173.317C913.095 171.469 911.89 169.2 910.614 166.799C909.496 164.692 908.345 162.525 907.316 160.643C905.835 163.113 904.486 165.213 903.178 167.249C901.83 169.349 900.556 171.332 899.232 173.572C899.113 173.774 898.877 173.877 898.646 173.826C894.306 172.879 888.431 171.126 883.51 169.6Z" fill="black"/>
<path d="M863.967 217.429C863.869 217.429 863.788 217.35 863.786 217.251C863.738 214.918 863.859 212.559 864.144 210.239C864.157 210.14 864.243 210.067 864.346 210.082C864.445 210.093 864.516 210.185 864.503 210.284C864.221 212.586 864.101 214.927 864.147 217.243C864.15 217.343 864.07 217.427 863.969 217.429H863.967Z" fill="black"/>
<path d="M866.642 213.44C866.549 213.44 866.469 213.368 866.461 213.273C866.377 212.301 866.428 211.323 866.614 210.364C866.634 210.265 866.733 210.202 866.828 210.22C866.926 210.239 866.991 210.334 866.971 210.433C866.791 211.359 866.742 212.305 866.823 213.243C866.831 213.343 866.758 213.431 866.658 213.439C866.653 213.439 866.647 213.44 866.642 213.44Z" fill="black"/>
<path d="M949.781 252.855C949.772 252.855 949.764 252.854 949.755 252.854C949.655 252.84 949.586 252.748 949.601 252.649C949.838 250.99 949.961 249.301 949.968 247.627C949.968 247.527 950.049 247.447 950.149 247.447C950.25 247.447 950.332 247.529 950.332 247.63C950.325 249.319 950.201 251.026 949.961 252.701C949.947 252.79 949.87 252.855 949.781 252.855Z" fill="black"/>
<g opacity="0.13">
<path d="M923.029 185.689L890.177 186.189L888.294 182.147L924.082 181.917L923.029 185.689Z" fill="black"/>
</g>
<path d="M841.875 952.478C852.555 968.867 863.764 984.887 875.467 1000.49C859.787 1009.12 836.304 1023.14 819.858 1032.19C811.486 1014.74 803.104 997.275 794.563 979.805C810.66 971.996 826.223 963.126 841.875 952.478Z" fill="#ACD4F7"/>
<path d="M875.765 1001.01C875.762 1001.01 875.758 1001.01 875.754 1001.01C868.012 1005.27 858.142 1010.98 848.596 1016.5C838.701 1022.22 828.47 1028.13 820.145 1032.71C820.002 1032.79 819.833 1032.81 819.676 1032.76C819.521 1032.71 819.392 1032.6 819.321 1032.45C811.15 1015.42 802.701 997.808 794.028 980.068C793.959 979.926 793.948 979.763 793.999 979.612C794.051 979.463 794.16 979.338 794.302 979.271C811.032 971.154 826.482 962.229 841.539 951.987C841.669 951.897 841.834 951.864 841.992 951.895C842.148 951.927 842.286 952.021 842.373 952.154C853.005 968.469 864.3 984.612 875.943 1000.14C876.047 1000.27 876.085 1000.45 876.049 1000.62C876.015 1000.78 875.911 1000.92 875.765 1001.01ZM853.258 1012.43C860.847 1008.05 868.359 1003.73 874.581 1000.3C863.188 985.087 852.132 969.282 841.708 953.312C826.924 963.333 811.751 972.098 795.361 980.08C803.848 997.446 812.119 1014.68 820.123 1031.36C828.335 1026.84 838.327 1021.06 848 1015.47C849.746 1014.46 851.504 1013.44 853.258 1012.43Z" fill="black"/>
<path d="M815.146 978.418C813.841 977.484 811.964 977.429 810.615 978.287C809.267 979.144 808.531 980.858 808.84 982.426C809.032 983.393 809.621 984.31 810.505 984.759C811.302 985.163 812.257 985.157 813.12 984.933C814.336 984.618 815.464 983.845 816.015 982.723C816.566 981.599 816.895 979.668 815.146 978.418Z" fill="white"/>
<path d="M814.657 984.942C814.232 985.187 813.764 985.381 813.269 985.508C812.161 985.797 811.084 985.719 810.237 985.288C809.236 984.78 808.495 983.754 808.255 982.54C807.898 980.729 808.737 978.773 810.295 977.783C811.852 976.806 813.987 976.857 815.493 977.933C817.425 979.315 817.269 981.518 816.549 982.984C816.159 983.78 815.49 984.461 814.657 984.942ZM811.044 978.721C811.006 978.743 810.97 978.766 810.934 978.788C809.8 979.509 809.165 980.99 809.424 982.309C809.59 983.153 810.108 983.888 810.775 984.226C811.363 984.524 812.143 984.57 812.97 984.355C814.102 984.061 815.041 983.352 815.48 982.458C815.743 981.925 816.468 980.093 814.8 978.9C813.732 978.138 812.174 978.069 811.044 978.721Z" fill="black"/>
<path d="M838.502 965.572C837.197 964.639 835.319 964.584 833.97 965.442C832.622 966.298 831.886 968.013 832.196 969.581C832.388 970.548 832.977 971.465 833.861 971.914C834.657 972.318 835.613 972.312 836.476 972.088C837.692 971.772 838.82 971 839.371 969.878C839.922 968.755 840.251 966.823 838.502 965.572Z" fill="white"/>
<path d="M838.013 972.097C837.587 972.342 837.119 972.535 836.625 972.663C835.515 972.951 834.438 972.873 833.592 972.443C832.592 971.935 831.85 970.907 831.612 969.694C831.255 967.883 832.094 965.928 833.652 964.937C835.202 963.952 837.344 964.011 838.85 965.087C840.782 966.469 840.626 968.672 839.906 970.138C839.514 970.935 838.845 971.616 838.013 972.097ZM834.4 965.876C834.362 965.898 834.326 965.92 834.29 965.943C833.155 966.664 832.52 968.145 832.781 969.463C832.947 970.308 833.465 971.042 834.131 971.381C834.719 971.679 835.498 971.724 836.326 971.51C837.458 971.215 838.397 970.507 838.835 969.613C839.098 969.08 839.822 967.248 838.155 966.056C837.088 965.293 835.529 965.224 834.4 965.876Z" fill="black"/>
<path d="M835.83 968.843C835.813 968.853 835.796 968.861 835.778 968.87C835.48 969.006 835.127 968.873 834.99 968.574C833.005 964.205 830.009 960.272 826.327 957.198C824.382 955.576 822.789 954.69 821.163 954.33C819.509 953.963 817.615 954.126 815.534 954.817C813.303 955.558 811.434 956.719 810.134 958.172C807.715 960.876 806.808 965.135 807.706 969.563C808.533 973.637 810.613 977.352 812.623 980.943C812.783 981.228 812.682 981.587 812.401 981.749C812.398 981.751 812.396 981.752 812.394 981.753C812.106 981.913 811.744 981.812 811.584 981.524C809.529 977.853 807.403 974.056 806.538 969.8C805.565 965.004 806.577 960.36 809.245 957.378C810.685 955.769 812.729 954.494 815.157 953.687C817.444 952.928 819.55 952.753 821.419 953.167C823.754 953.685 825.676 955.105 827.089 956.283C830.908 959.471 834.014 963.55 836.073 968.081C836.203 968.363 836.093 968.691 835.83 968.843Z" fill="black"/>
<path d="M822.026 1027.82C822.023 1027.83 822.02 1027.83 822.017 1027.83C821.918 1027.88 821.799 1027.84 821.75 1027.74C817.647 1019.55 813.629 1011.17 809.803 1002.85C809.758 1002.75 809.8 1002.63 809.9 1002.58C809.999 1002.54 810.118 1002.58 810.164 1002.68C813.988 1011 818.004 1019.38 822.104 1027.56C822.152 1027.66 822.117 1027.77 822.026 1027.82Z" fill="black"/>
<path d="M825.405 1024.22C825.309 1024.28 825.187 1024.25 825.134 1024.15L821.841 1018.37C821.787 1018.27 821.82 1018.15 821.914 1018.1C822.009 1018.04 822.131 1018.07 822.185 1018.17L825.478 1023.96C825.533 1024.05 825.499 1024.17 825.405 1024.22Z" fill="black"/>
<path d="M1112.46 85.4703C1109.59 83.8118 1108.95 79.8923 1109.31 76.9204C1110.32 68.3942 1117.31 60.7639 1126.68 57.9326C1134.31 55.6302 1143.46 56.286 1153.15 59.8296C1156.95 61.2208 1161.7 63.3348 1164.72 67.3663C1167.23 70.7227 1168.57 76.4654 1164.8 82.5158C1164.69 82.695 1164.48 82.7801 1164.27 82.7235C1164.07 82.6678 1163.92 82.4841 1163.92 82.2728C1163.81 76.7882 1159.92 71.6464 1154.67 70.0438C1149.4 68.4357 1143.18 70.0651 1136.17 74.8887C1134.76 75.8575 1133.36 76.9065 1132 77.9212C1127.97 80.9231 1123.81 84.0267 1118.95 85.5938C1116.48 86.389 1114.52 86.4287 1112.94 85.715C1112.78 85.6401 1112.62 85.5583 1112.46 85.4703ZM1158.52 63.3007C1156.6 62.1957 1154.6 61.3798 1152.82 60.7256C1143.33 57.2539 1134.39 56.6043 1126.96 58.8461C1117.94 61.5689 1111.23 68.8773 1110.26 77.0329C1109.92 79.8416 1110.52 83.5726 1113.33 84.8439C1114.69 85.4554 1116.43 85.4035 1118.65 84.6842C1123.36 83.1649 1127.46 80.1099 1131.42 77.1548C1132.79 76.1352 1134.21 75.0799 1135.63 74.1013C1142.89 69.1047 1149.39 67.4322 1154.95 69.13C1160.07 70.6941 1163.99 75.4003 1164.75 80.6674C1167.31 75.533 1166.09 70.7951 1163.95 67.9392C1162.48 65.968 1160.55 64.4717 1158.52 63.3007Z" fill="black"/>
<path d="M1170.6 111.262C1177.17 97.6082 1173.81 90.9529 1163.47 84.6627C1152.51 78.0007 1143.66 75.2327 1122.19 106.321C1116.02 115.249 1110.63 125.325 1104.46 134.344C1117.83 142.471 1130.84 150.267 1143.24 157.802C1153.62 143.074 1162.78 127.507 1170.6 111.262ZM1157.22 101.002C1155.14 100.881 1153.17 99.704 1151.85 98.076C1151.39 97.4969 1150.99 96.8472 1150.82 96.1368C1150.66 95.4719 1150.71 94.78 1150.88 94.1285C1151.39 92.0784 1153.1 90.4007 1155.19 89.8865C1157.28 89.3717 1159.68 90.0394 1161.25 91.5748C1163.4 93.6707 1163.2 96.4355 1162.3 98.2767C1161.41 100.082 1159.3 101.124 1157.22 101.002Z" fill="white"/>
<path d="M1143 158.216C1143 158.214 1142.99 158.213 1142.99 158.211C1136.9 154.508 1130.78 150.816 1124.31 146.906C1117.77 142.963 1111.02 138.886 1104.22 134.752C1104.1 134.684 1104.03 134.573 1104 134.445C1103.97 134.317 1104 134.183 1104.07 134.075C1107.09 129.66 1109.97 124.909 1112.76 120.316C1115.65 115.543 1118.65 110.609 1121.79 106.05C1143.19 75.066 1152.28 77.3025 1163.72 84.2548C1173.47 90.1826 1178.09 96.8028 1171.03 111.469C1163.25 127.642 1154.03 143.323 1143.63 158.077C1143.49 158.281 1143.21 158.339 1143 158.216ZM1105.14 134.198C1111.8 138.241 1118.4 142.23 1124.8 146.089C1131.14 149.917 1137.14 153.537 1143.1 157.163C1153.37 142.559 1162.48 127.047 1170.17 111.056C1176.95 96.9769 1172.75 90.8673 1163.22 85.0712C1157.99 81.8861 1153.15 79.4434 1146.94 81.7826C1140.28 84.2925 1132.54 92.1768 1122.58 106.593C1119.45 111.128 1116.46 116.051 1113.57 120.811C1110.87 125.272 1108.07 129.88 1105.14 134.198ZM1153.91 100.459C1153 99.9347 1152.17 99.2275 1151.48 98.3749C1150.89 97.6404 1150.52 96.9441 1150.36 96.2469C1150.19 95.562 1150.21 94.8109 1150.41 94.012C1150.97 91.7822 1152.8 89.9817 1155.07 89.4217C1157.33 88.8659 1159.89 89.5771 1161.58 91.2318C1163.92 93.511 1163.71 96.4729 1162.72 98.4856C1161.78 100.414 1159.56 101.617 1157.19 101.479C1156.07 101.414 1154.94 101.054 1153.91 100.459ZM1159.74 91.0247C1158.4 90.2517 1156.78 89.9867 1155.3 90.3489C1153.37 90.8248 1151.81 92.3542 1151.34 94.2441C1151.18 94.8924 1151.16 95.4917 1151.29 96.0258C1151.42 96.5817 1151.73 97.1538 1152.23 97.7757C1153.53 99.39 1155.4 100.418 1157.25 100.526C1159.2 100.639 1161.1 99.6289 1161.87 98.0667C1162.7 96.3539 1162.89 93.8389 1160.92 91.9159C1160.56 91.5706 1160.17 91.2717 1159.74 91.0247Z" fill="black"/>
<path d="M1125.37 131.658C1125.3 131.616 1125.24 131.552 1125.19 131.472C1125.07 131.24 1125.15 130.951 1125.39 130.825L1151.81 116.515C1152.04 116.389 1152.33 116.476 1152.46 116.708C1152.58 116.94 1152.49 117.229 1152.26 117.355L1125.84 131.665C1125.69 131.747 1125.51 131.739 1125.37 131.658Z" fill="black"/>
<path d="M1136.53 117.6C1135.77 117.163 1135.25 116.509 1135 115.693C1134.66 114.546 1134.91 113.122 1135.67 111.884C1136.23 110.965 1138.22 108.006 1140.39 108.511C1141.62 108.799 1142.47 109.507 1142.84 110.559C1143.5 112.456 1142.42 114.958 1141.69 115.875C1141.03 116.711 1139.27 118.93 1136.79 117.738C1136.7 117.695 1136.61 117.649 1136.53 117.6ZM1141.01 109.762C1140.77 109.623 1140.49 109.517 1140.17 109.441C1138.86 109.134 1137.24 111.144 1136.48 112.381C1135.86 113.393 1135.65 114.529 1135.92 115.422C1136.11 116.072 1136.54 116.562 1137.2 116.877C1138.78 117.635 1139.93 116.557 1140.94 115.282C1141.53 114.532 1142.47 112.402 1141.93 110.874C1141.76 110.387 1141.46 110.019 1141.01 109.762Z" fill="black"/>
<path d="M1136.81 139.212C1136.06 138.775 1135.53 138.121 1135.29 137.305C1134.95 136.158 1135.2 134.734 1135.95 133.495C1136.52 132.577 1138.51 129.617 1140.67 130.122C1141.91 130.412 1142.76 131.12 1143.12 132.17C1143.79 134.067 1142.7 136.568 1141.98 137.486C1141.32 138.322 1139.56 140.541 1137.08 139.35C1136.99 139.307 1136.9 139.261 1136.81 139.212ZM1141.3 131.374C1141.06 131.235 1140.78 131.129 1140.46 131.053C1139.15 130.748 1137.53 132.758 1136.77 133.994C1136.16 135.005 1135.95 136.142 1136.21 137.035C1136.4 137.685 1136.83 138.174 1137.49 138.49C1139.07 139.248 1140.22 138.171 1141.23 136.894C1141.82 136.145 1142.76 134.015 1142.22 132.486C1142.05 131.999 1141.75 131.631 1141.3 131.374Z" fill="black"/>
<path d="M1167.48 79.3127C1166.65 78.2581 1165.03 77.9243 1163.84 78.5629C1163.18 78.9181 1162.69 79.5104 1162.23 80.103C1160.18 82.7518 1158.49 85.6736 1157.2 88.7671C1156.78 89.7786 1156.4 90.8349 1156.39 91.9307C1156.38 93.0265 1156.81 94.18 1157.72 94.7894C1157.99 94.966 1158.3 95.0946 1158.62 95.0675C1158.88 95.0444 1159.13 94.9131 1159.35 94.7708C1160.79 93.8707 1161.83 92.4676 1162.84 91.0991C1165.45 87.5334 1168.18 83.6208 1167.48 79.3127Z" fill="#ACD4F7"/>
<path d="M1157.6 95.2744C1157.55 95.2464 1157.5 95.2167 1157.46 95.1847C1156.49 94.5409 1155.9 93.2926 1155.91 91.9267C1155.92 90.6997 1156.35 89.5573 1156.76 88.5834C1158.06 85.448 1159.78 82.4972 1161.86 79.8111C1162.34 79.1868 1162.87 78.5446 1163.61 78.1434C1165.01 77.3915 1166.87 77.7761 1167.86 79.0167C1167.91 79.0807 1167.94 79.1561 1167.95 79.2366C1168.71 83.8977 1165.67 88.0464 1163.22 91.3817C1162.25 92.7093 1161.14 94.2143 1159.61 95.1758C1159.35 95.3397 1159.03 95.5102 1158.66 95.5436C1158.32 95.572 1157.96 95.4794 1157.6 95.2744ZM1166.46 79.059C1165.74 78.6435 1164.8 78.5887 1164.07 78.9824C1163.49 79.2958 1163.03 79.8512 1162.61 80.3944C1160.58 83.0142 1158.91 85.8918 1157.64 88.9499C1157.27 89.8412 1156.87 90.8792 1156.87 91.933C1156.86 92.9818 1157.29 93.9238 1157.99 94.3909C1158.14 94.4937 1158.36 94.6093 1158.58 94.5901C1158.74 94.5756 1158.93 94.4729 1159.1 94.3641C1160.48 93.4999 1161.48 92.1349 1162.45 90.8148C1165.29 86.939 1167.6 83.4109 1167.03 79.5168C1166.87 79.335 1166.67 79.1815 1166.46 79.059Z" fill="black"/>
<path d="M1141.38 154.315C1141.38 154.313 1141.38 154.31 1141.37 154.308C1141.3 154.257 1141.28 154.158 1141.33 154.086L1145.54 148.023C1145.59 147.951 1145.69 147.933 1145.76 147.983C1145.84 148.033 1145.85 148.133 1145.8 148.205L1141.59 154.268C1141.55 154.336 1141.45 154.356 1141.38 154.315Z" fill="black"/>
<path d="M1139.3 152.376L1139.29 152.375C1139.22 152.329 1139.19 152.232 1139.24 152.157L1140.86 149.464C1140.91 149.389 1141 149.374 1141.08 149.41C1141.16 149.456 1141.18 149.553 1141.13 149.628L1139.51 152.321C1139.47 152.394 1139.37 152.419 1139.3 152.376Z" fill="black"/>
<path d="M1108.92 133.591C1108.85 133.549 1108.82 133.454 1108.86 133.378C1110.26 130.758 1111.79 128.162 1113.4 125.663C1113.44 125.588 1113.54 125.566 1113.62 125.615C1113.69 125.663 1113.71 125.762 1113.66 125.835C1112.06 128.327 1110.54 130.916 1109.14 133.529C1109.1 133.606 1109 133.635 1108.93 133.594C1108.93 133.594 1108.92 133.592 1108.92 133.591Z" fill="black"/>
<g opacity="0.1294">
<path d="M1161.38 93.1674C1161.33 92.3258 1160.27 91.8803 1159.59 92.3588C1159.5 92.4018 1159.42 92.4405 1159.36 92.466C1159.25 92.4987 1159.13 92.5242 1159.06 92.5393C1158.98 92.5203 1158.9 92.4986 1158.82 92.4724C1158.81 92.4654 1158.8 92.4572 1158.79 92.4493C1158.69 92.3683 1158.6 92.2804 1158.52 92.1851C1158.46 92.0897 1158.41 91.9909 1158.36 91.8902C1158.33 91.7831 1158.3 91.6735 1158.28 91.5636C1158.28 91.4921 1158.27 91.421 1158.27 91.3492C1158.27 91.0407 1158.15 90.733 1157.94 90.5091C1157.25 89.7339 1155.86 90.2792 1155.88 91.3171C1155.83 93.8108 1157.78 95.0261 1158.98 94.7901C1159.92 94.7337 1161.52 94.3924 1161.38 93.1674Z" fill="black"/>
</g>
<g opacity="0.1294">
<path d="M1143.83 154.868C1142.97 154.327 1142.1 153.808 1141.3 153.187C1133.24 146.982 1124.34 142.053 1115.54 137.014C1113.7 135.932 1111.8 134.961 1110 133.801C1109.54 133.495 1109.06 133.198 1108.62 132.856C1108.38 132.641 1108.16 132.395 1107.85 132.292C1106.41 131.605 1105.05 133.542 1106.18 134.692C1108.2 136.443 1110.61 137.675 1112.93 138.981C1116.21 140.853 1119.53 142.633 1122.8 144.508C1128.95 147.948 1134.74 151.989 1140.48 156.061C1141.83 156.938 1142.73 158.066 1143.92 157.242C1144.75 156.713 1144.68 155.346 1143.83 154.868Z" fill="black"/>
</g>
</g>
<circle opacity="0.8" cx="5.93177" cy="145.068" r="345.129" transform="rotate(-75 5.93177 145.068)" stroke="#F6F9FF" stroke-width="100"/>
<circle opacity="0.9" cx="284.932" cy="-134.068" r="345.129" transform="rotate(-75 284.932 -134.068)" stroke="#F7F9FF" stroke-width="100"/>
<rect x="1260" width="660" height="1080" fill="#213B85"/>
<circle opacity="0.03" cx="1756.99" cy="960.985" r="225.988" transform="rotate(-75 1756.99 960.985)" stroke="#F6F9FF" stroke-width="100"/>
<circle opacity="0.03" cx="1951.87" cy="766.015" r="225.988" transform="rotate(-75 1951.87 766.015)" stroke="#F7F9FF" stroke-width="100"/>
<g filter="url(#filter0_f_0_4)">
<circle cx="1501.02" cy="202.015" r="116.935" transform="rotate(-75 1501.02 202.015)" fill="#5C89E2"/>
</g>
</g>
<defs>
<filter id="filter0_f_0_4" x="1184.05" y="-114.949" width="633.928" height="633.928" filterUnits="userSpaceOnUse" color-interpolation-filters="sRGB">
<feFlood flood-opacity="0" result="BackgroundImageFix"/>
<feBlend mode="normal" in="SourceGraphic" in2="BackgroundImageFix" result="shape"/>
<feGaussianBlur stdDeviation="100" result="effect1_foregroundBlur_0_4"/>
</filter>
<clipPath id="clip0_0_4">
<rect width="1920" height="1080" fill="white"/>
</clipPath>
</defs>
</svg>
