<svg width="260" height="79" viewBox="0 0 260 79" fill="none" xmlns="http://www.w3.org/2000/svg">
<path d="M19.221 22.4581L31.1929 39.7562C32.6642 41.8812 35.3388 42.8648 37.8417 42.1941L86.6933 29.1044C87.407 28.9131 88.1018 29.4666 88.0743 30.2056L87.9565 33.6468C87.9392 34.1277 87.6074 34.5421 87.1437 34.6664L45.554 45.8103C44.2403 46.1623 43.0365 46.8944 42.1966 47.9672C40.4792 50.1656 40.4686 53.1352 41.9792 55.2956L51.6444 69.1926C53.1191 71.3132 55.7872 72.2893 58.2826 71.6207L59.6274 71.2603C59.5718 68.2751 61.5491 65.5229 64.5629 64.7153C67.5724 63.9089 70.6514 65.2983 72.1011 67.9008L81.8476 65.2765C81.807 62.3046 83.7765 59.5659 86.7817 58.7606C89.7837 57.9563 92.8575 59.339 94.3106 61.9244L96.9326 61.2173C97.6656 61.0208 98.1875 60.3668 98.2216 59.6054L98.5616 51.4251C98.6103 50.2502 97.5034 49.3607 96.3656 49.6691L59.5966 59.5627C59.1523 59.6818 58.6755 59.5081 58.4104 59.1282L56.3311 56.1377C55.8972 55.5143 56.216 54.6478 56.949 54.4514L94.5311 44.3813C97.1585 43.6773 98.9869 41.3779 99.0859 38.6607L99.6675 22.1516C99.7332 20.2118 98.8698 18.3334 97.3506 17.1242C95.8291 15.9191 93.8061 15.4961 91.9311 15.9985L40.0496 29.9001C39.0729 30.1618 38.037 29.7814 37.461 28.9499L30.1038 18.3215C29.6826 17.7154 28.9273 17.4381 28.2135 17.6294L20.2025 19.7759C19.0378 20.0914 18.5335 21.4678 19.221 22.4581Z" fill="url(#paint0_linear_1_1737)"/>
<path d="M83.6316 66.4988C84.3525 69.1895 87.1192 70.7869 89.8099 70.0659C92.5006 69.3449 94.0979 66.5782 93.377 63.8875C92.656 61.1968 89.8893 59.5995 87.1986 60.3205C84.5082 61.0425 82.9106 63.8081 83.6316 66.4988Z" fill="url(#paint1_linear_1_1737)"/>
<path d="M67.5909 76.0194C70.282 75.2984 71.8791 72.5322 71.158 69.8411C70.4369 67.15 67.6707 65.5529 64.9796 66.274C62.2885 66.9951 60.6915 69.7612 61.4126 72.4524C62.1337 75.1435 64.8998 76.7405 67.5909 76.0194Z" fill="url(#paint2_linear_1_1737)"/>
<path d="M23.3877 75.6015H43.2695C44.325 75.6015 45.1806 74.7459 45.1806 73.6903C45.1806 72.6347 44.325 71.7791 43.2695 71.7791H23.3877C22.3321 71.7791 21.4766 72.6347 21.4766 73.6903C21.4777 74.7459 22.3321 75.6015 23.3877 75.6015Z" fill="url(#paint3_linear_1_1737)"/>
<path d="M9.59086 75.6015H16.8744C17.93 75.6015 18.7856 74.7459 18.7856 73.6903C18.7856 72.6347 17.93 71.7791 16.8744 71.7791H9.59086C8.53527 71.7791 7.67969 72.6347 7.67969 73.6903C7.67969 74.7459 8.53527 75.6015 9.59086 75.6015Z" fill="url(#paint4_linear_1_1737)"/>
<path d="M2.39164 75.6015H3.07722C4.13281 75.6015 4.98839 74.7459 4.98839 73.6903C4.98839 72.6347 4.13281 71.7791 3.07722 71.7791H2.39164C1.33605 71.7791 0.480469 72.6347 0.480469 73.6903C0.480469 74.7459 1.33605 75.6015 2.39164 75.6015Z" fill="url(#paint5_linear_1_1737)"/>
<path d="M30.9236 69.328H35.7638C36.8193 69.328 37.6749 68.4724 37.6749 67.4168C37.6749 66.3612 36.8193 65.5056 35.7638 65.5056H30.9236C29.868 65.5056 29.0125 66.3612 29.0125 67.4168C29.0125 68.4724 29.868 69.328 30.9236 69.328Z" fill="url(#paint6_linear_1_1737)"/>
<path d="M9.92631 69.328H24.3945C25.4501 69.328 26.3057 68.4724 26.3057 67.4168C26.3057 66.3612 25.4501 65.5056 24.3945 65.5056H9.92631C8.87072 65.5056 8.01514 66.3612 8.01514 67.4168C8.01625 68.4724 8.87183 69.328 9.92631 69.328Z" fill="url(#paint7_linear_1_1737)"/>
<path d="M122.559 26.0998V28.3998H127.059V31.3798H122.559V33.9198H127.659V37.0598H118.639V22.9598H127.659V26.0998H122.559ZM138.256 28.4998V31.7598H129.196V28.4998H138.256Z" fill="#213B85"/>
<path d="M140.679 29.9798C140.679 28.5932 140.965 27.3598 141.539 26.2798C142.125 25.1865 142.952 24.3398 144.019 23.7398C145.085 23.1265 146.312 22.8198 147.699 22.8198C149.459 22.8198 150.939 23.2932 152.139 24.2398C153.339 25.1732 154.112 26.4465 154.459 28.0598H150.239C149.985 27.5265 149.632 27.1198 149.179 26.8398C148.739 26.5598 148.225 26.4198 147.639 26.4198C146.732 26.4198 146.005 26.7465 145.459 27.3998C144.925 28.0398 144.659 28.8998 144.659 29.9798C144.659 31.0732 144.925 31.9465 145.459 32.5998C146.005 33.2398 146.732 33.5598 147.639 33.5598C148.225 33.5598 148.739 33.4198 149.179 33.1398C149.632 32.8598 149.985 32.4532 150.239 31.9198H154.459C154.112 33.5332 153.339 34.8132 152.139 35.7598C150.939 36.6932 149.459 37.1598 147.699 37.1598C146.312 37.1598 145.085 36.8598 144.019 36.2598C142.952 35.6465 142.125 34.7998 141.539 33.7198C140.965 32.6265 140.679 31.3798 140.679 29.9798ZM163.075 37.1998C161.755 37.1998 160.542 36.8932 159.435 36.2798C158.328 35.6532 157.448 34.7932 156.795 33.6998C156.155 32.5932 155.835 31.3465 155.835 29.9598C155.835 28.5732 156.155 27.3332 156.795 26.2398C157.448 25.1332 158.328 24.2732 159.435 23.6598C160.542 23.0465 161.755 22.7398 163.075 22.7398C164.408 22.7398 165.622 23.0465 166.715 23.6598C167.822 24.2732 168.695 25.1332 169.335 26.2398C169.975 27.3332 170.295 28.5732 170.295 29.9598C170.295 31.3465 169.975 32.5932 169.335 33.6998C168.695 34.7932 167.822 35.6532 166.715 36.2798C165.608 36.8932 164.395 37.1998 163.075 37.1998ZM163.075 33.5598C164.075 33.5598 164.862 33.2332 165.435 32.5798C166.022 31.9265 166.315 31.0532 166.315 29.9598C166.315 28.8398 166.022 27.9598 165.435 27.3198C164.862 26.6665 164.075 26.3398 163.075 26.3398C162.062 26.3398 161.268 26.6665 160.695 27.3198C160.122 27.9598 159.835 28.8398 159.835 29.9598C159.835 31.0665 160.122 31.9465 160.695 32.5998C161.268 33.2398 162.062 33.5598 163.075 33.5598ZM188.517 22.9598V37.0598H184.597V29.2798L181.937 37.0598H178.657L175.977 29.2198V37.0598H172.057V22.9598H176.797L180.337 32.1198L183.797 22.9598H188.517ZM207.209 22.9598V37.0598H203.289V29.2798L200.629 37.0598H197.349L194.669 29.2198V37.0598H190.749V22.9598H195.489L199.029 32.1198L202.489 22.9598H207.209ZM213.36 26.0998V28.3998H217.86V31.3798H213.36V33.9198H218.46V37.0598H209.44V22.9598H218.46V26.0998H213.36ZM227.537 37.0598L224.737 31.8598H224.317V37.0598H220.397V22.9598H226.577C227.71 22.9598 228.67 23.1598 229.457 23.5598C230.244 23.9465 230.837 24.4865 231.237 25.1798C231.637 25.8598 231.837 26.6265 231.837 27.4798C231.837 28.4398 231.57 29.2865 231.037 30.0198C230.517 30.7398 229.75 31.2532 228.737 31.5598L231.917 37.0598H227.537ZM224.317 29.1798H226.257C226.79 29.1798 227.19 29.0532 227.457 28.7998C227.724 28.5465 227.857 28.1798 227.857 27.6998C227.857 27.2465 227.717 26.8932 227.437 26.6398C227.17 26.3732 226.777 26.2398 226.257 26.2398H224.317V29.1798ZM233.14 29.9798C233.14 28.5932 233.426 27.3598 234 26.2798C234.586 25.1865 235.413 24.3398 236.48 23.7398C237.546 23.1265 238.773 22.8198 240.16 22.8198C241.92 22.8198 243.4 23.2932 244.6 24.2398C245.8 25.1732 246.573 26.4465 246.92 28.0598H242.7C242.446 27.5265 242.093 27.1198 241.64 26.8398C241.2 26.5598 240.686 26.4198 240.1 26.4198C239.193 26.4198 238.466 26.7465 237.92 27.3998C237.386 28.0398 237.12 28.8998 237.12 29.9798C237.12 31.0732 237.386 31.9465 237.92 32.5998C238.466 33.2398 239.193 33.5598 240.1 33.5598C240.686 33.5598 241.2 33.4198 241.64 33.1398C242.093 32.8598 242.446 32.4532 242.7 31.9198H246.92C246.573 33.5332 245.8 34.8132 244.6 35.7598C243.4 36.6932 241.92 37.1598 240.16 37.1598C238.773 37.1598 237.546 36.8598 236.48 36.2598C235.413 35.6465 234.586 34.7998 234 33.7198C233.426 32.6265 233.14 31.3798 233.14 29.9798ZM252.696 26.0998V28.3998H257.196V31.3798H252.696V33.9198H257.796V37.0598H248.776V22.9598H257.796V26.0998H252.696Z" fill="#CE5C1C"/>
<path d="M147.099 53.7638C147.571 53.8518 147.959 54.0878 148.263 54.4718C148.567 54.8558 148.719 55.2958 148.719 55.7918C148.719 56.2398 148.607 56.6358 148.383 56.9798C148.167 57.3158 147.851 57.5798 147.435 57.7718C147.019 57.9638 146.527 58.0598 145.959 58.0598H142.347V49.6838H145.803C146.371 49.6838 146.859 49.7758 147.267 49.9598C147.683 50.1438 147.995 50.3998 148.203 50.7278C148.419 51.0558 148.527 51.4278 148.527 51.8438C148.527 52.3318 148.395 52.7398 148.131 53.0678C147.875 53.3958 147.531 53.6278 147.099 53.7638ZM144.027 53.1398H145.563C145.963 53.1398 146.271 53.0518 146.487 52.8758C146.703 52.6918 146.811 52.4318 146.811 52.0958C146.811 51.7598 146.703 51.4998 146.487 51.3158C146.271 51.1318 145.963 51.0398 145.563 51.0398H144.027V53.1398ZM145.719 56.6918C146.127 56.6918 146.443 56.5958 146.667 56.4038C146.899 56.2118 147.015 55.9398 147.015 55.5878C147.015 55.2278 146.895 54.9478 146.655 54.7478C146.415 54.5398 146.091 54.4358 145.683 54.4358H144.027V56.6918H145.719ZM154.378 58.0598L152.53 54.7958H151.738V58.0598H150.058V49.6838H153.202C153.85 49.6838 154.402 49.7998 154.858 50.0318C155.314 50.2558 155.654 50.5638 155.878 50.9558C156.11 51.3398 156.226 51.7718 156.226 52.2518C156.226 52.8038 156.066 53.3038 155.746 53.7518C155.426 54.1918 154.95 54.4958 154.318 54.6638L156.322 58.0598H154.378ZM151.738 53.5358H153.142C153.598 53.5358 153.938 53.4278 154.162 53.2118C154.386 52.9878 154.498 52.6798 154.498 52.2878C154.498 51.9038 154.386 51.6078 154.162 51.3998C153.938 51.1838 153.598 51.0758 153.142 51.0758H151.738V53.5358ZM162.882 56.4638H159.546L158.994 58.0598H157.23L160.242 49.6718H162.198L165.21 58.0598H163.434L162.882 56.4638ZM162.426 55.1198L161.214 51.6158L160.002 55.1198H162.426ZM173.5 58.0598H171.82L168.016 52.3118V58.0598H166.336V49.6718H168.016L171.82 55.4318V49.6718H173.5V58.0598ZM178.088 49.6838C178.968 49.6838 179.74 49.8558 180.404 50.1998C181.076 50.5438 181.592 51.0358 181.952 51.6758C182.32 52.3078 182.504 53.0438 182.504 53.8838C182.504 54.7238 182.32 55.4598 181.952 56.0918C181.592 56.7158 181.076 57.1998 180.404 57.5438C179.74 57.8878 178.968 58.0598 178.088 58.0598H175.16V49.6838H178.088ZM178.028 56.6318C178.908 56.6318 179.588 56.3918 180.068 55.9118C180.548 55.4318 180.788 54.7558 180.788 53.8838C180.788 53.0118 180.548 52.3318 180.068 51.8438C179.588 51.3478 178.908 51.0998 178.028 51.0998H176.84V56.6318H178.028ZM192.321 49.6838V51.0398H190.089V58.0598H188.409V51.0398H186.177V49.6838H192.321ZM198.683 56.4638H195.347L194.795 58.0598H193.031L196.043 49.6718H197.999L201.011 58.0598H199.235L198.683 56.4638ZM198.227 55.1198L197.015 51.6158L195.803 55.1198H198.227ZM207.968 52.2038C207.776 51.8518 207.512 51.5838 207.176 51.3998C206.84 51.2158 206.448 51.1238 206 51.1238C205.504 51.1238 205.064 51.2358 204.68 51.4598C204.296 51.6838 203.996 52.0038 203.78 52.4198C203.564 52.8358 203.456 53.3158 203.456 53.8598C203.456 54.4198 203.564 54.9078 203.78 55.3238C204.004 55.7398 204.312 56.0598 204.704 56.2838C205.096 56.5078 205.552 56.6198 206.072 56.6198C206.712 56.6198 207.236 56.4518 207.644 56.1158C208.052 55.7718 208.32 55.2958 208.448 54.6878H205.568V53.4038H210.104V54.8678C209.992 55.4518 209.752 55.9918 209.384 56.4878C209.016 56.9838 208.54 57.3838 207.956 57.6878C207.38 57.9838 206.732 58.1318 206.012 58.1318C205.204 58.1318 204.472 57.9518 203.816 57.5918C203.168 57.2238 202.656 56.7158 202.28 56.0678C201.912 55.4198 201.728 54.6838 201.728 53.8598C201.728 53.0358 201.912 52.2998 202.28 51.6518C202.656 50.9958 203.168 50.4878 203.816 50.1278C204.472 49.7598 205.2 49.5758 206 49.5758C206.944 49.5758 207.764 49.8078 208.46 50.2718C209.156 50.7278 209.636 51.3718 209.9 52.2038H207.968ZM213.027 56.7278H215.787V58.0598H211.347V49.6838H213.027V56.7278ZM218.535 49.6838V58.0598H216.855V49.6838H218.535ZM227.359 58.0598H225.679L221.875 52.3118V58.0598H220.195V49.6718H221.875L225.679 55.4318V49.6718H227.359V58.0598ZM230.699 51.0398V53.1398H233.519V54.4718H230.699V56.6918H233.879V58.0598H229.019V49.6718H233.879V51.0398H230.699Z" fill="#213B85"/>
<defs>
<linearGradient id="paint0_linear_1_1737" x1="71.6841" y1="67.6748" x2="55.9253" y2="8.86192" gradientUnits="userSpaceOnUse">
<stop stop-color="#15258F"/>
<stop offset="1" stop-color="#2E4DA3"/>
</linearGradient>
<linearGradient id="paint1_linear_1_1737" x1="89.7063" y1="69.6792" x2="87.3566" y2="60.91" gradientUnits="userSpaceOnUse">
<stop stop-color="#CE5B23"/>
<stop offset="1" stop-color="#DE7D39"/>
</linearGradient>
<linearGradient id="paint2_linear_1_1737" x1="67.4869" y1="75.6328" x2="65.1372" y2="66.8637" gradientUnits="userSpaceOnUse">
<stop stop-color="#CE5B23"/>
<stop offset="1" stop-color="#DE7D39"/>
</linearGradient>
<linearGradient id="paint3_linear_1_1737" x1="33.3288" y1="83.2765" x2="33.3288" y2="29.5522" gradientUnits="userSpaceOnUse">
<stop stop-color="#CE5B23"/>
<stop offset="1" stop-color="#DE7D39"/>
</linearGradient>
<linearGradient id="paint4_linear_1_1737" x1="13.2324" y1="83.2765" x2="13.2324" y2="29.5522" gradientUnits="userSpaceOnUse">
<stop stop-color="#CE5B23"/>
<stop offset="1" stop-color="#DE7D39"/>
</linearGradient>
<linearGradient id="paint5_linear_1_1737" x1="2.73399" y1="83.2765" x2="2.73399" y2="29.5522" gradientUnits="userSpaceOnUse">
<stop stop-color="#CE5B23"/>
<stop offset="1" stop-color="#DE7D39"/>
</linearGradient>
<linearGradient id="paint6_linear_1_1737" x1="33.3435" y1="82.735" x2="33.3435" y2="29.0108" gradientUnits="userSpaceOnUse">
<stop stop-color="#CE5B23"/>
<stop offset="1" stop-color="#DE7D39"/>
</linearGradient>
<linearGradient id="paint7_linear_1_1737" x1="17.1609" y1="82.735" x2="17.1609" y2="29.0108" gradientUnits="userSpaceOnUse">
<stop stop-color="#CE5B23"/>
<stop offset="1" stop-color="#DE7D39"/>
</linearGradient>
</defs>
</svg>
