<svg width="304" height="43" viewBox="0 0 304 43" fill="none" xmlns="http://www.w3.org/2000/svg">
<path d="M10.1469 12.511L16.6291 21.877C17.4257 23.0276 18.8739 23.5601 20.2291 23.197L46.6796 16.1096C47.066 16.0061 47.4422 16.3058 47.4273 16.7059L47.3635 18.5691C47.3542 18.8295 47.1745 19.0539 46.9235 19.1212L24.4048 25.155C23.6935 25.3456 23.0417 25.742 22.587 26.3229C21.6571 27.5131 21.6513 29.121 22.4693 30.2908L27.7025 37.8152C28.5009 38.9635 29.9456 39.492 31.2967 39.1299L32.0248 38.9348C31.9947 37.3185 33.0653 35.8283 34.6971 35.3911C36.3266 34.9544 37.9937 35.7067 38.7787 37.1158L44.0559 35.6949C44.0339 34.0858 45.1003 32.6029 46.7274 32.1669C48.3528 31.7314 50.0172 32.4801 50.804 33.8799L52.2236 33.497C52.6205 33.3907 52.9031 33.0366 52.9215 32.6243L53.1056 28.1951C53.132 27.5589 52.5327 27.0774 51.9166 27.2443L32.0082 32.6012C31.7676 32.6657 31.5094 32.5716 31.3659 32.3659L30.24 30.7467C30.0051 30.4092 30.1777 29.94 30.5746 29.8337L50.9233 24.3813C52.3459 24.0001 53.3359 22.7551 53.3895 21.2839L53.7044 12.3451C53.74 11.2948 53.2725 10.2777 52.4499 9.62302C51.6261 8.97054 50.5308 8.74146 49.5156 9.01349L21.4245 16.5405C20.8957 16.6822 20.3348 16.4762 20.0229 16.026L16.0394 10.2713C15.8113 9.94313 15.4023 9.79298 15.0159 9.89653L10.6784 11.0588C10.0477 11.2296 9.77469 11.9748 10.1469 12.511Z" fill="url(#paint0_linear_1_5722)"/>
<path d="M45.0214 36.3568C45.4118 37.8136 46.9097 38.6785 48.3666 38.2881C49.8235 37.8978 50.6884 36.3998 50.298 34.9429C49.9076 33.486 48.4096 32.6211 46.9528 33.0115C45.496 33.4025 44.631 34.8999 45.0214 36.3568Z" fill="url(#paint1_linear_1_5722)"/>
<path d="M36.3368 41.5116C37.7939 41.1212 38.6586 39.6235 38.2682 38.1664C37.8778 36.7093 36.3801 35.8446 34.923 36.235C33.4659 36.6255 32.6012 38.1232 32.9916 39.5803C33.382 41.0374 34.8797 41.9021 36.3368 41.5116Z" fill="url(#paint2_linear_1_5722)"/>
<path d="M12.403 41.2853H23.1679C23.7394 41.2853 24.2026 40.822 24.2026 40.2505C24.2026 39.679 23.7394 39.2157 23.1679 39.2157H12.403C11.8314 39.2157 11.3682 39.679 11.3682 40.2505C11.3688 40.822 11.8314 41.2853 12.403 41.2853Z" fill="url(#paint3_linear_1_5722)"/>
<path d="M4.93275 41.2853H8.8764C9.44794 41.2853 9.91119 40.822 9.91119 40.2505C9.91119 39.679 9.44794 39.2157 8.8764 39.2157H4.93275C4.3612 39.2157 3.89795 39.679 3.89795 40.2505C3.89795 40.822 4.3612 41.2853 4.93275 41.2853Z" fill="url(#paint4_linear_1_5722)"/>
<path d="M1.0348 41.2853H1.406C1.97755 41.2853 2.4408 40.822 2.4408 40.2505C2.4408 39.679 1.97755 39.2157 1.406 39.2157H1.0348C0.463252 39.2157 0 39.679 0 40.2505C0 40.822 0.463252 41.2853 1.0348 41.2853Z" fill="url(#paint5_linear_1_5722)"/>
<path d="M16.483 37.8886H19.1037C19.6753 37.8886 20.1385 37.4253 20.1385 36.8538C20.1385 36.2822 19.6753 35.819 19.1037 35.819H16.483C15.9115 35.819 15.4482 36.2822 15.4482 36.8538C15.4482 37.4253 15.9115 37.8886 16.483 37.8886Z" fill="url(#paint6_linear_1_5722)"/>
<path d="M5.11439 37.8886H12.9482C13.5197 37.8886 13.9829 37.4253 13.9829 36.8538C13.9829 36.2822 13.5197 35.819 12.9482 35.819H5.11439C4.54284 35.819 4.07959 36.2822 4.07959 36.8538C4.08019 37.4253 4.54344 37.8886 5.11439 37.8886Z" fill="url(#paint7_linear_1_5722)"/>
<path d="M198.601 11.5036V13.7608H203.017V16.6854H198.601V19.1781H203.606V22.2597H194.754V8.42206H203.606V11.5036H198.601Z" fill="#CE5C1C"/>
<path d="M179.408 15.3115C179.408 13.9506 179.69 12.7402 180.252 11.6803C180.828 10.6074 181.639 9.77644 182.686 9.18761C183.733 8.58569 184.937 8.28473 186.298 8.28473C188.025 8.28473 189.477 8.74925 190.655 9.6783C191.833 10.5943 192.592 11.8439 192.932 13.4272H188.79C188.542 12.9038 188.195 12.5047 187.75 12.2299C187.318 11.9551 186.814 11.8177 186.239 11.8177C185.349 11.8177 184.636 12.1383 184.099 12.7795C183.576 13.4076 183.314 14.2516 183.314 15.3115C183.314 16.3845 183.576 17.2415 184.099 17.8827C184.636 18.5108 185.349 18.8249 186.239 18.8249C186.814 18.8249 187.318 18.6875 187.75 18.4127C188.195 18.1379 188.542 17.7388 188.79 17.2154H192.932C192.592 18.7987 191.833 20.0549 190.655 20.9839C189.477 21.8999 188.025 22.3579 186.298 22.3579C184.937 22.3579 183.733 22.0634 182.686 21.4746C181.639 20.8727 180.828 20.0418 180.252 18.9819C179.69 17.9089 179.408 16.6854 179.408 15.3115Z" fill="#CE5C1C"/>
<path d="M173.909 22.2597L171.161 17.1564H170.749V22.2597H166.902V8.42206H172.967C174.079 8.42206 175.021 8.61834 175.793 9.01089C176.565 9.39036 177.148 9.92031 177.54 10.6007C177.933 11.2681 178.129 12.0205 178.129 12.8579C178.129 13.8001 177.867 14.631 177.344 15.3507C176.834 16.0573 176.081 16.561 175.087 16.862L178.207 22.2597H173.909ZM170.749 14.5263H172.653C173.176 14.5263 173.569 14.402 173.83 14.1534C174.092 13.9048 174.223 13.5449 174.223 13.0738C174.223 12.6289 174.086 12.2822 173.811 12.0336C173.549 11.7719 173.163 11.641 172.653 11.641H170.749V14.5263Z" fill="#CE5C1C"/>
<path d="M159.996 11.5036V13.7608H164.413V16.6854H159.996V19.1781H165.002V22.2597H156.149V8.42206H165.002V11.5036H159.996Z" fill="#CE5C1C"/>
<path d="M153.96 8.42206V22.2597H150.113V14.6244L147.502 22.2597H144.283L141.653 14.5656V22.2597H137.806V8.42206H142.458L145.932 17.4116L149.328 8.42206H153.96Z" fill="#CE5C1C"/>
<path d="M135.616 8.42206V22.2597H131.769V14.6244L129.158 22.2597H125.939L123.309 14.5656V22.2597H119.462V8.42206H124.114L127.588 17.4116L130.983 8.42206H135.616Z" fill="#CE5C1C"/>
<path d="M110.647 22.3971C109.352 22.3971 108.161 22.0961 107.075 21.4942C105.989 20.8792 105.125 20.0352 104.484 18.9622C103.856 17.8761 103.542 16.6527 103.542 15.2918C103.542 13.9309 103.856 12.714 104.484 11.641C105.125 10.555 105.989 9.71097 107.075 9.10906C108.161 8.50714 109.352 8.20618 110.647 8.20618C111.956 8.20618 113.147 8.50714 114.22 9.10906C115.306 9.71097 116.163 10.555 116.791 11.641C117.419 12.714 117.733 13.9309 117.733 15.2918C117.733 16.6527 117.419 17.8761 116.791 18.9622C116.163 20.0352 115.306 20.8792 114.22 21.4942C113.133 22.0961 111.943 22.3971 110.647 22.3971ZM110.647 18.8248C111.629 18.8248 112.401 18.5042 112.963 17.8631C113.539 17.2219 113.827 16.3648 113.827 15.2918C113.827 14.1927 113.539 13.329 112.963 12.7009C112.401 12.0598 111.629 11.7392 110.647 11.7392C109.653 11.7392 108.874 12.0598 108.312 12.7009C107.749 13.329 107.468 14.1927 107.468 15.2918C107.468 16.3779 107.749 17.2415 108.312 17.8827C108.874 18.5108 109.653 18.8248 110.647 18.8248Z" fill="#CE5C1C"/>
<path d="M88.668 15.3115C88.668 13.9506 88.9493 12.7402 89.512 11.6803C90.0877 10.6074 90.899 9.77644 91.9458 9.18761C92.9926 8.58569 94.1965 8.28473 95.5573 8.28473C97.2846 8.28473 98.737 8.74925 99.9147 9.6783C101.092 10.5943 101.851 11.8439 102.192 13.4272H98.0501C97.8014 12.9038 97.4547 12.5047 97.0098 12.2299C96.578 11.9551 96.0742 11.8177 95.4984 11.8177C94.6086 11.8177 93.8955 12.1383 93.359 12.7795C92.8356 13.4076 92.5739 14.2516 92.5739 15.3115C92.5739 16.3845 92.8356 17.2415 93.359 17.8827C93.8955 18.5108 94.6086 18.8249 95.4984 18.8249C96.0742 18.8249 96.578 18.6875 97.0098 18.4127C97.4547 18.1379 97.8014 17.7388 98.0501 17.2154H102.192C101.851 18.7987 101.092 20.0549 99.9147 20.9839C98.737 21.8999 97.2846 22.3579 95.5573 22.3579C94.1965 22.3579 92.9926 22.0634 91.9458 21.4746C90.899 20.8727 90.0877 20.0418 89.512 18.9819C88.9493 17.9089 88.668 16.6854 88.668 15.3115Z" fill="#CE5C1C"/>
<path d="M86.2908 13.859V17.0583H77.3994V13.859H86.2908Z" fill="#213B85"/>
<path d="M70.8856 11.5036V13.7608H75.3019V16.6854H70.8856V19.1781H75.8907V22.2597H67.0386V8.42206H75.8907V11.5036H70.8856Z" fill="#213B85"/>
<path d="M177.116 27.8339V29.8949H179.883V31.2021H177.116V33.3807H180.236V34.7233H175.467V26.4914H180.236V27.8339H177.116Z" fill="#213B85"/>
<path d="M173.838 34.7233H172.189L168.456 29.0823V34.7233H166.807V26.4914H168.456L172.189 32.1442V26.4914H173.838V34.7233Z" fill="#213B85"/>
<path d="M165.178 26.5031V34.7232H163.529V26.5031H165.178Z" fill="#213B85"/>
<path d="M159.773 33.416H162.481V34.7232H158.124V26.5031H159.773V33.416Z" fill="#213B85"/>
<path d="M154.808 28.9762C154.62 28.6307 154.36 28.3677 154.031 28.1871C153.701 28.0066 153.316 27.9163 152.877 27.9163C152.39 27.9163 151.958 28.0262 151.581 28.246C151.204 28.4659 150.91 28.7799 150.698 29.1882C150.486 29.5964 150.38 30.0675 150.38 30.6014C150.38 31.1509 150.486 31.6299 150.698 32.0381C150.918 32.4464 151.22 32.7604 151.605 32.9803C151.989 33.2001 152.437 33.31 152.947 33.31C153.575 33.31 154.09 33.1451 154.49 32.8154C154.89 32.4778 155.153 32.0106 155.279 31.414H152.453V30.1539H156.904V31.5906C156.794 32.1637 156.559 32.6937 156.198 33.1805C155.836 33.6672 155.369 34.0598 154.796 34.3581C154.231 34.6486 153.595 34.7939 152.888 34.7939C152.095 34.7939 151.377 34.6172 150.733 34.2639C150.097 33.9028 149.595 33.4042 149.226 32.7683C148.865 32.1323 148.684 31.41 148.684 30.6014C148.684 29.7927 148.865 29.0704 149.226 28.4345C149.595 27.7907 150.097 27.2921 150.733 26.9388C151.377 26.5777 152.091 26.3971 152.877 26.3971C153.803 26.3971 154.608 26.6248 155.291 27.0801C155.974 27.5277 156.445 28.1597 156.704 28.9762H154.808Z" fill="#213B85"/>
<path d="M145.695 33.157H142.421L141.879 34.7233H140.148L143.104 26.4914H145.023L147.979 34.7233H146.236L145.695 33.157ZM145.247 31.838L144.058 28.3992L142.868 31.838H145.247Z" fill="#213B85"/>
<path d="M139.452 26.5031V27.8339H137.261V34.7232H135.612V27.8339H133.422V26.5031H139.452Z" fill="#213B85"/>
<path d="M125.483 26.5031C126.347 26.5031 127.105 26.6719 127.756 27.0095C128.416 27.3471 128.922 27.83 129.275 28.458C129.637 29.0783 129.817 29.8006 129.817 30.6249C129.817 31.4493 129.637 32.1716 129.275 32.7919C128.922 33.4042 128.416 33.8792 127.756 34.2168C127.105 34.5544 126.347 34.7232 125.483 34.7232H122.61V26.5031H125.483ZM125.424 33.3218C126.288 33.3218 126.955 33.0863 127.427 32.6152C127.898 32.1441 128.133 31.4807 128.133 30.6249C128.133 29.7692 127.898 29.1018 127.427 28.6229C126.955 28.1361 126.288 27.8928 125.424 27.8928H124.259V33.3218H125.424Z" fill="#213B85"/>
<path d="M120.981 34.7233H119.332L115.599 29.0823V34.7233H113.95V26.4914H115.599L119.332 32.1442V26.4914H120.981V34.7233Z" fill="#213B85"/>
<path d="M110.56 33.157H107.287L106.745 34.7233H105.014L107.97 26.4914H109.889L112.845 34.7233H111.102L110.56 33.157ZM110.113 31.838L108.924 28.3992L107.734 31.838H110.113Z" fill="#213B85"/>
<path d="M102.215 34.7232L100.402 31.52H99.6243V34.7232H97.9756V26.5031H101.061C101.697 26.5031 102.239 26.617 102.686 26.8446C103.134 27.0645 103.467 27.3667 103.687 27.7514C103.915 28.1283 104.029 28.5523 104.029 29.0233C104.029 29.565 103.872 30.0557 103.558 30.4954C103.244 30.9272 102.777 31.2256 102.156 31.3904L104.123 34.7232H102.215ZM99.6243 30.2834H101.002C101.45 30.2834 101.783 30.1774 102.003 29.9655C102.223 29.7456 102.333 29.4434 102.333 29.0587C102.333 28.6818 102.223 28.3913 102.003 28.1872C101.783 27.9752 101.45 27.8692 101.002 27.8692H99.6243V30.2834Z" fill="#213B85"/>
<path d="M95.0718 30.5072C95.535 30.5935 95.9158 30.8252 96.2141 31.202C96.5124 31.5789 96.6616 32.0107 96.6616 32.4974C96.6616 32.9371 96.5517 33.3257 96.3319 33.6633C96.1199 33.9931 95.8098 34.2522 95.4015 34.4406C94.9933 34.629 94.5104 34.7232 93.953 34.7232H90.4082V26.5031H93.7999C94.3573 26.5031 94.8362 26.5934 95.2366 26.774C95.6449 26.9546 95.9511 27.2058 96.1552 27.5277C96.3672 27.8496 96.4732 28.2147 96.4732 28.6229C96.4732 29.1018 96.3436 29.5022 96.0846 29.8241C95.8333 30.146 95.4957 30.3737 95.0718 30.5072ZM92.0569 29.8948H93.5644C93.9569 29.8948 94.2592 29.8084 94.4712 29.6357C94.6831 29.4551 94.7891 29.2 94.7891 28.8702C94.7891 28.5405 94.6831 28.2853 94.4712 28.1047C94.2592 27.9242 93.9569 27.8339 93.5644 27.8339H92.0569V29.8948ZM93.7174 33.3807C94.1179 33.3807 94.428 33.2865 94.6478 33.0981C94.8755 32.9096 94.9893 32.6427 94.9893 32.2972C94.9893 31.9439 94.8716 31.6691 94.636 31.4729C94.4005 31.2687 94.0825 31.1667 93.6821 31.1667H92.0569V33.3807H93.7174Z" fill="#213B85"/>
<defs>
<linearGradient id="paint0_linear_1_5722" x1="38.5529" y1="36.9935" x2="30.0203" y2="5.14943" gradientUnits="userSpaceOnUse">
<stop stop-color="#15258F"/>
<stop offset="1" stop-color="#2E4DA3"/>
</linearGradient>
<linearGradient id="paint1_linear_1_5722" x1="48.3105" y1="38.0788" x2="47.0383" y2="33.3307" gradientUnits="userSpaceOnUse">
<stop stop-color="#CE5B23"/>
<stop offset="1" stop-color="#DE7D39"/>
</linearGradient>
<linearGradient id="paint2_linear_1_5722" x1="36.2805" y1="41.3023" x2="35.0083" y2="36.5543" gradientUnits="userSpaceOnUse">
<stop stop-color="#CE5B23"/>
<stop offset="1" stop-color="#DE7D39"/>
</linearGradient>
<linearGradient id="paint3_linear_1_5722" x1="17.7855" y1="45.4409" x2="17.7855" y2="16.3521" gradientUnits="userSpaceOnUse">
<stop stop-color="#CE5B23"/>
<stop offset="1" stop-color="#DE7D39"/>
</linearGradient>
<linearGradient id="paint4_linear_1_5722" x1="6.90445" y1="45.4409" x2="6.90445" y2="16.3521" gradientUnits="userSpaceOnUse">
<stop stop-color="#CE5B23"/>
<stop offset="1" stop-color="#DE7D39"/>
</linearGradient>
<linearGradient id="paint5_linear_1_5722" x1="1.22016" y1="45.4409" x2="1.22016" y2="16.3521" gradientUnits="userSpaceOnUse">
<stop stop-color="#CE5B23"/>
<stop offset="1" stop-color="#DE7D39"/>
</linearGradient>
<linearGradient id="paint6_linear_1_5722" x1="17.7933" y1="45.1478" x2="17.7933" y2="16.059" gradientUnits="userSpaceOnUse">
<stop stop-color="#CE5B23"/>
<stop offset="1" stop-color="#DE7D39"/>
</linearGradient>
<linearGradient id="paint7_linear_1_5722" x1="9.03151" y1="45.1478" x2="9.03151" y2="16.059" gradientUnits="userSpaceOnUse">
<stop stop-color="#CE5B23"/>
<stop offset="1" stop-color="#DE7D39"/>
</linearGradient>
</defs>
</svg>
