<svg width="260" height="79" viewBox="0 0 260 79" fill="none" xmlns="http://www.w3.org/2000/svg">
<path d="M19.2213 22.4581L31.1932 39.7562C32.6644 41.8812 35.3391 42.8648 37.842 42.1941L86.6936 29.1044C87.4073 28.9131 88.102 29.4666 88.0746 30.2056L87.9567 33.6468C87.9395 34.1277 87.6076 34.5421 87.144 34.6664L45.5542 45.8103C44.2405 46.1623 43.0367 46.8944 42.1969 47.9672C40.4795 50.1656 40.4688 53.1352 41.9795 55.2956L51.6446 69.1926C53.1193 71.3132 55.7874 72.2893 58.2828 71.6207L59.6276 71.2603C59.572 68.2751 61.5493 65.5229 64.5631 64.7153C67.5726 63.9089 70.6517 65.2983 72.1013 67.9008L81.8478 65.2765C81.8073 62.3046 83.7768 59.5659 86.782 58.7606C89.7839 57.9563 92.8577 59.339 94.3109 61.9244L96.9328 61.2173C97.6659 61.0208 98.1877 60.3668 98.2218 59.6054L98.5618 51.4251C98.6105 50.2502 97.5037 49.3607 96.3658 49.6691L59.5969 59.5627C59.1525 59.6818 58.6758 59.5081 58.4106 59.1282L56.3313 56.1377C55.8974 55.5143 56.2162 54.6478 56.9493 54.4514L94.5314 44.3813C97.1588 43.6773 98.9871 41.3779 99.0861 38.6607L99.6677 22.1516C99.7334 20.2118 98.8701 18.3334 97.3509 17.1242C95.8293 15.9191 93.8064 15.4961 91.9314 15.9985L40.0499 29.9001C39.0732 30.1618 38.0372 29.7814 37.4612 28.9499L30.1041 18.3215C29.6828 17.7154 28.9275 17.4381 28.2138 17.6294L20.2028 19.7759C19.0381 20.0914 18.5337 21.4678 19.2213 22.4581Z" fill="url(#paint0_linear_1_128)"/>
<path d="M83.6316 66.4988C84.3525 69.1895 87.1192 70.7869 89.8099 70.0659C92.5006 69.3449 94.0979 66.5782 93.377 63.8875C92.656 61.1968 89.8893 59.5995 87.1986 60.3205C84.5082 61.0425 82.9106 63.8081 83.6316 66.4988Z" fill="url(#paint1_linear_1_128)"/>
<path d="M67.5909 76.0194C70.282 75.2984 71.8791 72.5322 71.158 69.8411C70.4369 67.15 67.6707 65.5529 64.9796 66.274C62.2885 66.9951 60.6915 69.7612 61.4126 72.4524C62.1337 75.1435 64.8998 76.7405 67.5909 76.0194Z" fill="url(#paint2_linear_1_128)"/>
<path d="M23.388 75.6015H43.2697C44.3253 75.6015 45.1809 74.7459 45.1809 73.6903C45.1809 72.6347 44.3253 71.7791 43.2697 71.7791H23.388C22.3324 71.7791 21.4768 72.6347 21.4768 73.6903C21.4779 74.7459 22.3324 75.6015 23.388 75.6015Z" fill="url(#paint3_linear_1_128)"/>
<path d="M9.59086 75.6015H16.8744C17.93 75.6015 18.7856 74.7459 18.7856 73.6903C18.7856 72.6347 17.93 71.7791 16.8744 71.7791H9.59086C8.53527 71.7791 7.67969 72.6347 7.67969 73.6903C7.67969 74.7459 8.53527 75.6015 9.59086 75.6015Z" fill="url(#paint4_linear_1_128)"/>
<path d="M2.39176 75.6015H3.07734C4.13293 75.6015 4.98851 74.7459 4.98851 73.6903C4.98851 72.6347 4.13293 71.7791 3.07734 71.7791H2.39176C1.33617 71.7791 0.480591 72.6347 0.480591 73.6903C0.480591 74.7459 1.33617 75.6015 2.39176 75.6015Z" fill="url(#paint5_linear_1_128)"/>
<path d="M30.9237 69.328H35.7639C36.8195 69.328 37.675 68.4724 37.675 67.4168C37.675 66.3612 36.8195 65.5056 35.7639 65.5056H30.9237C29.8682 65.5056 29.0126 66.3612 29.0126 67.4168C29.0126 68.4724 29.8682 69.328 30.9237 69.328Z" fill="url(#paint6_linear_1_128)"/>
<path d="M9.92643 69.328H24.3946C25.4502 69.328 26.3058 68.4724 26.3058 67.4168C26.3058 66.3612 25.4502 65.5056 24.3946 65.5056H9.92643C8.87084 65.5056 8.01526 66.3612 8.01526 67.4168C8.01637 68.4724 8.87195 69.328 9.92643 69.328Z" fill="url(#paint7_linear_1_128)"/>
<path d="M122.56 26.0998V28.3998H127.06V31.3798H122.56V33.9198H127.66V37.0598H118.64V22.9598H127.66V26.0998H122.56ZM138.257 28.4998V31.7598H129.197V28.4998H138.257Z" fill="#213B85"/>
<path d="M140.679 29.9798C140.679 28.5932 140.966 27.3598 141.539 26.2798C142.126 25.1865 142.952 24.3398 144.019 23.7398C145.086 23.1265 146.312 22.8198 147.699 22.8198C149.459 22.8198 150.939 23.2932 152.139 24.2398C153.339 25.1732 154.112 26.4465 154.459 28.0598H150.239C149.986 27.5265 149.632 27.1198 149.179 26.8398C148.739 26.5598 148.226 26.4198 147.639 26.4198C146.732 26.4198 146.006 26.7465 145.459 27.3998C144.926 28.0398 144.659 28.8998 144.659 29.9798C144.659 31.0732 144.926 31.9465 145.459 32.5998C146.006 33.2398 146.732 33.5598 147.639 33.5598C148.226 33.5598 148.739 33.4198 149.179 33.1398C149.632 32.8598 149.986 32.4532 150.239 31.9198H154.459C154.112 33.5332 153.339 34.8132 152.139 35.7598C150.939 36.6932 149.459 37.1598 147.699 37.1598C146.312 37.1598 145.086 36.8598 144.019 36.2598C142.952 35.6465 142.126 34.7998 141.539 33.7198C140.966 32.6265 140.679 31.3798 140.679 29.9798ZM163.075 37.1998C161.755 37.1998 160.542 36.8932 159.435 36.2798C158.329 35.6532 157.449 34.7932 156.795 33.6998C156.155 32.5932 155.835 31.3465 155.835 29.9598C155.835 28.5732 156.155 27.3332 156.795 26.2398C157.449 25.1332 158.329 24.2732 159.435 23.6598C160.542 23.0465 161.755 22.7398 163.075 22.7398C164.409 22.7398 165.622 23.0465 166.715 23.6598C167.822 24.2732 168.695 25.1332 169.335 26.2398C169.975 27.3332 170.295 28.5732 170.295 29.9598C170.295 31.3465 169.975 32.5932 169.335 33.6998C168.695 34.7932 167.822 35.6532 166.715 36.2798C165.609 36.8932 164.395 37.1998 163.075 37.1998ZM163.075 33.5598C164.075 33.5598 164.862 33.2332 165.435 32.5798C166.022 31.9265 166.315 31.0532 166.315 29.9598C166.315 28.8398 166.022 27.9598 165.435 27.3198C164.862 26.6665 164.075 26.3398 163.075 26.3398C162.062 26.3398 161.269 26.6665 160.695 27.3198C160.122 27.9598 159.835 28.8398 159.835 29.9598C159.835 31.0665 160.122 31.9465 160.695 32.5998C161.269 33.2398 162.062 33.5598 163.075 33.5598ZM188.518 22.9598V37.0598H184.598V29.2798L181.938 37.0598H178.658L175.978 29.2198V37.0598H172.058V22.9598H176.798L180.338 32.1198L183.798 22.9598H188.518ZM207.209 22.9598V37.0598H203.289V29.2798L200.629 37.0598H197.349L194.669 29.2198V37.0598H190.749V22.9598H195.489L199.029 32.1198L202.489 22.9598H207.209ZM213.36 26.0998V28.3998H217.86V31.3798H213.36V33.9198H218.46V37.0598H209.44V22.9598H218.46V26.0998H213.36ZM227.537 37.0598L224.737 31.8598H224.317V37.0598H220.397V22.9598H226.577C227.711 22.9598 228.671 23.1598 229.457 23.5598C230.244 23.9465 230.837 24.4865 231.237 25.1798C231.637 25.8598 231.837 26.6265 231.837 27.4798C231.837 28.4398 231.571 29.2865 231.037 30.0198C230.517 30.7398 229.751 31.2532 228.737 31.5598L231.917 37.0598H227.537ZM224.317 29.1798H226.257C226.791 29.1798 227.191 29.0532 227.457 28.7998C227.724 28.5465 227.857 28.1798 227.857 27.6998C227.857 27.2465 227.717 26.8932 227.437 26.6398C227.171 26.3732 226.777 26.2398 226.257 26.2398H224.317V29.1798ZM233.14 29.9798C233.14 28.5932 233.427 27.3598 234 26.2798C234.587 25.1865 235.413 24.3398 236.48 23.7398C237.547 23.1265 238.773 22.8198 240.16 22.8198C241.92 22.8198 243.4 23.2932 244.6 24.2398C245.8 25.1732 246.573 26.4465 246.92 28.0598H242.7C242.447 27.5265 242.093 27.1198 241.64 26.8398C241.2 26.5598 240.687 26.4198 240.1 26.4198C239.193 26.4198 238.467 26.7465 237.92 27.3998C237.387 28.0398 237.12 28.8998 237.12 29.9798C237.12 31.0732 237.387 31.9465 237.92 32.5998C238.467 33.2398 239.193 33.5598 240.1 33.5598C240.687 33.5598 241.2 33.4198 241.64 33.1398C242.093 32.8598 242.447 32.4532 242.7 31.9198H246.92C246.573 33.5332 245.8 34.8132 244.6 35.7598C243.4 36.6932 241.92 37.1598 240.16 37.1598C238.773 37.1598 237.547 36.8598 236.48 36.2598C235.413 35.6465 234.587 34.7998 234 33.7198C233.427 32.6265 233.14 31.3798 233.14 29.9798ZM252.696 26.0998V28.3998H257.196V31.3798H252.696V33.9198H257.796V37.0598H248.776V22.9598H257.796V26.0998H252.696Z" fill="#CE5C1C"/>
<path d="M147.1 53.7638C147.572 53.8518 147.96 54.0878 148.264 54.4718C148.568 54.8558 148.72 55.2958 148.72 55.7918C148.72 56.2398 148.608 56.6358 148.384 56.9798C148.168 57.3158 147.852 57.5798 147.436 57.7718C147.02 57.9638 146.528 58.0598 145.96 58.0598H142.348V49.6838H145.804C146.372 49.6838 146.86 49.7758 147.268 49.9598C147.684 50.1438 147.996 50.3998 148.204 50.7278C148.42 51.0558 148.528 51.4278 148.528 51.8438C148.528 52.3318 148.396 52.7398 148.132 53.0678C147.876 53.3958 147.532 53.6278 147.1 53.7638ZM144.028 53.1398H145.564C145.964 53.1398 146.272 53.0518 146.488 52.8758C146.704 52.6918 146.812 52.4318 146.812 52.0958C146.812 51.7598 146.704 51.4998 146.488 51.3158C146.272 51.1318 145.964 51.0398 145.564 51.0398H144.028V53.1398ZM145.72 56.6918C146.128 56.6918 146.444 56.5958 146.668 56.4038C146.9 56.2118 147.016 55.9398 147.016 55.5878C147.016 55.2278 146.896 54.9478 146.656 54.7478C146.416 54.5398 146.092 54.4358 145.684 54.4358H144.028V56.6918H145.72ZM154.378 58.0598L152.53 54.7958H151.738V58.0598H150.058V49.6838H153.202C153.85 49.6838 154.402 49.7998 154.858 50.0318C155.314 50.2558 155.654 50.5638 155.878 50.9558C156.11 51.3398 156.226 51.7718 156.226 52.2518C156.226 52.8038 156.066 53.3038 155.746 53.7518C155.426 54.1918 154.95 54.4958 154.318 54.6638L156.322 58.0598H154.378ZM151.738 53.5358H153.142C153.598 53.5358 153.938 53.4278 154.162 53.2118C154.386 52.9878 154.498 52.6798 154.498 52.2878C154.498 51.9038 154.386 51.6078 154.162 51.3998C153.938 51.1838 153.598 51.0758 153.142 51.0758H151.738V53.5358ZM162.882 56.4638H159.546L158.994 58.0598H157.23L160.242 49.6718H162.198L165.21 58.0598H163.434L162.882 56.4638ZM162.426 55.1198L161.214 51.6158L160.002 55.1198H162.426ZM173.5 58.0598H171.82L168.016 52.3118V58.0598H166.336V49.6718H168.016L171.82 55.4318V49.6718H173.5V58.0598ZM178.088 49.6838C178.968 49.6838 179.74 49.8558 180.404 50.1998C181.076 50.5438 181.592 51.0358 181.952 51.6758C182.32 52.3078 182.504 53.0438 182.504 53.8838C182.504 54.7238 182.32 55.4598 181.952 56.0918C181.592 56.7158 181.076 57.1998 180.404 57.5438C179.74 57.8878 178.968 58.0598 178.088 58.0598H175.16V49.6838H178.088ZM178.028 56.6318C178.908 56.6318 179.588 56.3918 180.068 55.9118C180.548 55.4318 180.788 54.7558 180.788 53.8838C180.788 53.0118 180.548 52.3318 180.068 51.8438C179.588 51.3478 178.908 51.0998 178.028 51.0998H176.84V56.6318H178.028ZM192.321 49.6838V51.0398H190.089V58.0598H188.409V51.0398H186.177V49.6838H192.321ZM198.683 56.4638H195.347L194.795 58.0598H193.031L196.043 49.6718H197.999L201.011 58.0598H199.235L198.683 56.4638ZM198.227 55.1198L197.015 51.6158L195.803 55.1198H198.227ZM207.969 52.2038C207.777 51.8518 207.513 51.5838 207.177 51.3998C206.841 51.2158 206.449 51.1238 206.001 51.1238C205.505 51.1238 205.065 51.2358 204.681 51.4598C204.297 51.6838 203.997 52.0038 203.781 52.4198C203.565 52.8358 203.457 53.3158 203.457 53.8598C203.457 54.4198 203.565 54.9078 203.781 55.3238C204.005 55.7398 204.313 56.0598 204.705 56.2838C205.097 56.5078 205.553 56.6198 206.073 56.6198C206.713 56.6198 207.237 56.4518 207.645 56.1158C208.053 55.7718 208.321 55.2958 208.449 54.6878H205.569V53.4038H210.105V54.8678C209.993 55.4518 209.753 55.9918 209.385 56.4878C209.017 56.9838 208.541 57.3838 207.957 57.6878C207.381 57.9838 206.733 58.1318 206.013 58.1318C205.205 58.1318 204.473 57.9518 203.817 57.5918C203.169 57.2238 202.657 56.7158 202.281 56.0678C201.913 55.4198 201.729 54.6838 201.729 53.8598C201.729 53.0358 201.913 52.2998 202.281 51.6518C202.657 50.9958 203.169 50.4878 203.817 50.1278C204.473 49.7598 205.201 49.5758 206.001 49.5758C206.945 49.5758 207.765 49.8078 208.461 50.2718C209.157 50.7278 209.637 51.3718 209.901 52.2038H207.969ZM213.028 56.7278H215.788V58.0598H211.348V49.6838H213.028V56.7278ZM218.535 49.6838V58.0598H216.855V49.6838H218.535ZM227.359 58.0598H225.679L221.875 52.3118V58.0598H220.195V49.6718H221.875L225.679 55.4318V49.6718H227.359V58.0598ZM230.699 51.0398V53.1398H233.519V54.4718H230.699V56.6918H233.879V58.0598H229.019V49.6718H233.879V51.0398H230.699Z" fill="#213B85"/>
<defs>
<linearGradient id="paint0_linear_1_128" x1="71.6844" y1="67.6748" x2="55.9255" y2="8.86192" gradientUnits="userSpaceOnUse">
<stop stop-color="#15258F"/>
<stop offset="1" stop-color="#2E4DA3"/>
</linearGradient>
<linearGradient id="paint1_linear_1_128" x1="89.7063" y1="69.6792" x2="87.3566" y2="60.91" gradientUnits="userSpaceOnUse">
<stop stop-color="#CE5B23"/>
<stop offset="1" stop-color="#DE7D39"/>
</linearGradient>
<linearGradient id="paint2_linear_1_128" x1="67.4869" y1="75.6328" x2="65.1372" y2="66.8637" gradientUnits="userSpaceOnUse">
<stop stop-color="#CE5B23"/>
<stop offset="1" stop-color="#DE7D39"/>
</linearGradient>
<linearGradient id="paint3_linear_1_128" x1="33.3291" y1="83.2765" x2="33.3291" y2="29.5522" gradientUnits="userSpaceOnUse">
<stop stop-color="#CE5B23"/>
<stop offset="1" stop-color="#DE7D39"/>
</linearGradient>
<linearGradient id="paint4_linear_1_128" x1="13.2324" y1="83.2765" x2="13.2324" y2="29.5522" gradientUnits="userSpaceOnUse">
<stop stop-color="#CE5B23"/>
<stop offset="1" stop-color="#DE7D39"/>
</linearGradient>
<linearGradient id="paint5_linear_1_128" x1="2.73411" y1="83.2765" x2="2.73411" y2="29.5522" gradientUnits="userSpaceOnUse">
<stop stop-color="#CE5B23"/>
<stop offset="1" stop-color="#DE7D39"/>
</linearGradient>
<linearGradient id="paint6_linear_1_128" x1="33.3436" y1="82.735" x2="33.3436" y2="29.0108" gradientUnits="userSpaceOnUse">
<stop stop-color="#CE5B23"/>
<stop offset="1" stop-color="#DE7D39"/>
</linearGradient>
<linearGradient id="paint7_linear_1_128" x1="17.161" y1="82.735" x2="17.161" y2="29.0108" gradientUnits="userSpaceOnUse">
<stop stop-color="#CE5B23"/>
<stop offset="1" stop-color="#DE7D39"/>
</linearGradient>
</defs>
</svg>
