<svg width="266" height="79" viewBox="0 0 266 79" fill="none" xmlns="http://www.w3.org/2000/svg">
<path d="M25.0433 43.4761C25.1984 43.4974 25.3559 43.4974 25.5123 43.5083H34.3058C34.4622 43.498 34.6197 43.498 34.7748 43.4761C35.0858 43.4336 35.3898 43.348 35.6783 43.2227C37.1755 42.5721 37.9946 40.8829 37.6784 39.3621C37.4192 38.1143 36.441 37.0838 35.2352 36.7459C35.0846 36.7033 34.9283 36.6821 34.7748 36.6499C34.6185 36.639 34.4622 36.6286 34.3058 36.6177H25.5123C25.0967 36.6459 24.9869 36.6321 24.5829 36.7453C24.2806 36.8298 23.9909 36.9557 23.7225 37.1189C22.5023 37.8609 21.8529 39.3845 22.1397 40.7633C22.4322 42.172 23.6478 43.2842 25.0433 43.4761Z" fill="#CE5C1C"/>
<path d="M4.97088 15.9177C5.12606 15.939 5.28354 15.939 5.43987 15.9499H14.2335C14.3898 15.939 14.5473 15.939 14.7025 15.9177C15.0134 15.8752 15.3174 15.7901 15.6059 15.6648C17.1032 15.0142 17.9222 13.325 17.6061 11.8043C17.3469 10.5565 16.3686 9.52596 15.1628 9.18801C15.0122 9.14548 14.8559 9.12422 14.7025 9.09203C14.5461 9.08111 14.3898 9.07077 14.2335 9.05984H5.43987C5.02433 9.08801 4.91455 9.07421 4.51051 9.18744C4.20819 9.27193 3.91853 9.3978 3.65012 9.56102C2.42994 10.303 1.78047 11.8261 2.06727 13.2055C2.35981 14.6136 3.5754 15.7257 4.97088 15.9177Z" fill="#CE5C1C"/>
<path d="M12.6891 36.7464C12.5385 36.7039 12.3822 36.6826 12.2287 36.6505C12.0724 36.6395 11.9161 36.6292 11.7597 36.6183H7.00603C6.59049 36.6464 6.48072 36.6326 6.07667 36.7459C5.77436 36.8304 5.48468 36.9562 5.21627 37.1194C3.99609 37.8614 3.34663 39.3851 3.63343 40.7639C3.92597 42.1715 5.14156 43.2842 6.53704 43.4755C6.69222 43.4968 6.8497 43.4968 7.00603 43.5077H11.7597C11.9161 43.4974 12.0736 43.4974 12.2287 43.4755C12.5397 43.433 12.8437 43.3474 13.1322 43.2221C14.6294 42.5715 15.4484 40.8823 15.1329 39.3615C14.8731 38.1149 13.8955 37.0844 12.6891 36.7464Z" fill="#CE5C1C"/>
<path d="M29.882 62.2967C29.7315 62.2542 29.5751 62.2329 29.4217 62.2007C29.2653 62.1898 29.109 62.1795 28.9527 62.1685H24.199C23.7834 62.1973 23.6736 62.1829 23.2696 62.2961C22.9667 62.3806 22.6776 62.5065 22.4092 62.6697C21.189 63.4117 20.5396 64.9348 20.8264 66.3142C21.1189 67.7217 22.3345 68.8344 23.73 69.0258C23.8852 69.0471 24.0426 69.0471 24.199 69.058H28.9527C29.109 69.0471 29.2665 69.0471 29.4217 69.0258C29.7326 68.9833 30.0366 68.8976 30.3252 68.7729C31.8224 68.1223 32.6414 66.4331 32.3253 64.9124C32.0666 63.6657 31.0884 62.6346 29.882 62.2967Z" fill="#CE5C1C"/>
<path d="M113.455 25.3357C113.453 25.3075 113.452 25.2793 113.45 25.2512C113.446 25.1661 113.441 25.081 113.428 24.9971C113.348 24.4661 113.106 23.9637 112.741 23.57C112.552 23.3666 112.456 23.2993 112.287 23.1861C112.247 23.1579 112.206 23.1309 112.165 23.1051C112.149 23.0941 112.132 23.0827 112.114 23.0712L88.4573 9.41293C88.3366 9.35488 88.2199 9.28763 88.0952 9.23878C87.7612 9.10774 87.6659 9.11348 87.3141 9.06061C87.1934 9.06061 87.0733 9.06118 86.9532 9.06693C86.9227 9.06463 86.8917 9.06291 86.8612 9.06061H28.9522C28.5367 9.08877 28.4269 9.07498 28.0229 9.1882C27.72 9.27269 27.4309 9.39856 27.1625 9.56179C25.9423 10.3038 25.2929 11.8269 25.5796 13.2062C25.8722 14.6138 27.0878 15.7265 28.4833 15.9179C28.6384 15.9392 28.7959 15.9392 28.9522 15.9501H44.952C45.1106 15.965 45.3675 15.9886 45.5262 16.0035C45.644 16.0254 45.7618 16.0455 45.8773 16.0777C47.0837 16.4156 48.0614 17.4467 48.3206 18.6939C48.6367 20.2147 47.8177 21.9038 46.3204 22.5545C46.0325 22.6798 45.7285 22.7648 45.417 22.8073C45.2618 22.8286 45.1043 22.8286 44.948 22.8395H5.4406C5.02506 22.8677 4.91529 22.8539 4.51124 22.9671C4.20893 23.0516 3.91925 23.1775 3.65084 23.3407C2.43066 24.0827 1.7812 25.6058 2.068 26.9852C2.36054 28.3927 3.57613 29.5054 4.97161 29.6968C5.12679 29.7181 5.28427 29.7181 5.4406 29.729H53.0047C53.1634 29.7439 53.4203 29.7675 53.5789 29.7824C53.6967 29.8043 53.8145 29.8244 53.9301 29.8566C55.1359 30.1945 56.1141 31.2256 56.3733 32.4728C56.6894 33.9936 55.8704 35.6828 54.3732 36.3334C54.0852 36.4587 53.7812 36.5437 53.4697 36.5869C53.3145 36.6081 53.157 36.6081 53.0007 36.619H45.9342C45.5187 36.6472 45.4089 36.6334 45.0049 36.7466C44.7025 36.8311 44.4129 36.957 44.1445 37.1202C42.9243 37.8622 42.2754 39.3859 42.5616 40.7647C42.8542 42.1722 44.0698 43.2849 45.4652 43.4763C45.6204 43.4976 45.7779 43.4976 45.9342 43.5085H63.372C64.9037 43.5085 66.1451 42.267 66.1451 40.7354V30.9544C66.1451 30.5532 66.5796 30.302 66.9273 30.5026L79.1326 37.5495C82.4104 39.4416 84.4295 42.9389 84.4295 46.7236V52.8883C84.4295 56.8138 80.1804 59.2668 76.7808 57.3041L66.7607 51.5066C66.4187 51.3089 66.1681 50.979 66.0888 50.5922C65.8302 49.3312 64.7117 48.391 63.372 48.391H19.7788C19.3632 48.4191 19.2534 48.4053 18.8494 48.5185C18.5465 48.603 18.2574 48.7289 17.989 48.8921C16.7688 49.6341 16.1199 51.1572 16.4062 52.5366C16.6987 53.9441 17.9143 55.0568 19.3098 55.2482C19.4649 55.2695 19.6224 55.2695 19.7788 55.2804H49.1867C49.3453 55.2954 49.6022 55.3189 49.7609 55.3339C49.8787 55.3557 49.9965 55.3758 50.112 55.408C51.3179 55.746 52.2961 56.7771 52.5553 58.0243C52.8714 59.545 52.0524 61.2342 50.5552 61.8848C50.2672 62.0101 49.9632 62.0952 49.6517 62.1383C49.4965 62.1595 49.339 62.1595 49.1827 62.1705H40.5063C40.0908 62.1986 39.981 62.1848 39.577 62.2981C39.2747 62.3825 38.985 62.5084 38.7166 62.6716C37.4964 63.4136 36.8469 64.9367 37.1337 66.3161C37.4263 67.7236 38.6419 68.8363 40.0373 69.0277C40.1925 69.049 40.35 69.049 40.5063 69.0599H86.9451C86.9635 69.0588 86.9813 69.0576 86.9997 69.057C87.0411 69.0588 87.0819 69.0605 87.1233 69.0599C87.1877 69.0605 87.252 69.0576 87.3158 69.053C87.3871 69.0478 87.4578 69.0392 87.5279 69.0277C87.7222 68.9978 87.9136 68.9467 88.0969 68.8743C88.1636 68.8484 88.2274 68.8168 88.2912 68.7846C88.2998 68.7812 88.309 68.7783 88.317 68.7743C88.5245 68.684 88.7182 68.5731 88.8981 68.4461L112.115 55.0419C112.226 54.9666 112.343 54.8994 112.447 54.8154C112.867 54.4809 113.181 54.02 113.339 53.5068C113.445 53.1642 113.432 53.0694 113.459 52.7148V25.3977C113.457 25.377 113.456 25.3563 113.455 25.3357ZM88.0291 15.369L104.702 24.9948C105.012 25.1736 105.012 25.6213 104.702 25.8L101.43 27.6887C100.871 28.0122 100.18 28.0122 99.6205 27.6887L83.0271 18.1082C82.6776 17.9065 82.6776 17.4025 83.0271 17.2007L86.2008 15.3684C86.7664 15.0425 87.4635 15.0425 88.0291 15.369ZM86.21 35.4316L69.6166 25.8518C69.2671 25.65 69.2671 25.146 69.6166 24.9443L72.7909 23.112C73.3564 22.7855 74.0536 22.7855 74.6191 23.112L91.2913 32.7378C91.6011 32.9165 91.6011 33.3643 91.2913 33.543L88.0199 35.4316C87.4601 35.7546 86.7698 35.7546 86.21 35.4316ZM108.085 50.4491C108.085 50.8911 107.85 51.2997 107.466 51.521L91.6575 60.6485C90.8327 61.125 89.801 60.5296 89.801 59.5766V41.3216C89.801 40.8796 90.0367 40.471 90.42 40.2497L94.6777 37.7915C94.68 40.9578 94.6841 45.4684 94.6869 47.7294C94.6875 48.3576 95.3663 48.749 95.9123 48.4381L102.548 44.658C102.958 44.4246 103.212 43.989 103.212 43.5171V32.8642L106.229 31.1222C107.054 30.6457 108.085 31.2411 108.085 32.1941V50.4491Z" fill="url(#paint0_linear_1_128)"/>
<path d="M155.48 22.9598L152.02 37.0598H147.2L145.26 28.4198L143.28 37.0598H138.46L135.04 22.9598H139.28L140.92 32.5998L143.14 22.9598H147.44L149.6 32.5198L151.24 22.9598H155.48ZM156.503 31.4398C156.503 30.2798 156.71 29.2665 157.123 28.3998C157.55 27.5332 158.123 26.8665 158.843 26.3998C159.577 25.9332 160.39 25.6998 161.283 25.6998C162.057 25.6998 162.723 25.8532 163.283 26.1598C163.843 26.4665 164.277 26.8798 164.583 27.3998V25.8398H168.503V37.0598H164.583V35.4998C164.277 36.0198 163.837 36.4332 163.263 36.7398C162.703 37.0465 162.043 37.1998 161.283 37.1998C160.39 37.1998 159.577 36.9665 158.843 36.4998C158.123 36.0332 157.55 35.3665 157.123 34.4998C156.71 33.6198 156.503 32.5998 156.503 31.4398ZM164.583 31.4398C164.583 30.7198 164.383 30.1532 163.983 29.7398C163.597 29.3265 163.117 29.1198 162.543 29.1198C161.957 29.1198 161.47 29.3265 161.083 29.7398C160.697 30.1398 160.503 30.7065 160.503 31.4398C160.503 32.1598 160.697 32.7332 161.083 33.1598C161.47 33.5732 161.957 33.7798 162.543 33.7798C163.117 33.7798 163.597 33.5732 163.983 33.1598C164.383 32.7465 164.583 32.1732 164.583 31.4398ZM174.657 27.8198C175.097 27.1798 175.631 26.6732 176.257 26.2998C176.884 25.9265 177.557 25.7398 178.277 25.7398V29.9198H177.177C176.324 29.9198 175.691 30.0865 175.277 30.4198C174.864 30.7532 174.657 31.3332 174.657 32.1598V37.0598H170.737V25.8398H174.657V27.8198ZM190.403 31.3198C190.403 31.6265 190.383 31.9332 190.343 32.2398H182.923C182.963 32.8532 183.129 33.3132 183.423 33.6198C183.729 33.9132 184.116 34.0598 184.583 34.0598C185.236 34.0598 185.703 33.7665 185.983 33.1798H190.163C189.989 33.9532 189.649 34.6465 189.143 35.2598C188.649 35.8598 188.023 36.3332 187.263 36.6798C186.503 37.0265 185.663 37.1998 184.743 37.1998C183.636 37.1998 182.649 36.9665 181.783 36.4998C180.929 36.0332 180.256 35.3665 179.763 34.4998C179.283 33.6332 179.043 32.6132 179.043 31.4398C179.043 30.2665 179.283 29.2532 179.763 28.3998C180.243 27.5332 180.909 26.8665 181.763 26.3998C182.629 25.9332 183.623 25.6998 184.743 25.6998C185.849 25.6998 186.829 25.9265 187.683 26.3798C188.536 26.8332 189.203 27.4865 189.683 28.3398C190.163 29.1798 190.403 30.1732 190.403 31.3198ZM186.403 30.3398C186.403 29.8598 186.243 29.4865 185.923 29.2198C185.603 28.9398 185.203 28.7998 184.723 28.7998C184.243 28.7998 183.849 28.9332 183.543 29.1998C183.236 29.4532 183.036 29.8332 182.943 30.3398H186.403ZM199.387 25.7398C200.667 25.7398 201.68 26.1732 202.427 27.0398C203.187 27.8932 203.567 29.0532 203.567 30.5198V37.0598H199.647V31.0398C199.647 30.3998 199.48 29.8998 199.147 29.5398C198.813 29.1665 198.367 28.9798 197.807 28.9798C197.22 28.9798 196.76 29.1665 196.427 29.5398C196.093 29.8998 195.927 30.3998 195.927 31.0398V37.0598H192.007V22.2598H195.927V27.4398C196.273 26.9332 196.74 26.5265 197.327 26.2198C197.927 25.8998 198.613 25.7398 199.387 25.7398ZM210.938 37.1998C209.818 37.1998 208.811 36.9665 207.918 36.4998C207.038 36.0332 206.344 35.3665 205.838 34.4998C205.331 33.6332 205.078 32.6132 205.078 31.4398C205.078 30.2798 205.331 29.2665 205.838 28.3998C206.358 27.5332 207.058 26.8665 207.938 26.3998C208.831 25.9332 209.838 25.6998 210.958 25.6998C212.078 25.6998 213.078 25.9332 213.958 26.3998C214.851 26.8665 215.551 27.5332 216.058 28.3998C216.578 29.2665 216.838 30.2798 216.838 31.4398C216.838 32.5998 216.578 33.6198 216.058 34.4998C215.551 35.3665 214.851 36.0332 213.958 36.4998C213.064 36.9665 212.058 37.1998 210.938 37.1998ZM210.938 33.7998C211.484 33.7998 211.938 33.5998 212.298 33.1998C212.671 32.7865 212.858 32.1998 212.858 31.4398C212.858 30.6798 212.671 30.0998 212.298 29.6998C211.938 29.2998 211.491 29.0998 210.958 29.0998C210.424 29.0998 209.978 29.2998 209.618 29.6998C209.258 30.0998 209.078 30.6798 209.078 31.4398C209.078 32.2132 209.251 32.7998 209.598 33.1998C209.944 33.5998 210.391 33.7998 210.938 33.7998ZM229.913 25.8398V37.0598H225.973V35.4598C225.639 35.9665 225.179 36.3798 224.593 36.6998C224.006 37.0065 223.333 37.1598 222.573 37.1598C221.266 37.1598 220.233 36.7332 219.473 35.8798C218.726 35.0132 218.353 33.8398 218.353 32.3598V25.8398H222.253V31.8598C222.253 32.4998 222.419 33.0065 222.753 33.3798C223.099 33.7398 223.553 33.9198 224.113 33.9198C224.686 33.9198 225.139 33.7398 225.473 33.3798C225.806 33.0065 225.973 32.4998 225.973 31.8598V25.8398H229.913ZM236.923 37.1998C235.91 37.1998 235.003 37.0332 234.203 36.6998C233.417 36.3532 232.79 35.8865 232.323 35.2998C231.87 34.6998 231.617 34.0265 231.563 33.2798H235.363C235.417 33.6398 235.583 33.9198 235.863 34.1198C236.143 34.3198 236.49 34.4198 236.903 34.4198C237.223 34.4198 237.477 34.3532 237.663 34.2198C237.85 34.0865 237.943 33.9132 237.943 33.6998C237.943 33.4198 237.79 33.2132 237.483 33.0798C237.177 32.9465 236.67 32.7998 235.963 32.6398C235.163 32.4798 234.497 32.2998 233.963 32.0998C233.43 31.8998 232.963 31.5732 232.563 31.1198C232.177 30.6665 231.983 30.0532 231.983 29.2798C231.983 28.6132 232.163 28.0132 232.523 27.4798C232.883 26.9332 233.41 26.4998 234.103 26.1798C234.81 25.8598 235.657 25.6998 236.643 25.6998C238.11 25.6998 239.263 26.0598 240.103 26.7798C240.943 27.4998 241.43 28.4465 241.563 29.6198H238.023C237.957 29.2598 237.797 28.9865 237.543 28.7998C237.303 28.5998 236.977 28.4998 236.563 28.4998C236.243 28.4998 235.997 28.5598 235.823 28.6798C235.663 28.7998 235.583 28.9665 235.583 29.1798C235.583 29.4465 235.737 29.6532 236.043 29.7998C236.35 29.9332 236.843 30.0732 237.523 30.2198C238.337 30.3932 239.01 30.5865 239.543 30.7998C240.09 31.0132 240.563 31.3598 240.963 31.8398C241.377 32.3065 241.583 32.9465 241.583 33.7598C241.583 34.4132 241.39 34.9998 241.003 35.5198C240.63 36.0398 240.09 36.4532 239.383 36.7598C238.69 37.0532 237.87 37.1998 236.923 37.1998ZM254.231 31.3198C254.231 31.6265 254.211 31.9332 254.171 32.2398H246.751C246.791 32.8532 246.957 33.3132 247.251 33.6198C247.557 33.9132 247.944 34.0598 248.411 34.0598C249.064 34.0598 249.531 33.7665 249.811 33.1798H253.991C253.817 33.9532 253.477 34.6465 252.971 35.2598C252.477 35.8598 251.851 36.3332 251.091 36.6798C250.331 37.0265 249.491 37.1998 248.571 37.1998C247.464 37.1998 246.477 36.9665 245.611 36.4998C244.757 36.0332 244.084 35.3665 243.591 34.4998C243.111 33.6332 242.871 32.6132 242.871 31.4398C242.871 30.2665 243.111 29.2532 243.591 28.3998C244.071 27.5332 244.737 26.8665 245.591 26.3998C246.457 25.9332 247.451 25.6998 248.571 25.6998C249.677 25.6998 250.657 25.9265 251.511 26.3798C252.364 26.8332 253.031 27.4865 253.511 28.3398C253.991 29.1798 254.231 30.1732 254.231 31.3198ZM250.231 30.3398C250.231 29.8598 250.071 29.4865 249.751 29.2198C249.431 28.9398 249.031 28.7998 248.551 28.7998C248.071 28.7998 247.677 28.9332 247.371 29.1998C247.064 29.4532 246.864 29.8332 246.771 30.3398H250.231Z" fill="#213B85"/>
<path d="M153.58 53.7638C154.052 53.8518 154.44 54.0878 154.744 54.4718C155.048 54.8558 155.2 55.2958 155.2 55.7918C155.2 56.2398 155.088 56.6358 154.864 56.9798C154.648 57.3158 154.332 57.5798 153.916 57.7718C153.5 57.9638 153.008 58.0598 152.44 58.0598H148.828V49.6838H152.284C152.852 49.6838 153.34 49.7758 153.748 49.9598C154.164 50.1438 154.476 50.3998 154.684 50.7278C154.9 51.0558 155.008 51.4278 155.008 51.8438C155.008 52.3318 154.876 52.7398 154.612 53.0678C154.356 53.3958 154.012 53.6278 153.58 53.7638ZM150.508 53.1398H152.044C152.444 53.1398 152.752 53.0518 152.968 52.8758C153.184 52.6918 153.292 52.4318 153.292 52.0958C153.292 51.7598 153.184 51.4998 152.968 51.3158C152.752 51.1318 152.444 51.0398 152.044 51.0398H150.508V53.1398ZM152.2 56.6918C152.608 56.6918 152.924 56.5958 153.148 56.4038C153.38 56.2118 153.496 55.9398 153.496 55.5878C153.496 55.2278 153.376 54.9478 153.136 54.7478C152.896 54.5398 152.572 54.4358 152.164 54.4358H150.508V56.6918H152.2ZM160.859 58.0598L159.011 54.7958H158.219V58.0598H156.539V49.6838H159.683C160.331 49.6838 160.883 49.7998 161.339 50.0318C161.795 50.2558 162.135 50.5638 162.359 50.9558C162.591 51.3398 162.707 51.7718 162.707 52.2518C162.707 52.8038 162.547 53.3038 162.227 53.7518C161.907 54.1918 161.431 54.4958 160.799 54.6638L162.803 58.0598H160.859ZM158.219 53.5358H159.623C160.079 53.5358 160.419 53.4278 160.643 53.2118C160.867 52.9878 160.979 52.6798 160.979 52.2878C160.979 51.9038 160.867 51.6078 160.643 51.3998C160.419 51.1838 160.079 51.0758 159.623 51.0758H158.219V53.5358ZM169.362 56.4638H166.026L165.474 58.0598H163.71L166.722 49.6718H168.678L171.69 58.0598H169.914L169.362 56.4638ZM168.906 55.1198L167.694 51.6158L166.482 55.1198H168.906ZM179.98 58.0598H178.3L174.496 52.3118V58.0598H172.816V49.6718H174.496L178.3 55.4318V49.6718H179.98V58.0598ZM184.569 49.6838C185.449 49.6838 186.221 49.8558 186.885 50.1998C187.557 50.5438 188.073 51.0358 188.433 51.6758C188.801 52.3078 188.985 53.0438 188.985 53.8838C188.985 54.7238 188.801 55.4598 188.433 56.0918C188.073 56.7158 187.557 57.1998 186.885 57.5438C186.221 57.8878 185.449 58.0598 184.569 58.0598H181.641V49.6838H184.569ZM184.509 56.6318C185.389 56.6318 186.069 56.3918 186.549 55.9118C187.029 55.4318 187.269 54.7558 187.269 53.8838C187.269 53.0118 187.029 52.3318 186.549 51.8438C186.069 51.3478 185.389 51.0998 184.509 51.0998H183.321V56.6318H184.509ZM198.801 49.6838V51.0398H196.569V58.0598H194.889V51.0398H192.657V49.6838H198.801ZM205.163 56.4638H201.827L201.275 58.0598H199.511L202.523 49.6718H204.479L207.491 58.0598H205.715L205.163 56.4638ZM204.707 55.1198L203.495 51.6158L202.283 55.1198H204.707ZM214.449 52.2038C214.257 51.8518 213.993 51.5838 213.657 51.3998C213.321 51.2158 212.929 51.1238 212.481 51.1238C211.985 51.1238 211.545 51.2358 211.161 51.4598C210.777 51.6838 210.477 52.0038 210.261 52.4198C210.045 52.8358 209.937 53.3158 209.937 53.8598C209.937 54.4198 210.045 54.9078 210.261 55.3238C210.485 55.7398 210.793 56.0598 211.185 56.2838C211.577 56.5078 212.033 56.6198 212.553 56.6198C213.193 56.6198 213.717 56.4518 214.125 56.1158C214.533 55.7718 214.801 55.2958 214.929 54.6878H212.049V53.4038H216.585V54.8678C216.473 55.4518 216.233 55.9918 215.865 56.4878C215.497 56.9838 215.021 57.3838 214.437 57.6878C213.861 57.9838 213.213 58.1318 212.493 58.1318C211.685 58.1318 210.953 57.9518 210.297 57.5918C209.649 57.2238 209.137 56.7158 208.761 56.0678C208.393 55.4198 208.209 54.6838 208.209 53.8598C208.209 53.0358 208.393 52.2998 208.761 51.6518C209.137 50.9958 209.649 50.4878 210.297 50.1278C210.953 49.7598 211.681 49.5758 212.481 49.5758C213.425 49.5758 214.245 49.8078 214.941 50.2718C215.637 50.7278 216.117 51.3718 216.381 52.2038H214.449ZM219.508 56.7278H222.268V58.0598H217.828V49.6838H219.508V56.7278ZM225.016 49.6838V58.0598H223.336V49.6838H225.016ZM233.84 58.0598H232.16L228.356 52.3118V58.0598H226.676V49.6718H228.356L232.16 55.4318V49.6718H233.84V58.0598ZM237.18 51.0398V53.1398H240V54.4718H237.18V56.6918H240.36V58.0598H235.5V49.6718H240.36V51.0398H237.18Z" fill="#CE5C1C"/>
<defs>
<linearGradient id="paint0_linear_1_128" x1="19.9747" y1="39.0595" x2="96.454" y2="39.0595" gradientUnits="userSpaceOnUse">
<stop stop-color="#15258F"/>
<stop offset="1" stop-color="#2E4DA3"/>
</linearGradient>
</defs>
</svg>
