<svg width="24" height="25" viewBox="0 0 24 25" fill="none" xmlns="http://www.w3.org/2000/svg">
<mask id="mask0_1_1082" style="mask-type:alpha" maskUnits="userSpaceOnUse" x="0" y="0" width="24" height="25">
<rect y="0.11969" width="24" height="24" fill="#D9D9D9"/>
</mask>
<g mask="url(#mask0_1_1082)">
<path d="M4.3077 19.6196C3.80257 19.6196 3.375 19.4446 3.025 19.0946C2.675 18.7446 2.5 18.3171 2.5 17.8119V6.42739C2.5 5.92226 2.675 5.49469 3.025 5.14469C3.375 4.79469 3.80257 4.61969 4.3077 4.61969H19.6923C20.1974 4.61969 20.625 4.79469 20.975 5.14469C21.325 5.49469 21.5 5.92226 21.5 6.42739V17.8119C21.5 18.3171 21.325 18.7446 20.975 19.0946C20.625 19.4446 20.1974 19.6196 19.6923 19.6196H4.3077ZM20 7.56194L12.4865 12.3716C12.4096 12.4151 12.3301 12.4494 12.2481 12.4744C12.166 12.4994 12.0833 12.5119 12 12.5119C11.9166 12.5119 11.834 12.4994 11.7519 12.4744C11.6699 12.4494 11.5904 12.4151 11.5135 12.3716L3.99998 7.56194V17.8119C3.99998 17.9017 4.02883 17.9754 4.08653 18.0331C4.14423 18.0908 4.21795 18.1197 4.3077 18.1197H19.6923C19.782 18.1197 19.8557 18.0908 19.9134 18.0331C19.9711 17.9754 20 17.9017 20 17.8119V7.56194ZM12 11.1197L19.8461 6.11967H4.15383L12 11.1197ZM3.99998 7.79269V6.64947V6.67926V6.64754V7.79269Z" fill="#555555"/>
</g>
</svg>
