<svg width="435" height="451" viewBox="0 0 435 451" fill="none" xmlns="http://www.w3.org/2000/svg">
<rect width="39.31" height="41.4897" transform="matrix(-0.898612 0.438744 0.437759 0.899092 223.019 251.692)" fill="#213B85"/>
<rect width="66.4552" height="70.1185" rx="33.2276" transform="matrix(-0.981603 0.190934 0.190423 0.981702 234 175.302)" fill="#CE5C1C"/>
<path d="M416.727 385.958C411.272 395.144 399.694 399.087 399.694 399.087C399.694 399.087 396.961 388.138 402.416 378.952C407.871 369.766 419.448 365.823 419.448 365.823C419.448 365.823 422.181 376.773 416.727 385.958Z" fill="#213B85"/>
<path d="M412.977 382.937C403.129 388.317 399.336 399.003 399.336 399.003C399.336 399.003 411.51 400.966 421.359 395.586C431.207 390.206 435 379.52 435 379.52C435 379.52 422.826 377.557 412.977 382.937Z" fill="#CE5C1C"/>
<path d="M143.227 24.6427H216.808V25.6964H143.227V24.6427Z" fill="#FFCEAE"/>
<path d="M163.199 25.433H164.25V35.1793H163.199V25.433Z" fill="#FFCEAE"/>
<path d="M195.259 25.433H196.31V35.1793H195.259V25.433Z" fill="#FFCEAE"/>
<path d="M105.911 75.2179H179.491V76.2716H105.911V75.2179Z" fill="#FFCEAE"/>
<path d="M158.469 65.7355H159.52V75.4818H158.469V65.7355Z" fill="#FFCEAE"/>
<path d="M126.409 65.7355H127.46V75.4818H126.409V65.7355Z" fill="#FFCEAE"/>
<path d="M8.15414 98.9252H81.7345V99.9788H8.15414V98.9252Z" fill="#FFCEAE"/>
<path d="M60.7119 89.4426H61.7631V99.1889H60.7119V89.4426Z" fill="#FFCEAE"/>
<path d="M28.652 89.4426H29.7031V99.1889H28.652V89.4426Z" fill="#FFCEAE"/>
<path d="M15.5123 343.373H89.0927V344.427H15.5123V343.373Z" fill="#FFCEAE"/>
<path d="M68.0694 333.89H69.1205V343.637H68.0694V333.89Z" fill="#FFCEAE"/>
<path d="M36.0101 333.89H37.0613V343.637H36.0101V333.89Z" fill="#FFCEAE"/>
<path d="M141.125 174.262H214.705V175.315H141.125V174.262Z" fill="#FFCEAE"/>
<path d="M193.682 164.779H194.733V174.525H193.682V164.779Z" fill="#FFCEAE"/>
<path d="M161.622 164.779H162.673V174.525H161.622V164.779Z" fill="#FFCEAE"/>
<path d="M117.999 301.227H191.58V302.28H117.999V301.227Z" fill="#FFCEAE"/>
<path d="M170.556 291.744H171.608V301.49H170.556V291.744Z" fill="#FFCEAE"/>
<path d="M138.497 291.744H139.548V301.49H138.497V291.744Z" fill="#FFCEAE"/>
<path d="M0.270432 262.768H73.8508V263.822H0.270432V262.768Z" fill="#FFCEAE"/>
<path d="M52.8282 253.286H53.8794V263.032H52.8282V253.286Z" fill="#FFCEAE"/>
<path d="M20.7683 253.286H21.8195V263.032H20.7683V253.286Z" fill="#FFCEAE"/>
<path d="M231.287 380.133L353.452 356.37L353.281 355.489L231.995 379.081L223.707 336.353L334.723 314.759L337.932 302.448L337.065 302.221L333.999 313.985L222.657 335.643L231.287 380.133Z" fill="#201F30"/>
<path d="M341.379 381.117C336.282 382.108 331.347 378.77 330.356 373.661C329.365 368.553 332.694 363.607 337.79 362.616C342.887 361.625 347.822 364.963 348.813 370.071C349.804 375.18 346.476 380.125 341.379 381.117Z" fill="#3F3D56"/>
<path d="M250.414 398.811C245.318 399.802 240.383 396.464 239.392 391.355C238.401 386.246 241.729 381.301 246.826 380.31C251.922 379.319 256.857 382.656 257.848 387.765C258.839 392.874 255.511 397.819 250.414 398.811Z" fill="#3F3D56"/>
<path d="M104.399 219.684C101.244 220.297 98.1888 218.231 97.5754 215.069C96.9619 211.906 99.0223 208.845 102.177 208.231C105.333 207.617 108.388 209.684 109.001 212.846C109.614 216.009 107.554 219.07 104.399 219.684Z" fill="#3F3D56"/>
<path d="M206.942 324.529L344.256 297.82L355.085 194.692L157.461 233.133L157.752 233.67L206.942 324.529ZM343.435 297.065L207.416 323.523L158.83 233.78L354.068 195.804L343.435 297.065Z" fill="#201F30"/>
<path d="M252.754 295.827L327.712 294.558L343.025 240.626L235.146 242.452L235.249 242.766L252.754 295.827Z" fill="#174900"/>
<path d="M153.312 224.914L154.118 224.523L144.068 203.74L110.332 210.302L110.503 211.183L143.562 204.752L153.312 224.914Z" fill="#201F30"/>
<path d="M173.061 260.724L351.208 226.073L351.379 226.953L173.232 261.605L173.061 260.724Z" fill="#201F30"/>
<path d="M189.558 291.197L347.598 260.456L347.769 261.337L189.729 292.078L189.558 291.197Z" fill="#201F30"/>
<path d="M255.921 214.438L256.8 214.267L275.512 310.734L274.633 310.905L255.921 214.438Z" fill="#201F30"/>
<path d="M216.567 222.064L241.587 317.302L240.721 317.53L215.701 222.292L216.567 222.064Z" fill="#201F30"/>
<path d="M296.126 206.588L297.014 206.474L309.454 304.162L308.565 304.276L296.126 206.588Z" fill="#201F30"/>
<path d="M121.067 38.3234C121.067 38.3234 113.384 60.2427 118.112 63.6149C122.84 66.9871 102.155 94.5267 102.155 94.5267L77.3331 87.7823L90.9262 64.7389C90.9262 64.7389 92.6992 41.6955 92.6992 38.3233C92.6992 34.9511 121.067 38.3234 121.067 38.3234Z" fill="#FFD6BA"/>
<path opacity="0.1" d="M121.067 38.3234C121.067 38.3234 113.384 60.2427 118.112 63.6149C122.84 66.9871 102.155 94.5267 102.155 94.5267L77.3331 87.7823L90.9262 64.7389C90.9262 64.7389 92.6992 41.6955 92.6992 38.3233C92.6992 34.9511 121.067 38.3234 121.067 38.3234Z" fill="black"/>
<path d="M133.964 194.569C133.964 194.569 136.206 222.671 133.964 237.284C131.721 251.896 128.357 292.363 128.357 292.363C128.357 292.363 128.357 368.799 116.021 369.924C103.686 371.048 94.7148 372.172 93.5934 367.675C92.472 363.179 99.2004 360.931 95.8362 358.683C92.472 356.435 91.3506 348.566 95.8362 339.574C100.322 330.581 95.8362 239.532 95.8362 239.532L74.5297 296.859C74.5297 296.859 72.2869 344.07 70.0442 350.814C67.8014 357.559 72.2869 369.924 64.4372 371.048C56.5874 372.172 47.6163 365.427 43.1307 363.179C38.6451 360.931 49.8591 360.931 47.6163 359.807C45.3735 358.683 38.6452 355.311 40.888 354.187C43.1307 353.063 45.3735 299.107 45.3735 299.107C45.3735 299.107 51.5412 183.89 59.3909 179.394C67.2407 174.898 72.2869 182.642 72.2869 182.642L133.964 194.569Z" fill="#201F30"/>
<path d="M113.779 365.427V374.42C113.779 374.42 123.871 398.864 113.779 398.864C103.686 398.864 95.8366 401.397 95.8366 398.025V367.675L113.779 365.427Z" fill="#201F30"/>
<path d="M50.5209 364.538L49.0477 373.409C49.0477 373.409 35.0874 395.864 45.0432 397.522C54.9989 399.18 62.3273 402.969 62.8798 399.642L67.8517 369.703L50.5209 364.538Z" fill="#201F30"/>
<path d="M98.4308 53.5568C109.176 56.5314 120.297 50.2115 123.27 39.441C126.243 28.6705 119.943 17.5279 109.198 14.5534C98.4534 11.5788 87.3326 17.8987 84.3592 28.6692C81.3859 39.4397 87.6859 50.5823 98.4308 53.5568Z" fill="#FFD6BA"/>
<path d="M111.536 72.0455C111.536 72.0455 105.929 88.9065 96.9574 85.5343L87.9862 82.1621L72.2867 190.073C72.2867 190.073 84.6221 208.058 102.564 196.817C120.507 185.576 111.536 72.0455 111.536 72.0455Z" fill="white"/>
<path d="M95.8361 68.6733L90.7898 57.9946C90.7898 57.9946 61.0729 72.0455 56.5873 76.5417C52.1017 81.038 52.1017 87.7824 52.1017 87.7824L59.9514 115.884C59.9514 115.884 57.7087 177.708 57.7087 179.956C57.7087 182.204 49.8589 194.569 55.4659 190.073C61.0729 185.576 62.1942 181.08 66.6798 187.824C71.1654 194.569 81.2579 202.437 81.2579 202.437L95.8361 68.6733Z" fill="#CE5C1C"/>
<path d="M56.5873 149.606L59.9515 181.08C59.9515 181.08 80.1367 199.065 75.6511 200.189C71.1655 201.313 68.9227 196.817 68.9227 196.817C68.9227 196.817 61.0729 204.685 56.5873 200.189C52.1018 195.693 40.8878 152.978 40.8878 152.978L56.5873 149.606Z" fill="#FFD6BA"/>
<path d="M111.838 6.60841C107.568 5.25986 102.973 3.90567 98.6939 5.22874C96.6979 5.93476 94.8329 6.9685 93.175 8.28765C88.3943 11.7952 83.7752 16.5949 83.5535 22.5275L85.2464 22.3532C84.836 23.8395 84.1012 25.216 83.095 26.3831C83.4833 25.8155 83.924 27.0289 83.556 27.6098L80.3448 32.6791C83.3924 32.4283 86.266 35.4398 85.8801 38.4801C87.8473 32.1042 90.5479 24.9162 96.7901 22.5921C99.938 21.42 103.419 21.7597 106.756 22.1296C109.834 22.4707 113.049 22.8734 115.603 24.6275C118.158 26.3817 119.763 29.9413 118.316 32.6869C119.742 32.5978 120.947 33.9102 121.253 35.3084C121.56 36.7066 121.196 38.1553 120.835 39.5406C121.951 40.9077 124.069 39.393 125.078 37.9434C127.446 34.541 129.734 30.8546 130.104 26.7235C130.475 22.5925 128.315 17.9487 124.331 16.8313C124.962 16.4323 125.414 15.803 125.59 15.0764L122.38 13.8879C123.247 14.0005 124.127 13.8074 124.868 13.3416C123.146 14.432 113.951 7.27573 111.838 6.60841Z" fill="#201F30"/>
<path d="M105.929 65.3011C105.929 65.3011 115.057 56.3341 118.343 56.8834C121.628 57.4327 126.114 65.3011 126.114 65.3011C126.114 65.3011 153.027 74.2937 151.906 83.2862C150.784 92.2787 138.449 136.117 138.449 136.117C138.449 136.117 128.356 188.949 137.328 194.569C146.299 200.189 94.7146 214.802 93.5932 208.058C92.4719 201.313 90.229 133.869 93.5932 123.753C96.9574 113.636 105.929 65.3011 105.929 65.3011Z" fill="#CE5C1C"/>
<path d="M66.6797 83.2861H52.8136C52.8136 83.2861 43.1304 126.001 42.009 130.497C40.8876 134.993 38.6448 156.35 39.7662 156.35C40.8877 156.35 63.3155 151.854 63.3155 155.226L66.6797 83.2861Z" fill="#CE5C1C"/>
<path d="M67.1495 196.217H120.232C125.413 172.33 125.845 149.252 120.232 127.202H67.1495C75.716 148.855 76.2513 171.776 67.1495 196.217Z" fill="#FFCEAE"/>
<path d="M141.813 163.3L126.114 170.045C126.114 170.045 95.8362 174.541 95.8362 162.176C95.8362 149.812 126.114 156.556 126.114 156.556L136.207 153.321L141.813 163.3Z" fill="#FFD6BA"/>
<path d="M138.449 76.5417L151.906 79.914L161.999 139.49C161.999 139.49 165.363 155.226 159.756 156.351C154.149 157.475 138.449 166.467 138.449 166.467C138.449 166.467 136.207 149.606 131.721 149.606L142.935 140.614L136.207 101.271L138.449 76.5417Z" fill="#CE5C1C"/>
<path d="M328.755 191.647H402.335V192.7H328.755V191.647Z" fill="#FFCEAE"/>
<path d="M381.312 182.164H382.363V191.91H381.312V182.164Z" fill="#FFCEAE"/>
<path d="M349.252 182.164H350.303V191.91H349.252V182.164Z" fill="#FFCEAE"/>
<path d="M303.001 35.7062H376.582V36.7598H303.001V35.7062Z" fill="#FFCEAE"/>
<path d="M322.973 36.4965H324.024V46.2428H322.973V36.4965Z" fill="#FFCEAE"/>
<path d="M355.033 36.4965H356.084V46.2428H355.033V36.4965Z" fill="#FFCEAE"/>
<path d="M214.605 139.491H288.185V140.545H214.605V139.491Z" fill="#FFCEAE"/>
<path d="M234.577 140.281H235.628V150.028H234.577V140.281Z" fill="#FFCEAE"/>
<path d="M266.636 140.281H267.688V150.028H266.636V140.281Z" fill="#FFCEAE"/>
<path d="M353.982 138.964H427.562V140.018H353.982V138.964Z" fill="#FFCEAE"/>
<path d="M373.954 139.754H375.005V149.501H373.954V139.754Z" fill="#FFCEAE"/>
<path d="M406.014 139.754H407.065V149.501H406.014V139.754Z" fill="#FFCEAE"/>
<path d="M265.686 86.2815H339.266V87.3352H265.686V86.2815Z" fill="#FFCEAE"/>
<path d="M318.243 76.7986H319.294V86.5449H318.243V76.7986Z" fill="#FFCEAE"/>
<path d="M286.183 76.7986H287.234V86.5449H286.183V76.7986Z" fill="#FFCEAE"/>
<line x1="17.2337" y1="402.717" x2="401.011" y2="402.717" stroke="#213B85" stroke-width="2" stroke-dasharray="10 8"/>
<line x1="125.984" y1="418.478" x2="427.804" y2="418.478" stroke="#213B85" stroke-width="2" stroke-dasharray="10 8"/>
<line x1="74.7608" y1="450" x2="289.897" y2="450" stroke="#213B85" stroke-width="2" stroke-dasharray="10 8"/>
<line x1="17.2337" y1="434.239" x2="176.418" y2="434.239" stroke="#213B85" stroke-width="2" stroke-dasharray="10 8"/>
<line x1="214.245" y1="434.239" x2="285.168" y2="434.239" stroke="#213B85" stroke-width="2" stroke-dasharray="10 8"/>
<line x1="300.929" y1="434.239" x2="344.272" y2="434.239" stroke="#213B85" stroke-width="2" stroke-dasharray="10 8"/>
<line x1="340.331" y1="450" x2="383.674" y2="450" stroke="#213B85" stroke-width="2" stroke-dasharray="10 8"/>
<line x1="9.35324" y1="450" x2="36.9348" y2="450" stroke="#213B85" stroke-width="2" stroke-dasharray="10 8"/>
</svg>
