<svg width="987" height="550" viewBox="0 0 987 550" fill="none" xmlns="http://www.w3.org/2000/svg">
<g clip-path="url(#clip0_1_1454)">
<path d="M931.114 546.309H-3.06921C-4.43091 546.309 -5.5351 544.863 -5.5351 543.079C-5.5351 541.295 -4.43121 539.849 -3.06921 539.849H931.114C932.476 539.849 933.58 541.295 933.58 543.079C933.579 544.863 932.476 546.309 931.114 546.309Z" fill="#213B85"/>
<path d="M383.573 143.194H387.923V540.608H383.573V143.194Z" fill="#184655"/>
<path d="M391.653 416.82H309.437V352.317H391.653V416.82Z" fill="#DC773E"/>
<path d="M338.523 416.82H309.437V352.317H338.523V416.82Z" fill="#F47458"/>
<path d="M373.021 360.902H355.458V352.316H373.021V360.902Z" fill="#EFEFB4"/>
<path d="M326.978 416.82H244.762V352.317H326.978V416.82Z" fill="#DC773E"/>
<path d="M273.848 416.82H244.762V352.317H273.848V416.82Z" fill="#F47458"/>
<path d="M308.346 360.902H290.784V352.316H308.346V360.902Z" fill="#EFEFB4"/>
<path d="M371.7 352.317H276.26V287.812H371.7V352.317Z" fill="#F7CC7F"/>
<path d="M310.025 352.317H276.26V287.812H310.025V352.317Z" fill="#F47458"/>
<path d="M350.071 296.398H329.684V287.812H350.071V296.398Z" fill="#EFEFB4"/>
<path d="M261.894 417.094H56.1687L56.1687 247.432L261.894 247.432V417.094Z" fill="#F7CC7F"/>
<path d="M162.632 417.094H158.429L158.429 247.432H162.632L162.632 417.094Z" fill="#AA6D66"/>
<path d="M215.552 417.094H211.35L211.35 247.432H215.552L215.552 417.094Z" fill="#AA6D66"/>
<path d="M56.1687 307.643V304.267L261.894 304.267V307.643L56.1687 307.643Z" fill="#AA6D66"/>
<path d="M56.1689 365.745V362.369L261.894 362.369V365.745L56.1689 365.745Z" fill="#AA6D66"/>
<path opacity="0.6" d="M111.501 417.094H56.1688L56.1688 247.432H111.501L111.501 417.094Z" fill="#DC773E"/>
<path d="M144.83 252.019H125.102V247.432H144.83V252.019Z" fill="#EFEFB4"/>
<path d="M198.996 252.019H179.267V247.432H198.996V252.019Z" fill="#EFEFB4"/>
<path d="M251.526 252.019H231.798V247.432H251.526V252.019Z" fill="#EFEFB4"/>
<path d="M144.83 312.231H125.102V307.643H144.83V312.231Z" fill="#EFEFB4"/>
<path d="M198.996 312.231H179.267V307.643H198.996V312.231Z" fill="#EFEFB4"/>
<path d="M251.526 312.231H231.798V307.643H251.526V312.231Z" fill="#EFEFB4"/>
<path d="M144.83 370.333H125.102V365.745H144.83V370.333Z" fill="#EFEFB4"/>
<path d="M198.996 370.333H179.267V365.745H198.996V370.333Z" fill="#EFEFB4"/>
<path d="M251.526 370.333H231.798V365.745H251.526V370.333Z" fill="#EFEFB4"/>
<path d="M464.466 429.987L44.0367 429.987V416.82L464.466 416.82V429.987Z" fill="#184655"/>
<path d="M120.014 429.987H44.0366V416.82H120.014V429.987Z" fill="#3C8F7C"/>
<path d="M459.55 143.194H463.901V540.608H459.55V143.194Z" fill="#184655"/>
<path d="M463.901 147.253H383.573V143.194H463.901V147.253Z" fill="#184655"/>
<path d="M370.447 217.844L211.292 217.844L211.292 88.4168L370.447 88.4168V217.844Z" fill="#DC773E"/>
<path opacity="0.6" d="M250.835 217.844H211.292L211.292 88.4168H250.835V217.844Z" fill="#DC773E"/>
<path d="M321.288 126.464H305.417V88.417H321.288V126.464Z" fill="#EFEFB4"/>
<path d="M238.254 217.844L79.0986 217.844L79.0986 44.8056L238.254 44.8056L238.254 217.844Z" fill="#F7CC7F"/>
<path opacity="0.6" d="M118.642 217.844H79.0986L79.0986 44.8056H118.642L118.642 217.844Z" fill="#DC773E"/>
<path d="M189.094 95.6735H173.224V44.8055H189.094V95.6735Z" fill="#EFEFB4"/>
<path d="M413.078 217.844H330.862V153.34H413.078V217.844Z" fill="#F7CC7F"/>
<path d="M359.949 217.844H330.862V153.34H359.949V217.844Z" fill="#F47458"/>
<path d="M394.446 161.926H376.884V153.34H394.446V161.926Z" fill="#EFEFB4"/>
<path d="M353.521 88.4172L271.305 88.4172V23.913L353.521 23.913V88.4172Z" fill="#FFCAAC"/>
<path d="M300.392 88.4172H271.305V23.913H300.392V88.4172Z" fill="#F47458"/>
<path d="M334.889 32.4986H317.327V23.9128H334.889V32.4986Z" fill="#DC773E"/>
<path d="M122.189 147.253H41.861V143.194H122.189V147.253Z" fill="#184655"/>
<path d="M464.466 226.95L44.0367 226.95V213.783L464.466 213.783V226.95Z" fill="#184655"/>
<path d="M120.014 226.95H44.0366V213.783H120.014V226.95Z" fill="#3C8F7C"/>
<path d="M41.8613 143.194H46.2124V540.608H41.8613V143.194Z" fill="#184655"/>
<path d="M117.838 143.194H122.19V540.608H117.838V143.194Z" fill="#184655"/>
<path d="M809.01 526.102L816.342 524.26L762.767 337.167L686.22 294.765C684.562 293.847 682.474 294.445 681.555 296.1C680.636 297.755 681.234 299.841 682.891 300.759L756.918 341.764L804.587 514.344L809.01 526.102Z" fill="#213B85"/>
<path d="M794.973 515.479C794.973 529.094 806.02 540.131 819.648 540.131C833.275 540.131 844.323 529.094 844.323 515.479C844.323 501.864 833.276 490.827 819.648 490.827C806.02 490.827 794.973 501.865 794.973 515.479Z" fill="#1A1A1A"/>
<path d="M614.644 296.429C610.748 294.279 600.565 256.333 584.577 247.042C584.577 247.042 578.223 242.668 569.716 249.646C561.349 256.634 596.528 307.768 604.376 312.121C616.091 318.617 661.65 305.253 672.195 302.968L671.035 295.399C671.035 295.399 618.097 298.334 614.644 296.429Z" fill="#F48C7F"/>
<path d="M599.992 259.12C599.992 259.12 614.034 285.9 615.864 290.278C615.864 290.278 597.222 301.888 592.813 306.029C592.813 306.029 585.976 283.691 585.976 282.574C585.976 281.457 599.992 259.12 599.992 259.12Z" fill="#213B85"/>
<path d="M669.403 297.03L672.999 296.429L673.895 297.397L673.88 298.116L671.254 299.808C671.254 299.808 667.092 298.166 667.095 298.019C667.098 297.873 669.403 297.03 669.403 297.03Z" fill="#F48C7F"/>
<path d="M632.943 309.379L636.527 308.708L637.442 309.658V310.377L634.85 312.121C634.85 312.121 630.656 310.561 630.656 310.415C630.656 310.267 632.943 309.379 632.943 309.379Z" fill="#F7A491"/>
<path d="M636.806 310.377L684.027 294.379L688.654 298.566L640.314 314.975L636.806 310.377Z" fill="#213B85"/>
<path d="M509.724 514.88C509.724 514.88 506.103 518.419 506.02 519.718C505.938 521.018 505.699 534.934 507.178 536.233C508.656 537.532 512.999 538.453 511.603 539.915C510.548 541.019 502.429 540.783 497.048 540.486C495.478 540.399 493.508 527.848 492.886 526.003C491.982 523.323 489.785 517.288 490.607 515.421C491.007 514.511 492.922 512.641 495.62 510.895C498.458 509.059 501.173 504.972 501.173 504.972L509.724 514.88Z" fill="#F48C7F"/>
<path d="M547.726 523.122C547.726 523.122 544.485 532.293 544.481 532.316C544.24 533.77 543.291 537.359 543.291 538.68C543.291 543.642 565.632 534.468 560.625 532.269C560.172 532.069 558.75 530.479 558.601 528.791C558.371 526.189 560.483 522.925 560.483 522.925L547.726 523.122Z" fill="#F7A491"/>
<path d="M582.774 352.352C582.774 352.352 584.403 368.793 584.403 369.038C584.403 395.632 589.666 447.58 588.665 452.58C586.224 464.775 559.942 526.987 559.942 526.987L545.738 525.286L564.248 450.801L557.436 420.82L547.798 361.558L582.774 352.352Z" fill="#50BFA5"/>
<path d="M535.958 347.657L532.407 382.476L525.115 446.605L497.344 509.281C497.344 509.281 501.251 518.401 507.013 519.682L551.213 455.333L577.841 357.276L577.705 354.699L535.958 347.657Z" fill="#96D9C9"/>
<path d="M495.796 510.807C495.796 510.807 504.143 534.348 507.41 535.485C508.278 535.786 512.441 536.551 513.226 538.396C513.463 538.951 513.226 540.806 513.226 540.806H495.828C495.828 540.806 493.627 530.434 492.757 525.877C492.757 525.877 488.152 514.743 488.664 513.731C489.176 512.719 495.796 510.807 495.796 510.807Z" fill="#13375B"/>
<path d="M542.02 540.317L544.579 532.222C544.579 532.222 549.952 534.499 552.638 534.12C555.325 533.74 560.57 532.222 560.57 532.222C571.293 535.757 580.079 537.473 578.481 540.317H542.02Z" fill="#13375B"/>
<path d="M583.876 357.241L580.454 328.211C580.454 328.211 602.604 285.716 602.263 263.918C602.059 254.253 592.25 249.198 590.964 248.921C584.538 247.542 569.468 240.309 558.731 247.667C546.087 256.512 532.502 285.519 533.722 355.78C533.722 355.78 570.254 361.554 583.876 357.241Z" fill="#344F9D"/>
<path d="M583.796 309.684C579.858 307.611 588.771 257.897 572.603 248.921C572.603 248.921 566.164 244.673 557.796 251.817C549.568 258.968 562.473 326.806 570.406 331.003C582.246 337.267 625.695 319.721 636.193 317.229L634.543 307.717C634.543 307.717 587.286 311.52 583.796 309.684Z" fill="#F7A491"/>
<path d="M583.796 298.211C584.207 280.969 583.407 254.919 572.603 248.921C572.603 248.921 566.164 244.673 557.796 251.817C553.007 255.978 549.856 283.534 553.587 305.116C560.824 301.101 575.327 298.117 583.796 298.211Z" fill="#213B85"/>
<path d="M633.095 308.11C633.095 308.11 640.219 302.441 642.416 302.441C644.613 302.441 647.747 302.66 648.536 303.172C649.259 303.642 653.934 312.223 652.695 313.48C651.942 314.245 648.026 307.238 648.026 307.238C648.026 307.238 652.499 314.457 650.497 314.967C649.387 315.25 645.437 307.984 645.437 307.984C645.437 307.984 648.851 313.997 648.458 314.228C647.39 314.855 645.288 313.028 643.201 310.907C641.915 309.601 636.748 310.394 636.748 310.394L633.095 308.11Z" fill="#F7A491"/>
<path d="M591.432 193.99C591.432 193.99 585.282 187.513 580.335 195.392C580.335 195.392 576.524 193.255 573.85 197.061C573.85 197.061 566.964 194.992 565.292 205.274C565.292 205.274 561.749 204.607 561.281 208.813C560.813 213.02 562.952 215.824 562.952 215.824C562.952 215.824 560.962 217.315 561.866 221.183C562.635 224.471 565.359 224.972 565.359 224.972C565.359 224.972 566.094 230.514 568.501 232.183C570.908 233.852 574.184 233.051 574.184 233.051C574.184 233.051 575.053 236.055 577.861 235.788C580.669 235.521 584.145 232.85 587.287 234.053C590.43 235.254 598.586 233.986 598.586 233.986C598.586 233.986 607.745 229.913 605.004 220.565C605.004 220.565 609.817 216.225 605.605 211.017C605.605 211.017 608.681 202.871 602.597 198.063C596.513 193.255 591.432 193.99 591.432 193.99Z" fill="#07345A"/>
<path d="M590.393 237.961L591.507 246.211C591.507 246.211 594.001 258.096 590.792 260.387C587.583 262.678 577.147 245.872 577.147 245.872L578.249 224.968L590.393 237.961Z" fill="#F7A491"/>
<path d="M577.893 231.742C580.543 238.873 586.856 243.256 591.337 244.955L590.393 237.961L578.249 224.967L577.893 231.742Z" fill="#F47458"/>
<path d="M585.664 203.006C592.175 200.767 599.117 205.087 600.11 211.791C600.542 214.705 600.933 218.369 601.006 222.375C601.181 232.011 596.187 241.389 591.806 241.389C587.425 241.389 575.317 235.151 574.879 221.472C574.609 213.027 578.83 205.355 585.664 203.006Z" fill="#F7A491"/>
<path d="M578.107 222.554C578.107 224.679 576.696 226.403 574.956 226.403C573.216 226.403 571.805 224.68 571.805 222.554C571.805 220.428 573.216 218.705 574.956 218.705C576.696 218.705 578.107 220.428 578.107 222.554Z" fill="#F7A491"/>
<path d="M604.644 198.212C609.169 201.792 610.755 207.232 608.185 210.363C605.617 213.493 599.865 213.128 595.34 209.547C590.815 205.967 589.229 200.527 591.798 197.397C594.367 194.267 600.118 194.632 604.644 198.212Z" fill="#07345A"/>
<path d="M592.812 201.148C592.812 202.704 590.931 203.965 588.611 203.965C586.29 203.965 584.409 202.703 584.409 201.148C584.409 199.592 586.29 198.33 588.611 198.33C590.931 198.33 592.812 199.592 592.812 201.148Z" fill="#07345A"/>
<path d="M605.314 213.121C605.314 215.122 603.708 216.743 601.728 216.743C599.747 216.743 598.141 215.122 598.141 213.121C598.141 211.121 599.747 209.499 601.728 209.499C603.708 209.499 605.314 211.12 605.314 213.121Z" fill="#07345A"/>
<path d="M808.848 433.601L741.776 451.347L726.294 392.98L793.366 375.234L808.848 433.601Z" fill="#F7CC7F"/>
<path opacity="0.5" d="M765.509 445.068L741.78 451.346L726.298 392.98L750.027 386.701L765.509 445.068Z" fill="#F47458"/>
<path d="M780.225 387.025L765.898 390.816L763.837 383.047L778.164 379.256L780.225 387.025Z" fill="#EFEFB4"/>
<path d="M852.607 500.464L757.109 525.731L737.235 450.807L832.732 425.539L852.607 500.464Z" fill="#DC773E"/>
<path d="M790.899 516.79L757.113 525.729L737.239 450.805L771.025 441.866L790.899 516.79Z" fill="#DB7840"/>
<path d="M813.739 441.243L793.34 446.64L790.694 436.668L811.094 431.27L813.739 441.243Z" fill="#FFE9DD"/>
<path d="M871.208 496.333L802.126 514.611L786.01 453.857L855.093 435.579L871.208 496.333Z" fill="#F7CC7F"/>
<path opacity="0.5" d="M826.576 508.146L802.136 514.613L786.02 453.859L810.461 447.392L826.576 508.146Z" fill="#F47458"/>
<path d="M841.576 447.807L826.819 451.712L824.674 443.625L839.431 439.72L841.576 447.807Z" fill="#EFEFB4"/>
<path d="M669.58 295.764C669.58 295.764 676.814 290.236 679.01 290.279C681.207 290.322 684.336 290.602 685.115 291.13C685.829 291.614 690.333 300.285 689.07 301.518C688.302 302.268 684.525 295.185 684.525 295.185C684.525 295.185 688.855 302.491 686.844 302.962C685.728 303.222 681.922 295.88 681.922 295.88C681.922 295.88 685.217 301.959 684.819 302.182C683.739 302.788 681.674 300.92 679.629 298.759C678.369 297.427 673.187 298.119 673.187 298.119L669.58 295.764Z" fill="#F48C7F"/>
<path d="M870.673 495.948L872.517 504.416L756.047 535.011L754.067 526.116L870.673 495.948Z" fill="#213B85"/>
<path d="M759.524 539.103L766.167 537.382L715.296 353.21L638.749 310.808C637.091 309.89 635.003 310.488 634.084 312.143C633.165 313.798 633.763 315.883 635.42 316.801L709.448 357.807L759.524 539.103Z" fill="#213B85"/>
<path d="M735.958 515.479C735.958 529.094 747.006 540.131 760.633 540.131C774.261 540.131 785.308 529.094 785.308 515.479C785.308 501.864 774.261 490.827 760.633 490.827C747.006 490.827 735.958 501.865 735.958 515.479Z" fill="#1A1A1A"/>
<path d="M743.488 514.58C742.968 524.761 751.338 533.125 761.528 532.608C770.25 532.167 777.334 525.087 777.779 516.376C778.297 506.197 769.929 497.834 759.741 498.35C751.018 498.791 743.933 505.869 743.488 514.58Z" fill="#9E9DA2"/>
<path d="M749.176 514.731C748.736 521.656 754.449 527.364 761.379 526.927C767.093 526.566 771.728 521.935 772.091 516.228C772.531 509.303 766.817 503.594 759.887 504.032C754.173 504.393 749.538 509.024 749.176 514.731Z" fill="#D8D9DD"/>
<path d="M588.024 230.193L597.6 229.431C597.6 229.431 597.662 233.141 593.461 233.599C588.338 234.158 588.024 230.193 588.024 230.193Z" fill="white"/>
</g>
<defs>
<clipPath id="clip0_1_1454">
<rect width="986.163" height="550" fill="white" transform="matrix(-1 0 0 1 986.163 0)"/>
</clipPath>
</defs>
</svg>
