<svg width="24" height="25" viewBox="0 0 24 25" fill="none" xmlns="http://www.w3.org/2000/svg">
<mask id="mask0_1_1115" style="mask-type:alpha" maskUnits="userSpaceOnUse" x="0" y="0" width="24" height="25">
<rect y="0.11969" width="24" height="24" fill="#D9D9D9"/>
</mask>
<g mask="url(#mask0_1_1115)">
<path d="M12 11.8119C11.0375 11.8119 10.2136 11.4693 9.52825 10.7839C8.84275 10.0984 8.5 9.27444 8.5 8.31194C8.5 7.34944 8.84275 6.52552 9.52825 5.84019C10.2136 5.15469 11.0375 4.81194 12 4.81194C12.9625 4.81194 13.7864 5.15469 14.4718 5.84019C15.1573 6.52552 15.5 7.34944 15.5 8.31194C15.5 9.27444 15.1573 10.0984 14.4718 10.7839C13.7864 11.4693 12.9625 11.8119 12 11.8119ZM4.5 17.9082V17.2042C4.5 16.7145 4.633 16.261 4.899 15.8437C5.165 15.4264 5.5205 15.1055 5.9655 14.8812C6.95383 14.3967 7.95092 14.0333 8.95675 13.7909C9.96258 13.5486 10.977 13.4274 12 13.4274C13.023 13.4274 14.0374 13.5486 15.0433 13.7909C16.0491 14.0333 17.0462 14.3967 18.0345 14.8812C18.4795 15.1055 18.835 15.4264 19.101 15.8437C19.367 16.261 19.5 16.7145 19.5 17.2042V17.9082C19.5 18.3299 19.3523 18.6885 19.0568 18.9842C18.7613 19.2797 18.4026 19.4274 17.9808 19.4274H6.01925C5.59742 19.4274 5.23875 19.2797 4.94325 18.9842C4.64775 18.6885 4.5 18.3299 4.5 17.9082ZM6 17.9274H18V17.2042C18 17.0017 17.9413 16.8142 17.824 16.6417C17.7067 16.4694 17.5474 16.3287 17.3462 16.2197C16.4846 15.7954 15.6061 15.4739 14.7107 15.2552C13.8152 15.0367 12.9117 14.9274 12 14.9274C11.0883 14.9274 10.1848 15.0367 9.28925 15.2552C8.39392 15.4739 7.51542 15.7954 6.65375 16.2197C6.45258 16.3287 6.29333 16.4694 6.176 16.6417C6.05867 16.8142 6 17.0017 6 17.2042V17.9274ZM12 10.3119C12.55 10.3119 13.0208 10.1161 13.4125 9.72444C13.8042 9.33277 14 8.86194 14 8.31194C14 7.76194 13.8042 7.2911 13.4125 6.89944C13.0208 6.50777 12.55 6.31194 12 6.31194C11.45 6.31194 10.9792 6.50777 10.5875 6.89944C10.1958 7.2911 10 7.76194 10 8.31194C10 8.86194 10.1958 9.33277 10.5875 9.72444C10.9792 10.1161 11.45 10.3119 12 10.3119Z" fill="#555555"/>
</g>
</svg>
