<svg width="24" height="25" viewBox="0 0 24 25" fill="none" xmlns="http://www.w3.org/2000/svg">
<mask id="mask0_1_1109" style="mask-type:alpha" maskUnits="userSpaceOnUse" x="0" y="0" width="24" height="25">
<rect y="0.11969" width="24" height="24" fill="#D9D9D9"/>
</mask>
<g mask="url(#mask0_1_1109)">
<path d="M10.5578 19.9467H13.4423C13.5627 19.9467 13.6666 19.9031 13.7538 19.8159C13.8409 19.7286 13.8845 19.6247 13.8845 19.5042C13.8845 19.3837 13.8409 19.2799 13.7538 19.1927C13.6666 19.1055 13.5627 19.0619 13.4423 19.0619H10.5578C10.4373 19.0619 10.3334 19.1055 10.2463 19.1927C10.1591 19.2799 10.1155 19.3837 10.1155 19.5042C10.1155 19.6247 10.1591 19.7286 10.2463 19.8159C10.3334 19.9031 10.4373 19.9467 10.5578 19.9467ZM7.30775 22.6197C6.80258 22.6197 6.375 22.4447 6.025 22.0947C5.675 21.7447 5.5 21.3171 5.5 20.8119V3.42744C5.5 2.92227 5.675 2.49469 6.025 2.14469C6.375 1.79469 6.80258 1.61969 7.30775 1.61969H16.6923C17.1974 1.61969 17.625 1.79469 17.975 2.14469C18.325 2.49469 18.5 2.92227 18.5 3.42744V20.8119C18.5 21.3171 18.325 21.7447 17.975 22.0947C17.625 22.4447 17.1974 22.6197 16.6923 22.6197H7.30775ZM7 17.8889V20.8119C7 20.8889 7.03208 20.9594 7.09625 21.0234C7.16025 21.0876 7.23075 21.1197 7.30775 21.1197H16.6923C16.7692 21.1197 16.8398 21.0876 16.9038 21.0234C16.9679 20.9594 17 20.8889 17 20.8119V17.8889H7ZM7 16.3889H17V5.86969H7V16.3889ZM7 4.36969H17V3.42744C17 3.35044 16.9679 3.27994 16.9038 3.21594C16.8398 3.15177 16.7692 3.11969 16.6923 3.11969H7.30775C7.23075 3.11969 7.16025 3.15177 7.09625 3.21594C7.03208 3.27994 7 3.35044 7 3.42744V4.36969Z" fill="#555555"/>
</g>
</svg>
