<svg width="24" height="25" viewBox="0 0 24 25" fill="none" xmlns="http://www.w3.org/2000/svg">
<mask id="mask0_1_1094" style="mask-type:alpha" maskUnits="userSpaceOnUse" x="0" y="0" width="24" height="25">
<rect y="0.11969" width="24" height="24" fill="#D9D9D9"/>
</mask>
<g mask="url(#mask0_1_1094)">
<path d="M15.773 13.0927L14.65 11.9697C14.8205 11.0799 14.5865 10.321 13.948 9.69276C13.3096 9.06456 12.5435 8.82354 11.65 8.96969L10.5269 7.84664C10.759 7.73894 10.9977 7.66137 11.2432 7.61394C11.4887 7.5665 11.741 7.54279 12 7.54279C13.1346 7.54279 14.0977 7.93862 14.8894 8.73029C15.681 9.52195 16.0769 10.4851 16.0769 11.6197C16.0769 11.8787 16.0547 12.1309 16.0105 12.3764C15.9663 12.6219 15.8871 12.8607 15.773 13.0927ZM18.9538 16.2043L17.85 15.1697C18.4833 14.6864 19.05 14.1489 19.55 13.5572C20.05 12.9655 20.4666 12.3197 20.8 11.6197C19.9666 9.93635 18.7625 8.59885 17.1875 7.60719C15.6125 6.61552 13.8833 6.11969 12 6.11969C11.5166 6.11969 11.0458 6.15302 10.5875 6.21969C10.1291 6.28635 9.66662 6.38635 9.19995 6.51969L8.0346 5.35434C8.67049 5.10305 9.31888 4.9178 9.97978 4.79856C10.6407 4.67933 11.3141 4.61971 12 4.61971C14.1487 4.61971 16.1224 5.17804 17.9211 6.29471C19.7198 7.41138 21.1031 8.92227 22.0711 10.8274C22.1377 10.9543 22.1861 11.0822 22.2163 11.211C22.2464 11.3399 22.2615 11.4761 22.2615 11.6197C22.2615 11.7633 22.249 11.8995 22.224 12.0283C22.199 12.1572 22.1531 12.2851 22.0865 12.412C21.7326 13.1646 21.2884 13.8594 20.7538 14.4966C20.2192 15.1338 19.6192 15.703 18.9538 16.2043ZM12 18.6197C9.89484 18.6197 7.96536 18.0572 6.21153 16.9322C4.45768 15.8072 3.06344 14.3254 2.02883 12.487C1.94549 12.3601 1.8846 12.2223 1.84615 12.0735C1.80769 11.9248 1.78845 11.7735 1.78845 11.6197C1.78845 11.4658 1.80512 11.3171 1.83845 11.1735C1.87179 11.03 1.93012 10.8896 2.01345 10.7524C2.38525 10.0729 2.80641 9.42579 3.27693 8.81104C3.74744 8.19629 4.28847 7.64533 4.9 7.15816L2.6423 4.88506C2.50384 4.73635 2.43557 4.55974 2.4375 4.35526C2.43942 4.15078 2.51281 3.9761 2.65768 3.83124C2.80254 3.68637 2.97819 3.61394 3.1846 3.61394C3.391 3.61394 3.56664 3.68637 3.7115 3.83124L20.2884 20.4081C20.4269 20.5466 20.5002 20.7181 20.5086 20.9225C20.5169 21.127 20.4435 21.3068 20.2884 21.462C20.1435 21.6068 19.9679 21.6793 19.7615 21.6793C19.5551 21.6793 19.3794 21.6068 19.2346 21.462L15.7154 17.9735C15.1256 18.2017 14.5195 18.3665 13.8971 18.4677C13.2746 18.569 12.6423 18.6197 12 18.6197ZM5.95383 8.21196C5.36793 8.66453 4.84132 9.1764 4.374 9.74756C3.90669 10.3187 3.51534 10.9428 3.19995 11.6197C4.03329 13.303 5.23745 14.6405 6.81245 15.6322C8.38745 16.6239 10.1166 17.1197 12 17.1197C12.4295 17.1197 12.8522 17.0908 13.2683 17.0331C13.6843 16.9755 14.0974 16.8864 14.5077 16.7658L13.2423 15.4697C13.0397 15.5581 12.8375 15.618 12.6355 15.6495C12.4336 15.6809 12.2218 15.6966 12 15.6966C10.8654 15.6966 9.90222 15.3008 9.11055 14.5091C8.31889 13.7174 7.92305 12.7543 7.92305 11.6197C7.92305 11.3979 7.94036 11.186 7.97498 10.9841C8.00959 10.7822 8.06793 10.5799 8.14998 10.3774L5.95383 8.21196Z" fill="#555555"/>
</g>
</svg>
